<?xml version="1.0" encoding="utf-8"?>
<!-- Generator: Adobe Illustrator 27.9.4, SVG Export Plug-In . SVG Version: 9.03 Build 54784)  -->
<svg version="1.1" id="Layer_1" xmlns="http://www.w3.org/2000/svg" xmlns:xlink="http://www.w3.org/1999/xlink" x="0px" y="0px"
	 viewBox="0 0 2000 2000" style="enable-background:new 0 0 2000 2000;" xml:space="preserve">
<style type="text/css">
	.st0{fill:#052233;}
</style>
<g id="Layer_1_00000000918785404447184370000012684377463231780229_">
	<g>
		<path class="st0" d="M1528,1356.8c-0.6-0.5-1.3-1-2.3-1.5C1526.6,1355.9,1527.3,1356.4,1528,1356.8z"/>
		<path class="st0" d="M1749.2,1526.4c-1.6-4.7-2.8-9.5-3.7-14.3c-12-61.4-35.7-117.8-73.6-167.8c-18.7-24.6-40.9-45.4-65.7-64.5
			c-24.2-18.6-43.7-43.2-65.3-65.2l0,0c-8.3-9.3-19.1-14.4-31.1-17.1c-9.3-3.9-18.4-8.3-27.8-11.7c-9.6-3.5-16.8-12.2-28.3-12.1
			c1.2-1.8,2.2-3.2,3.2-4.6c25.6-34.9,44.6-72.8,54.7-115c11.8-49.1,13.8-99.1,12.5-149.3c-0.3-12.6-0.4-12.9,12.1-14.9
			c8.5-1.3,12.5-4.7,12.3-14.2c-0.2-10.9-1.5-22.7,8-31.5c0.9-0.8,0.1-3.4,0.4-5.1c1.6-9-2.7-17-3.8-25.5
			c-1.9-15.1-1.4-30.3-1.7-45.4c-0.3-15.7-16.6-25.3-30.9-17.8c-0.1-1.2-0.2-2.4-0.3-3.5c-0.2-3.2-0.3-6.4-0.7-9.5
			c0-0.3-3.3,4.3-3.3-0.8c0-2.2-0.7-4.4,3.2-4.5c1.6,0,1.8-3.6,0.3-4.3c-9.2-4.5-8.2-14.1-10.6-21.7c-12.4-38-31.1-73.3-47.6-109.5
			c-20.7-45.4-38.8-91.6-44.9-141.5c-1.6-13.1-8.5-21.9-20-27.6c-9.4-4.6-19.1-8.9-27.8-14.6c-22.5-14.9-46.5-22.1-73.5-18
			c-6.4,1-11.6-1.6-16.7-5.7c-28.8-23.6-60.2-42.8-94.4-57.5c-71.6-30.8-146.5-40.3-223.8-34.9c-85,6-162.1,32.8-229.8,85.2
			c-9.5,7.3-18.8,10.2-30.6,8.9c-16-1.9-31.8-1.1-46.4,7.9c-12.1,7.5-24.5,15-37.6,20.2c-20.4,8.2-31.9,21.4-31.4,43.9
			c0,1.1-0.4,2.3-0.6,3.4c-7.6,44.6-24.6,85.9-43.2,126.7c-17,37.3-37.2,73.2-47.9,113.1c-1.2,4.3-3.2,3.7-6.3,3.1
			c-12.4-2.8-24.8-3.5-36.7,2.3c-4,2-7.7,4-7.2,9.6c2.2,23.5,4.6,47.1,0.4,70.7c-1.3,7.3,2.3,11.4,9.2,11.9c4.6,0.3,5.8,2.5,6.4,6.4
			c2,12.9,0.9,26,1.8,39c0.6,8.8,7.9,15.4,8.1,24.5c0.1,2.4,4.4,3.4,7,4.6c2.4,1,4.9,2,7.3,3c-8.6,1.2-13.9,4.3-14.2,13.6
			c-0.1,2.4-3.7,2.6-5.8,3.3c-2.8,1-4.6,1.5-5,5.3c-0.3,2.7-2.8,6-6.6,6c-2.1,0-5.2,0.9-5.7-2.4c-1.2-7.7-6.1-2.2-9.2-2.6
			c-4.6-0.6-4,3.4-3.8,6.1c1.1,12.8-3.7,23.9-9.7,34.7c-1.6,2.9-2.1,5.7-1.6,9.1c3.4,23.9,6.7,47.8,9.9,71.8
			c1.1,8.2,2.1,16,11.4,19.8c2.8,1.2,4.7,5,6.5,8c6.9,11.7,6.8,11.7,20.6,9.3c0.9-0.2,1.8-0.2,2.6-0.5c4.3-1.6,6.2,0.3,7.5,4.4
			c2.9,9.2,6.5,18.3,9.6,27.4c6.2,17.9,13.6,35.2,21.8,52.2c1,2.2,3.4,4.1,1.3,7.1c-3.1,4.4-0.5,8.3,2.6,10.8
			c9.4,7.5,5,18.1,6.8,27.2c0.4,2.3-1.9,2.5-3.4,3.3c-25.2,14.5-50.5,28.9-75.5,43.6c-15.8,9.3-32.3,17.7-44.6,31.8
			c-13,15-28,27-46.2,35c-11.6,5.1-18.9,14.2-22.8,26.2c-5.1,15.6-8.5,31.5-8.3,47.9c0.1,5.3-1.5,8.1-6.2,10.9
			c-18.8,10.9-31.4,25.9-29.1,49.4c0.4,4.4-1.2,7.2-4.2,10.6c-14.8,16.9-24.2,36.9-30.3,58.4c-2.1,7.2-1.2,15,0.7,22.5
			c2.8,11.1,10.4,21.8,2.4,34.1c3.4-3.1,4.8-6.5,8.4-0.1c4.5,8.1,11.3,14.8,17.1,22.1c-2-6-5.6-10.8-8.3-16.2
			c-9.3-18.2-19.6-37-16.7-57.7c3.1-22.1,13.3-43,29.1-58.5c14.9-14.6,30.3-28.4,42.3-46.6c13.4,27.4,32.2,48.2,58.7,61.5
			c-10.7-9.2-21.6-17.8-30.8-28.8c-10.7-12.8-22.5-24.4-25.7-41.6c-4-21.8-4.3-43.1,6.1-63.7c2-3.9,7-6.1,6.8-10.5
			c-0.6-12.2,9.5-13.4,16.2-18.5c-2.9,28,1.3,54.3,9.3,81.7c1.3-3.5,0.8-5.4,0.3-7.3c-5.3-18.2-8.4-36.8-8.6-55.8
			c-0.1-5.4,0.7-10.6,3.4-15c5.4-8.9,14.8-13.3,24.4-21.1c-6.4,18.7-4.1,35.5-1.6,52.1c7.6,50.2,24,97.6,47.6,142.4
			c15.3,29,31.5,57.6,47.3,86.4c2.8,5.1,3.8,9.2-1,14.6c-13.9,15.7-27.1,32-42.5,46.3c-1.5,1.4-3.7,2.6-3.3,5.5
			c4.2,0.4,5.9-2.8,8.2-4.8c14.4-12.8,27-27.4,39.2-42.2c4.2-5.1,5.8-4.8,8.2,1.3c8.1,20.8,16.6,41.5,25,62.2
			c0.7,1.8,1.2,4.1,4.2,3.9c1.6-4.9-0.9-9-2.6-13.2c-8.4-21-16.2-42.3-25.7-62.9c-17.2-37.5-38.7-72.9-57.7-109.6
			c-10.8-20.9-11.4-21,7.3-35.4c23.2-17.9,37.4-42.3,50.6-67.5c-3.2,3.5-6,7.4-8.3,11.5c-13.7,23.6-32.1,42.6-54.2,58.5
			c-7.3,5.3-9.3,3.1-11.8-3.5c-12.2-33-22.8-66.4-28-101.5c-4.9-33.1,3.9-58.7,34-76.3c18.8-11,37.8-21.9,56.7-32.7
			c12.3-7,23.3-16.2,37.5-24c-1.6,5.2-0.9,8.9-5,11.4c-17.2,10.4-34.2,21.1-51.2,31.6c-2.2,1.3-3.1,1-2.8,0c2.2-8.1-3.5-2.1-3.9-1.8
			c-5.7,4.1-11.2,8.4-16.7,12.7c-4.3,3.4-9,5.4-14.4,7.2c-8.3,2.9-13.4,12.4-18.7,20.1c-2.1,3-4.1,6.4-2.6,11
			c3.9-4.7,7.6-9.2,11.3-13.7c2.8,16,0.1,31.2-1.7,46.5v-22.8c-3.2,12.4-4.5,24.9-2.8,37.6c0.6-2.1,1.3-4.2,2.4-8
			c1.2,12.3,0.1,23,5.6,32.5c0.9-4.2-3.6-8,0-12.9c0.7,6.5,3.3,11.5,9.5,16.7c-4.4-19.4,8.3-29,18.9-39.5
			c21.9-21.8,45.2-42,69.2-61.5c2.2-1.8,5.3-3.1,5.8-8c-38.4,27.1-70.4,58.8-99.4,93.6c-4.6-6.7-4.3-15-3.2-23.5
			c1.6-12.1,6.4-25,3.9-36.2c-3.8-16.9,5.1-23.9,16.5-30.3c13.2-7.4,25.8-15.8,38.4-24.2c12.5-8.3,25.1-16.5,37.6-24.7
			c1.6,7.6,2.8,14.8,4.6,21.7c1.8,7,3.9,14,6.5,20.7c27.4,70.8,49,143.4,67.2,217.1c15.6,63.5,31.2,126.9,45.1,190.8
			c1,4.6,1.6,9.6,5.7,13.2c1.9-2.6,0.7-4.8,0.3-6.9c-11-47.3-20.4-94.9-32.4-141.9c-15.7-61.4-29.4-123.3-49.1-183.5
			c-5.2-15.9-12-31.3-15.4-47.8c1.8,0.1,1.7,1.8,2.1,3c7.5,21.7,15.1,43.3,22.3,65.1c18.3,55.3,29.7,112.4,45.8,168.2
			c13.2,45.8,22.2,92.7,35.6,138.5c1.5,5.1,3.2,8,9,8.5c7.2,0.5,14.5,1.6,21.5,3.7c8.1,2.4,8-1.2,6.8-7.1
			c-5-23.9-9.5-47.9-14.8-71.7c-12.8-57.5-31-113.8-40.2-172.2c-8.3-52.9-27.6-102.4-46.7-152c-4.8-12.4-8.9-25.1-13.6-38.5
			c6.8,1.6,10,4.8,11.4,10.1c1.6,5.6,3.7,11,5.4,16.5c18.6,62.2,44.5,122.3,54.3,187.2c5.6,37.1,17.7,72.8,27.2,109.1
			c9.6,36.9,14,74.9,22.4,112c0.8,3.5,0.7,7.4,4.5,9.1c1.7-1.1,1.5-2.1,1.2-3.3c-8.4-36.8-11.3-74.8-21.2-111.2
			c-15.2-55.8-29.4-111.8-39.5-168.8c-0.5-3-3.1-6.6,1.2-8.3c15.2-6.2,27.7-17,41.9-25c2.8-1.6,4.4-1.3,6.7,1
			c17.1,17.2,36.3,31.8,57.6,43.5c11,6.1,21,14.3,33.5,17.6c1.1,1.9-3.2,5,1.9,6.4c48.7,13.7,97.7,25.9,147.8,33.6
			c16.4,2.5,33.1,1.6,49.4,5.3c4.4,1,9.2,0.7,12.2-3.3c-1.1-3.8-6.2-1.1-6.5-5.3H996c0.3,12-6.7,11.9-15.1,9.5
			c-1.6-0.4-3.5,0.1-5.2,0.3c-2.6,0.3-4,1.5-4.5,4.4c-0.6,3.5,1.5,4.6,4.7,5.6c-17.3,1.3-33.9,1.1-50.4-0.1
			c22.4,4.9,44.9,6.7,67.9-1.7c-3.5,22.8-4,44.5-0.7,66.2c0.6,4.3-1.7,4-4,5c-6.9,2.7-14.5,3.4-20.8,7.6c2.4-0.1,4.6-0.6,6.8-1.2
			c20.4-4.9,20.4-4.9,24.1,15.3c0.8,4.3,0.1,6.9-4.9,8.3c-7.1,2-14.7,3.3-21.1,7.6c7.1-1.3,14-3.3,21-5.2c9-2.5,10.2-1.8,10.3,7.5
			c0.3,22.4,2.9,44.7,4.2,67.1c0.7,11.3,0.9,22.7,1.5,34c0.3,6.4,0.9,6.8,6.7,3.5c1.3-0.7,0.9-0.3,1.9,0.1c4.7,2.1,5.7,1.4,5.7-4.5
			c0-1.3-1.7-2.5,0.9-2.5c1.1,0,3.1-0.8,2.8,1.8c-0.9,7.6,4.1,7.4,9.3,7c7.4-0.5,4-6.2,3.8-9.3c-2-37.8-4.3-75.5-6.7-113.3
			c-0.7-10.4-2.1-20.7-3.1-31.1c9.5,50.6,13.8,101.6,15.6,153c-0.5-32.7,0.4-65.3-4.4-97.5c5.8-1.2,9.8,3.1,14.8,1.3
			c-4.7-3.3-11.6-2.6-14.6-8.8c5.8-3.2,10.9,1.9,16.8,0.2c-6.2-3.2-14.2-2.4-17.7-9.9c3.4-0.5,5.6,3,10,0.6
			c-18.4-4.4-10.5-19.1-13-30.3c1.7,0.2,1.8,1.6,2.6,2.4c20.2,20.9,50.6,22.8,73.1,4c5-4.1,8.8-6.5,13.5-1.5
			c-5.5-6.7-5.4-7.4-1.6-15.9c14.1-31.5-11.8-71.8-47.5-68.5c-4,0.4-8.1,0-12.1,0c0-0.3,0-0.5,0-0.8c7.9-1.6,15.8-3.2,23.7-4.8
			c-12-0.1-23.9-0.4-35,5.1c-10.7,5.3-18.1,14.2-25.2,23.4c5.1-17.5,17.8-25.1,34.6-29c23.4-5.4,47.3-5.9,70.9-9.1
			c16.5-2.3,33.4-2.9,49.3-8.8c-18.9,2.1-37.7,5.7-56.8,6.4c-2.9,0.1-5.7,1.2-8.7,0.1c1.4-2.8,4-2.8,6.4-3
			c27.7-2.4,55.3-5.4,82.5-11.9c1.9-0.4,4,0.1,6,0.3c3.7-1.1,7.3-2.2,11-3.3c6-2.4,12-4.8,18-7.2c-6,2.4-12,4.8-18,7.2
			c1.6,1.1,3.3,1,5,0.5c28.1-8.6,54.9-20.1,79.6-36.2c2.6-1.7,5-3.7,7.4-5.6c-8,2.1-14.3,7.1-22,8.8c-6.5,3.7-12.9,7.7-19.6,11.2
			c6.6-3.5,13-7.5,19.6-11.2c3-2.1,6.1-4.3,9.1-6.5c13.9-10,28.9-18.6,40.9-31.2c13.6-14.3,26-29.6,37-46c1.1-1.6,2-5.4,4.9-2.9
			c2.2,2-0.3,4.3-2.1,5.6c-10.8,8.2-14.6,21.7-26.1,32.3c5.6-1.5,8.5-2.3,11.4-3.1c-14.9,19.2-36,31.5-51.9,50.6
			c28.4-11.6,48.2-30.8,60.7-57.9c-0.1,3.6-1.1,6.6-2.1,9.5c-5.2,15.7-12,31.1-15.3,47.2c-8.2,40.8-13,82.1-14.8,123.7
			c-1.6,36.1-2.3,72.2-6.6,108.1c-1.1,9.6-2.3,19.2-3.6,29.7c4.2-2.5,3.7-5.8,4.2-8.4c2.8-14.9,5-29.9,6-45
			c3.1-44.7,4.9-89.6,8.5-134.3c5.9-73.6,28.7-141.5,66.9-204.4c16.7-27.4,35.8-53.2,62.3-72.3c6.3-4.5,12.8-9.3,21.4-8.1
			c-20.8,10.8-37.3,26.5-51.7,44.7c-41.7,52.5-67.4,112.5-82.8,177.1c-11.7,48.9-12,99.3-17.5,149.1c-3.6,32.1,0.7,64.8-8,96.4
			c-1,3.7,0,4.6,3.8,3.8c12.5-2.6,25.1-5.2,37.7-7.1c6-0.9,8.3-2.9,8.7-9.2c3.3-49.7,12.1-98.8,14.2-148.6
			c0.6-14.4,1.2-28.8,3.7-43.5c1.4,0.9,2.2,1.2,2.7,1.7c26.6,33.2,52.8,66.6,74.3,103.5c8.5,14.6,17.1,29.1,26.1,43.4
			c3.9,6.1,7.9,12.7,16.7,13.5c-7.8-7-13.9-15.3-18.8-24.4c-26.9-50.3-59.4-96.7-96.5-139.9c-3.3-3.9-2.5-7.4-1.8-11.3
			c11.5-60.6,32.3-117.6,65.6-169.8c10.5-16.5,23.2-30.4,38.9-41.9c5.1-3.7,8.1-3.9,12.8,1.3c16.5,18,33.8,35.4,50.8,53
			c1.6,1.7,3.1,4,8.2,4.8c-20-21-38.5-40.2-56.8-59.6c-1.6-1.7-5.9-3.2-3.9-5.7c2.3-3,6.3-5.8,10.6-4.8c2.6,0.6,4.9,3,7,4.9
			c19,16.4,34.5,36.4,53,53.2c4,3.6,1.2,5.6-0.9,7.8c-8.5,9.1-17.4,18-25.8,27.3c-3.3,3.7-5.6,3-8.4-0.1c-5.1-5.5-10.4-11-15.6-16.4
			c-1.6-1.6-2.9-5.6-5.6-2.9c-2.5,2.5,1,4.6,2.8,6.2c5,4.9,9.9,9.8,15.3,14.3c4.7,3.9,3.7,6.5-0.4,10.1
			c-9.2,8.1-18.3,16.2-26.8,25.1c-3.5,3.6-6.3,3.9-9.9,1.8c4.3,3.4,1.6,6.4-1.4,9.5c-2.5,2.5-4.5,5.4-7.1,7.7
			c-6.2,5.5-6.4,10.8,0.2,15.8c5.6,4.2,4.5,8.8,1.6,13.8c-1.9,3.3-4.7,5.8-7.7,8.2c-20.5,15.9-38.3,35.1-58.8,51.1
			c27-18.2,54.4-35.8,76.4-61.3c16.2,15.4,31.4,33.4,45.6,52.2c2.7,3.5,1.7,5.7-1.2,8.6c-19.7,19.8-39.2,39.7-58.6,59.7
			c-2,2-4.7,3.7-5.4,8.1c24.4-23.2,47.8-45.5,71.7-68.2c12.4,17.4,23.5,36.3,34.4,55.6c3,5.3,3.4,9.1-1.9,14.2
			c-5.5,5.4-10.7,11.2-16.2,16.7c-11.2,11.5-22.8,22.7-34.2,34c2.3,0.7,3.5,0.1,4.4-0.8c16.4-16.6,35-31,50.1-49.1
			c2.9-3.5,4.4-3.7,6.6,0.4c4.2,8,8.5,15.9,13.2,23.5c2.2,3.6,1.5,5.7-1.7,7.9c-24.3,17-46.4,37.3-74.9,47.6
			c-2.4,0.9-5.3,1.6-7.2,5.2c17.8-6.1,34.5-12.6,49.3-23.1c13.3-9.4,26.2-19.5,40.2-27.9c34.6-20.8,65.7-45.2,87.5-81.3
			c3.8,9.2,4.8,17.8,6.8,26.1c1.5,6.5,5,13.5,3.8,19.4c-1.4,6.6-10.8,6.4-15.9,10.5c-3.2,2.5-6.8,4.5-10.2,6.8
			c-20.7,14.2-38.8,31.7-57.6,48.2c-1.5,1.3-3.2,2.5-4.7,3.8c0.5,0.5,1.1,1,1.6,1.5c8.5-7,17-14.1,25.6-20.9
			c19.6-15.5,38.2-32.4,61.9-42C1749.4,1536.1,1751.2,1532.2,1749.2,1526.4z M431.7,986.6c-0.2-13.6-8.9-27-0.6-40.4
			C426.1,959.8,432.8,973.2,431.7,986.6z M323.2,1403.8c-2.6,4.5-5.5,8.9-8.5,13.1c-5.1,7.1-10.4,14-16.9,19.8c-2.2,2-4,6.3-7.4,4.6
			c-2.6-1.2-0.9-5.3-1.3-7.7c0.2-16.5,13.4-35.1,28.6-40.8c1.5-0.6,3.6-2.2,4.4,0.1C323.1,1396.4,325.4,1400.1,323.2,1403.8z
			 M1075.2,1496.7c20.9,0.9,34.6,13.1,35.3,36c0.5,15.5-12.7,27.5-29.5,27.7c-18.4,0.2-34.3-15.5-34.6-34.2
			C1046.2,1509.7,1058.8,1496.1,1075.2,1496.7z M1544.1,860.4c-0.3,3.2-0.6,6.4-0.8,9.6c-1,15.2-2.4,16.4-18.6,15.8
			c-1.5-9.2,1.2-18.6-1.6-27.6c-0.8-2.7-0.1-3.5,2.6-2.9c5.4,1.1,10.7,2.5,16.3,1.6C1544.7,856.5,1544.3,858.7,1544.1,860.4z
			 M1547.5,776.9c0.1,6.1,0,12.2,0,18.3c0.3,0,0.6,0,0.9,0c0,6.4-0.3,12.8,0.1,19.2c0.3,5-1.7,6.7-6.3,7.2c-6,0.7-5-3.5-5-6.7
			c-0.2-12.8,0-25.5-0.3-38.3c-0.1-6.5,5.2-4.7,8.1-5.1C1549.7,770.7,1547.4,774.8,1547.5,776.9z M1519.5,757.2
			c3,5.6,13.4,9,17.8,6.1c3-1.9,2.6-3.4-3.1-9.2c1.4-1.1,2.8-0.5,4.1,0.1c3.3,1.5,7.3,3.8,7.1,6.9c-0.3,3.4-4.9,4-8.3,4.7
			c-4.6,0.9-9.1,1.1-13.8,0.6C1516.2,765.6,1515.7,762.7,1519.5,757.2z M1532.8,798.4h0.3c0,6.7-0.4,13.4,0.1,20
			c0.5,5.9-3.2,5.3-6.5,5c-3.4-0.2-9,2.9-9-4.2c-0.1-13.6-0.2-27.2,0.4-40.8c0.3-7.6,7.1-3.5,10.8-4.6c4.7-1.4,3.9,2.7,3.9,5.5
			C1532.8,785.7,1532.8,792,1532.8,798.4z M1516.7,835.3c0.3-3.8,1.4-4.7,4.9-5.2c8.8-1.4,17.9-0.3,26.6-3.1
			c2.5-0.8,4.2-0.1,3.6,2.7c-0.9,4.3,3,10.7-4.4,12.3c-6.5,1.4-13.1,1.8-19.7,2.6C1520.5,845.5,1515.8,844.4,1516.7,835.3z
			 M1477,644.3c34.6,53.8,41.3,114.6,34.7,175.4C1478.1,766.7,1476.2,705.1,1477,644.3z M1372,425c8,3.5,16.6,6.3,22.7,16.3
			c-9.1-5.4-16.5-9.7-23.9-14.1C1371.2,426.4,1371.6,425.7,1372,425z M1382.3,473.2c0.5-0.3,1-0.6,1.5-0.9c0.1,0,0.3,0.3,0.5,0.4
			C1383.6,472.9,1382.9,473.1,1382.3,473.2z M1340,448.1c2-2,3.6-1.3,5,0.6c4,5.2,13.4,4.6,14.2,13.1c3.6-2.1,5.1,1.1,7.1,3
			c3.5,3.3,6.9,6.9,12.2,7.3c1.7-0.9,2.2,0.5,3,1.4l0,0c0.1,1.7,1.3,2.8,2.6,3.7l0,0c0,1.4-0.6,3.4,0,4.1
			c6.7,6.9,13.5,13.6,22.1,22.1c-3.5-7.3-7.9-10.5-11.6-14.3c-3.1-3.2-7.6-5.5-7.7-10.8c7.5,4.5,14.4,9.6,19.5,16.9
			c1,1.4,1.7,3.3,3.9,2.7c2.5-0.7,0.2-2.2,0.4-3.1c4.5-20.1,2.7-24.3-11.6-41.9c-1.3-1.6-2.6-3.1-4.4-5c14.2,9,18,16.1,20.3,31.9
			c2.9,19.6,10,38.1,16.7,56.7c6.9,19.1,13.8,38.4,23.5,56.2c13,23.5,16.2,48.8,17.4,74.8c0.5,11.6,0.1,23.2-0.8,35.2
			c-1.7-4.4-3.4-8.8-5-13.2c-9.9-26.5-22.1-51.9-37-75.9c-24.2-39.2-38.9-83.1-62.7-122.5c-8-13.2-16.7-25.8-26-38
			C1340.1,451.5,1337.7,450.5,1340,448.1z M1320.9,402.4c0.7,0.2,1.7,1.2,1.7,1.7c-0.9,9.2,7.7,10.2,13.2,14.6
			c-8.5,2.6-15.2,0.5-21.6-4c-1.5,1.9,1,2.5,0.8,3.7c-0.2,1.3-1.3,0.9-1.9,0.5c-7.1-6.2-16.3-9.7-22-18.3
			C1301.7,396.3,1311.3,400.1,1320.9,402.4z M713.4,395.8c-5.2,7.5-12.1,11.1-18.6,15c-9.9,1.5-19.4,4.1-27.7,10.2
			c-1,0.7-2.3,2.4-3.6,0.8s0-2.9,1-4.4c2.1-3.1,8.8-1.7,7.7-7.9l0,0c5-5.1,12.6-4.8,20.4-8.9c-10.5-0.1-17.3,5.1-25.1,6.4
			C681.2,398.1,696,393.9,713.4,395.8z M596.4,449.1c9-10.7,19.5-19.5,30.7-27.6c2-1.4,3.8-2.8,6-0.6c7.8-3.5,15.8-6.7,23.4-10.7
			c3.4-1.8,6.7-2.3,10.2-2.7c-0.4,1.9-0.5,3.7,1,5.2c-10.6,2.9-21.4,5-31.3,10c-1.4,0.7-2.7,2.5-4.6,0.9
			c-18.1,9.7-33.2,22.5-42.1,41.5l0,0l0,0C589.4,458.7,592.5,453.8,596.4,449.1z M590.1,464.8l-0.2,0.2
			C590,465,590.1,464.8,590.1,464.8L590.1,464.8z M532.8,632.9c1.1-13.3,5.3-25.4,11.1-37.3c16.9-34.8,31.1-70.6,41.2-108
			c2-7.5,3.3-15.2,5-22.8c4.2,8.9,3.1,18.1,1,27.9c12.3-8.6,21.9-19,34.1-27c11.9-7.9,25.2-15,35-26.1c2.6,1.3,5.4,0.1,9.3-0.3
			c-26.7,31.4-46.1,65.6-62.1,101.7c-9.9,22.3-20.5,44.3-32.9,65.3c-16.9,28.6-31.5,58.2-42.3,89.6c-0.5,1.5-1.3,3-2.6,4.4
			C528.5,677.7,531,655.3,532.8,632.9z M495.9,713.1c1.9-16.6,9.1-31.8,15.6-47c4.2-9.7,9.1-19.1,13.7-28.7c0.7,0.2,1.4,0.3,2.1,0.5
			c-2.3,20.1-2.9,40.3-2.9,60.4c0,33.6-9,64.8-22.9,94.9c-1.1,2.4-1.3,6.7-5,6.1c-4.7-0.7-2.6-5.1-2.8-7.9
			C491.9,765.3,492.9,739.1,495.9,713.1z M506.4,791.8C519,766,527.7,738.5,533,710c4-21.6,12.8-41.8,23.2-60.9
			c24.8-45.8,46.5-93.2,71.7-138.7C689.6,398.7,784.2,330.5,910,307.7c84.3-15.3,167.7-10.6,248.8,18.6
			c93.3,33.6,164.3,94.7,211.5,181c29.3,53.5,57.5,107.7,84.2,162.7c8.5,17.6,14,36.1,17.7,55.5c4.2,21.7,11,42.9,20.7,62.8
			c14.5,29.6,22.7,60.3,20.2,93.5c-0.3,3.5,0.3,7,0.5,10.5c0,0.5,0.7,0.9,2.2,2.7c2.2-14.4-0.1-27.8,1.3-41c2.1,0.4,1.4,2.1,1.4,3.1
			c0.8,40.1,2.8,80.2,0.1,120.4c-4.5,67.9-22,131.2-63.7,186.2c-0.5,0.7-1,1.4-1.6,2.1c-8.2,10.7-8.2,10.7-17.2,1.3
			c-3.9-4-7.7-8-14.3-8.1c9.6-19,19.9-37.2,27.5-56.9c13.5-34.9,19.4-71.1,23.5-107.9c2.6-23.2,3.6-46.4,4.2-69.8
			c0.8-31.9-1.2-63.7-2.8-95.4c-0.9-17.8,0.6-35.5,0.4-53.3c-0.2-20.1-4.3-38.9-12.2-57.6c-39.5-93.5-103.4-166.5-186.1-223.9
			c-44.6-31-94.8-48.5-147.6-58.2c-102.5-18.8-204.5-16.8-305.4,11.6c-64.4,18.1-117.8,54.7-166,99.8
			C605.2,596.1,566,653.5,538.2,719c-7.1,16.8-9.2,34.1-8.3,52.1c2,42.6-3.3,85-3.7,127.5c-0.3,26.3,0.6,52.9,4.2,79.3
			c4.7,34.9,9.1,69.9,19.8,103.5c13.7,43.1,35.1,82.1,65.1,116.2c1.4,1.6,3.1,3.3,2.5,5.3c-2.3,7.5,0.7,14.7,1.2,23.3
			c-4.8-8.7-5.7-17.2-7.8-25.3c-0.7-2.9-0.3-6.3-4.7-5.1c-4.4,1.2-1.3,4.3-1.1,6.4c1.2,11.8,2.8,23.5,7.3,36.1
			c-24.4-11.2-49-20.3-64.7-43c-7-10-7.2-21.9-7.2-33.6c0-3.2,2.9-4.1,4.5-6c1.9-2.2,5.7-3.6,3.1-7.8c-2.6-4.2-5.5-10.6-10.3-9.1
			c-7.2,2.2-7.7-2.4-9.7-6.2c-15.6-30-25-62-28.5-95.5c-0.8-7.9-4.5-7.9-10-7.2c-8,1-16.1,2-25.2,3.2c5.5-8.2,13.2-7.3,20.1-7.6
			c12.2-0.6,17.5-5.6,16.4-17.5c-3.1-35.4-6.3-70.8-9.6-106.2C487.7,863.9,489.2,827.3,506.4,791.8z M1279.5,1381.9
			c-3,1.6-5.1,3-7.4,4c-3.2,1.4-6.4,2.5-10.1,3.9c-2.3-5.9,0.9-11,1.5-16.2c1.6-14.1,4-28.2,6-42.2c0.4-2.9,1.2-6.2-3.5-6.1
			c-3.7,0.1-8.3-2-9.2,4.5c-1.9,13.8-4.3,27.6-6,41.4c-0.8,6.5-5.8,13.3,1.7,19.6c-9.6,0.8-25.9-18.7-25.5-29.2
			c3.1,0,6.5-0.7,9.3,0.3c9.5,3.2,11.7-2.6,12.9-9.8c1.3-8.3,2.8-16.6,3.5-25c0.4-5,2-6.3,7-5.7c7.2,0.9,14.6,0.9,21.6-1.6
			c3.1-1.1,6.8-1.7,8.2-7.3c-9.2,7.3-18.8,6.7-28.6,6c-3.6-0.3-6.8-1.6-9.5-3.8c-5.7-4.6-5.3-8.6,1.3-11.7c7.1-3.3,14.3-6.5,22-8.2
			c8.2-1.8,15.6,2.8,17.9,11.1c2.4,8.5-1.3,16.5-9.4,18.7c-4.4,1.2-6.4,3.4-6.5,7.7c-0.4,13.5-4.9,26.2-7.4,39.3
			C1267,1382,1267.6,1382.7,1279.5,1381.9z M542.3,880.1c-0.5,6.2,2.4,13.7-7.3,16.3c-3.6,0.9-2.4,5.2-4.2,7.7
			c1.7-14,0.9-27.9,2.3-41.7c0.6-6.2,3.3-12.2,1.8-18.8l0,0c2.2-3.4,4.5-6.8,7.6-11.7c1.2,21.4-2.5,40.8-6.9,61.3
			C541.2,889.4,540,884,542.3,880.1z M534.8,843.6c-1-21.7,2.1-42.8,8.9-63.3C538.8,801.1,539,822.7,534.8,843.6z M534.7,766.9
			c-1.9-14.4,0.1-28.3,5.6-41.6c46.5-113,123.6-198.3,232.3-254.1c42.6-21.9,89.3-31.4,136.6-37.4c58.3-7.3,116.7-7.2,175.2-1
			c106.9,11.3,196.9,55.4,271.6,132.9c46.3,48.1,81.9,102.6,107.2,164.2c5.6,13.6,7.3,27.8,6.1,42.5c-12.3-36-28.4-70-51-100.5
			c-46-62.2-105.5-108.1-175.6-140.1c-88.6-40.4-182-55.8-279-49.8c-78.1,4.8-153.1,22.3-223.1,57.7
			c-81.4,41.1-146.4,99.7-188.1,182C545.1,736.3,539.4,751.4,534.7,766.9z M1472.5,907.9c0.3,1.9-0.8,3.7-2.3,4.3
			c-2.5,1-3.4-1.3-4.3-3.1l0,0c4.4-4.4,2.1-9.5,1.2-14.4c-3.4-17.3-6.4-34.6-3.7-52.5c1.1,3.8,2.3,7.6,3.4,11.4
			c-2.6-21.4-0.2-43.2-6.9-64.2c5,10.3,6.9,21.4,7.5,32.5c1.4,25.5,5.2,50.9,3.8,76.6C1470.9,901.5,1472,904.7,1472.5,907.9z
			 M1465.7,908.8c-7.2-9.8-5.6-21.4-6.2-32.6C1462.9,886.8,1465.1,897.6,1465.7,908.8z M549.5,817.7c0.8-4.3,1.7-8.6,2.7-12.8
			c14.9-60,45.9-110.9,87.2-156.2c16.3-17.9,32.9-35.3,50.3-52.1c9.5-9.2,21.7-14.2,32.7-21c8.5-5.4,15.4-12.7,23.4-18.7
			c4.2-3.1,9-4.6,13.7-6.5c30.9-12.5,61.7-25.2,94-33.7c5.6-1.5,11.2-3.3,16.8-4.5c5.1-1.1,10.1-1.5,12.5-7.3c0.8-1.9,5-4.9,6.1-1.9
			c3.9,10.6,10.9,3.7,14.3,1.6c5.5-3.3,8.3-5.8,15.8-2.6c6.5,2.8,15.8-0.9,23.8-1.7c7.2-0.7,14.3-1.5,21.5-2.2
			c17.1-1.6,34.1-2.7,51.4-1.7c19.3,1.1,38.6,2.7,57.8,4.6c4.5,0.5,8.9,2.1,13.6-1.4c3-2.3,7.9-0.5,10.7,2.6
			c4.9,5.3,9.3,9.6,15.7,1.7c1.6-1.9,5.8-1.2,5.9,0.9c0.4,6.7,5.9,5.9,9.5,6.7c41.3,9.2,80,25.6,118.3,43c3,1.4,6.5,1.5,9.5,2.9
			c8.8,4.1,13.4,13,20.3,19.2c25.6,12.4,46.6,30.6,65.6,51.4c21.2,23.2,41.5,47.3,59.3,73.1c14.2,20.5,24.4,43.4,33.6,66.7
			c1.5,3.9,0.9,9.3,6.9,10.6c0.9,0.2,1.7,3,1.9,4.6c2.5,24,10.4,46.9,14,70.6c0.2,1.4,0,2.8-0.9,4.3c-4.6-18.2-8.9-36.5-13.9-54.6
			c-16.6-60.1-48.5-111.5-89.7-157.8c-22.4-25.2-47.6-46.9-75.2-65.9c-0.9-0.6-1.4-1.7-2.1-2.6c-17.9-10.1-35.1-21.3-53.8-29.9
			c-42.5-19.7-87.3-31.3-133.4-38.6c-43.9-7-88.1-8.9-132.4-5.1c-71.2,6.1-140.3,20.9-203.6,55.8c-41.9,23.1-77.5,53.8-109.7,89.3
			c-45.8,50.6-77.7,107.8-92.6,174.4c-0.4,1.7-0.9,3.4-1.4,5c-0.2,0.8-0.5,1.6-1,3C546.7,826,548.8,821.8,549.5,817.7z
			 M1349.4,904.8c1.5,4.2-4,10.8-6.1,16.4c-0.6,1.6-3.7,4.5-1.2,5c11.5,2.3-2.3,9.3,2.5,12.8c0.3,0.2-4.4,1-5,3.8
			c2.4,1.7,4.7-0.5,7.2,0.3c-9.1,5.5-19.8,3.1-29.5,5.6v-0.1l-0.1,0.1l0,0h0.1l0,0l0,0l0,0l0,0h-30.8c5.1,5.2,9.7,4.9,13.8,7.1
			c-3.1,3.5-7.9,0.3-11.6,3.8c8.3-0.5,3,7.2,6.8,9.8c0.2,0.2-3,2.5,0,2.6c8.6,0.3,17.1,5.1,25.7,0.6c4-2.1,11.1-0.8,10.6-9.2
			c-0.1-1.2,5.6-3.3,9.3-3c1.2,3.5-2.3,3.5-3.3,5.2c-0.8,1.3-7.6,2.9,0,5.1c3.3,1-0.2,2.8-1.2,3.9c-1.7,1.8-6.8,2.7-1.2,5.9
			c-1.5,1.9,0.9,5.8-3.4,6.2c-2.6,0.2-5.1,0.8-9.2,1.5c4.8,2,10.1,0.5,10.9,5.9c-3.7,1.4-7.9,3-12.8,4.9c6.9,2.7,6.6,12.1,15.8,11.7
			c-3.6,2.1-7,0.6-9,3.7c4.6,3.7,10.2,3,15.8,3.6c-1.9,2.1-4,0.9-5.7,1.6c-2.8,1.1-7.6-1.7-8.2,2.3c-0.5,3.5,2,7.2,6.8,7.7
			c0.8,0.1,1.5,0.6,3.8,1.4c-6.4,0.8-11.8-3.3-16.8,1.3c1.9,1.3,3.8,2.5,5.5,3.6c0.1,1.4-0.8,1.4-1.6,1.7c-2.2,0.7-6.8-1.6-3.7,4.8
			c2.4,4.8-4,7-8.2,9.5c3.1,2.6,5.7,4.8,8.9,7.4c-3.2,0.3-5.9,0.5-8.7,0.7c1.1,3.9,4.8,4.2,8.4,7.5c-6.1-1.2-10.8-3.2-15.1-0.1
			c0.2,1.6,3.1,1.8,2.5,4c-2.4,1.6-5.7-1.5-7.7,1.6c5.6,3.2-8.7,7.2,1.4,10.3c-3.2,1.4-5.7,2.5-9.1,4c2.7,1.8,4.7,3.2,6.8,4.6
			c-0.6,0.3-1,0.6-1.5,0.8c-2,0.8-5-2.2-6,1.1c-0.9,2.8,2.3,3.6,4.2,4.8c2.2,1.4,4.4,2.5,6.5,4.2c-5.6-0.7-10.5-4.3-16.9-4
			c1.9,6.5,9.6,6,12.6,11.1c-5.6,0.1-9.6-3.9-14.5-5.3c-4.2-1.2-8.3-1.7-9.9,2c-1.7,4,3.4,5.5,6,6.6c5.6,2.4,11.5,3.9,17.3,5.5
			c16.4,4.5,32.7,9,47.8,17.1c-26.5-7.9-52.2-19.6-80.4-18.2c-2.8,1.6,9.4,5.1-1.4,5.1c1.7,2.9,4.6,3.2,8.9,4.5
			c-6.8,0.3-11.6,0.6-16.3,0.8c-0.3,0.5-0.5,1-0.8,1.5c1.4,0.8,2.9,1.6,5.1,2.8c-6,1.7-12.3-4.3-16.3,3.4c5.8,2.4,10.7,6.1,15.9,11
			c-9.4-1-17.8-4.6-29.3-4.1c13.9,9.4,28.6,11.6,40.6,19.4c-14.9-4-28.7-12.1-44.8-14.1c2.2,5,8.5,3.8,9.9,8.4
			c-6.1-0.2-10.6-5.4-18.1-5.8c3.7,3.1,6.2,5.3,8.8,7.5c3.9,2.1,7.7,4.2,11.6,6.3c7.5,0.6,13.5,4.9,19.9,8.1
			c12.4,6.1,24.5,13.2,38.8,16.5c-2.3-5.2-8.7-4.3-10.7-8.7c-8.8-2.8-16.8-7.3-24.5-12.3c-0.7-0.5-1.4-0.9-2.1-1.3
			c0.7,0.4,1.4,0.9,2.1,1.3c9.1,2.1,17.3,6.1,24.5,12.2c9.6,1.9,16.2,9,25.9,13.6c-15.5,1.9-48.3-15.9-73.8-29.3
			c-3.9-2.1-7.7-4.2-11.6-6.3c-6.3-1.8-12.7-1.9-19.8-2c1.9,5.8,8.5,6.6,11.9,13c-5.3-2.9-9-4.9-12.8-6.9c-4.5-2.4-5-2.5-5.7-0.5
			c-0.8,2.4-4.3,5,0.5,7.8c3.6,2.1,6.5,5.5,8.2,9.9c-5.5-4.2-9.9-9.8-16.5-12.6c-2.3-1-4-2.1-5,1.1c-2.2,7.5-6.9,5.5-11.9,3.5
			c-2.2-0.9-5.3-3-7.1-0.5c-2.1,2.9,1.5,4.4,3,6.3c2,2.4,4.3,4.7,6.3,7.1c4.6,5.6-0.7,3.7-3.1,4l0,0c-3-10.3-13.3-12.1-20.5-17.7
			c4.8,9.2,10,17.9,20.1,22.2l0,0c1.4,1,2.8,1.9,4.2,2.9c-10.7-2.4-18.6-9.5-27.6-14.4c-1.8,3,1.4,4.8,0.1,7.7
			c-5.4-4.4-9.3-10.2-15.5-13.1c-1.7,5.9-1.7,5.9-11.5,2.2c2.4,4.8,6,8.6,7.5,15.4c-5.9-5.2-7.9-11.6-14-14.2
			c10.2,13.2,15.7,28.4,20.1,44.1c-7.3-15.9-12.3-33-26.9-44.8c-0.8,4.3,4.9,5.4,4.5,10.1c-5.6-3.7-9.6-1.9-12,3.6
			c-1.1,2.5-2.9,4-5.2,5.2c6.4,10.1,12.9,20.2,20.3,31.9c-4.6-1.9-6.3-4.5-7.6-7.1c-5.2-10.3-12.4-18.9-20.8-26.6
			c-2.4-2.2-2.2-2.3-6.2-0.4c-0.4,0.2-1.1,0.2-1.6,0c-1.9-0.7-3.5-4-5.6-0.5s2.7,4.4,2.9,7.1c-3.7,1.6-4.3-5.7-9.1-2.4
			c-5.9,4,1.7,6.2,0.2,10.2c-5.7-6.4-12.1-3.5-18.5-1.8c-0.5,3.8,3.7,5.8,3.7,10.4c-5.1-3.4-10.1-6.3-16.1-3.4
			c-0.8,2.7,4.5,5.1,1.3,7.6c-4.1,3.2-5.7-4-10.2-2.7c1.6,3.4,2.6,7.5-5.2,4c4.2,9,7.9,16.7,11.5,24.3c-8.1-8.1-9.2-22.7-24.6-22.9
			c-2.1,4.4,4.2,5.4,4.6,9.8c-5.6-1-6.4-12.3-11.3-8c-3.8,3.4-15.3-1-11.7,10.2c-2.7,0-2.6-2.4-4-4.9c-0.4,3.3-0.6,5.7-0.9,8.1
			c-6.4-1.8-5.1-13.7-13.4-11c-5.6,1.8-8.8,7.6-8.4,16.1c-2.9-6.1-1.7-10.9-2.2-15.9c-3,1-6.3,1.3-6.3,5.6c0,1.3-0.2,3-1.4,2.4
			c-7.7-3.8-13.2,8.1-21.3,3c-0.6-0.4-4.2,3.4-6,5.7c-2.3,2.9-3.1,5.9-7.1,0.8c-1.3-1.7-7.7,3.3-10.1,6.8c-2.3,3.4-3.2,7.7-5.2,13
			c-2.9-8.5,2.4-14.1,2.9-20.3c-2.5-2.7-8.1,12.4-7.5-2.3c-5.2,3.9-8.2,8.6-10.9,13.3c-1.8,3.1-1.9,5.6-7.1,2.9
			c-7.6-4-8.1-3-3.1-11.2c0.8-1.3,2.9-2.2,1.8-4.6c-6.3,2.5-6.8,10.3-12,13.9c-2.4-4.4,4.1-5.7,2.6-9.7c-4.3,1.3-5.8,5.4-8.8,7.7
			c-3.3,2.6-0.3-9.4-6.5-2c0.5-5.2,5.4-6.6,5.5-11c-6.5-1.1-9.1,6.4-15.2,7.4c-0.5-4.5,4.4-5.5,5-9.3c-4.5-0.5-5.7,5.7-10.4,4.8
			c2-4.2,7.8-5.5,8.6-11.4c-6.9,2-10.5,7.8-16.5,11c-0.4-3.9,3.1-4.9,4.9-7.9c-5.5,0.8-9.3,5.1-14.5,4.4c0.7-3.6,4.7-4.3,6.4-8.4
			c-4.5,2.5-7.8,4.4-11.5,6.4c-0.3-4.5,5.3-3.8,5.2-7.6c-3.2-0.5-5.3,1.8-7.9,2.8c-1.1,0.4-2.1,1-3.1,1.5c-0.9-5.3-7.5-2.8-7.9-4
			c-1.9-5.9-8.7-3.8-11-7.6c-2.9-4.8,3.5-3.6,4.5-6.2c-2.3-1.9-4.3-0.4-6.2,0.9c2-3.1,4-6.2,6-9.2c-0.5-0.5-0.9-1-1.4-1.5
			c-3.5,1.8-6.9,3.6-10.4,5.5c3.4-5,4.5-12.4,12.5-12.4c-1.9-0.5-2.3-3.4-4.4-3.5c-6.8-0.4-2.4-4.1-1.1-5.2
			c4.4-3.6,9.3-6.6,14.6-9.8c-4.1,4.7,1.4,9.2-0.3,13.7c4.5-4.5,12.3-4,15.7-10.3c0.3-0.6,2.8-0.1,4.9,1.4c5.9,4.1,1.6,6.3,0.2,9.7
			c16.9-9.3,30.4-21.1,33.3-42.1c-1.1-0.8-1.9,2.8-4,2.3c-1.9-2.6,1.9-4,2-6.3c-7,0.9-9.8,8.9-17,8.4c-1.5-0.1-3.1,2.6-4.5,0.2
			c-1.3-2.3,0.6-3.6,2.1-5c2.5-2.4,5.9-3.8,7.5-7.4c-5.1-1.3-8.7,1.2-12.1,4.1c-23,19.4-49.3,35-68.8,58.4c-4.3,5.2-6.7,1.7-9.7-0.8
			c25.5-24.3,54.9-43.7,84.1-65.8c-7.8-1.6-8.9,5.7-13.8,5.7c-23.1,12.6-39.6,34.3-63,46.3c-3.2,1.7-5.1,6.4-12.3,4.7
			c26.9-17.1,48-38.8,73.5-54.8c-1.2-4.4,4.3-5.9,4.2-9.8c-6.4,0.4-13-4.4-19.2-0.6c12.9-9.9,28.8-13.4,42.3-21.6
			c-15.3,1.4-28.1,9.8-42.2,14.5c-14.8,5-28.7,12.4-42.6,19.6c-13.7,7-27.3,14.2-40.9,21.3c-13.6,7.1-27.2,14.2-41.3,20.4
			c42.1-25.1,85.5-47.8,131.4-68.5c-7.9-2.5-12.3,2.9-17.9,4.2c-5.6,1.2-10.9,4-16.1,6.3c-10.6,4.7-21.1,9.5-31.6,14.5
			c-3.1,1.5-4.2,1.5-2.8-2c12.6-5.8,25.3-11.6,37.9-17.3c1.9-0.8,3-1.6,1.9-3.7c3.9-9.2,14.3-10.2,21.2-16.1
			c9.3-7.9,23-10.1,35.7-11.7c6.2-0.8,6.4,2.1,2.4,7.4c15.1-9.8,31.2,0.7,45.9-5.2c2-0.8,5.9-2.1,7.2-1.3c5.1,3.2,6.7,0.1,8.5-3.5
			c-4-0.4-3.1-7.9-9.5-5.7c-5,1.8-12.1,3.5-16.1-0.1c-6.2-5.7-10.5-3.4-15.7,0.3c-1.6,1.1-11,0.6-11.5-0.3c-3.5-6.1-3.5-6-9.1-4.3
			c-7,2.1-14,4-21.6,2.8c-2.7-0.4-6.2,1.5-8.2,4.2c-0.3,0.4,0,1.9,0.5,2.2c2.5,1.7,5.4,2.1,8.3,1.3c4.6-1.2,9.2-2.5,13.7-3.7
			c-17.9,9.7-36.7,16.3-55.5,22.7c-1.4,0.3-2.7,0.7-4,1.1c1.3-0.5,2.7-0.8,4-1.1c0.8-1.3,1.7-2.7,3.2-5
			c-18.8,4.3-36.8,8.4-54.8,12.5c16.7-8.6,36.7-7.6,55.1-18.9c-42.9,3.8-82.5,11.2-120.6,25.6c35-17,73.5-21.4,111.1-31.4
			c-4.9-1.3-8.8-2.4-3.7-8.2c-6.3,1.3-12,0.5-17.5,2.5c-1.5,0.5-3.7,2.2-4.4-2.8c-0.7-5.2-6,0.9-9.3-0.1c0-3.8,3.9-10.1-5.5-7.6
			c-3,0.8-6.7-0.8-10.2-1.3c1.4-3.3,5-1.9,6.8-4.4c-0.8-0.3-1.5-0.8-2.2-0.7c-2.6,0.4-5.2,0.7-7.7,1.4c-5.6,1.6-6.5-1-5.4-5.5
			c-2.8,1-5.6,2.5-8.9,1.7c1.3-2.6,4.6-2.2,6.4-3.9c-35.8-5.9-71.7-5.6-107.2-10.4c31.4,1.6,62.8,3.8,94.4,1.5
			c-8.4-0.1-15.9-5.5-24.5-4.1c-2.1,0.3-3.7-0.7-4.1-2.4c-0.7-2.5,1.6-2.9,3.3-2.8c5.4,0.3,10-1.4,14.6-4.3c3.3-2.1,8.5-0.2,9.7,2.5
			c1.2,2.9,3.6,2.4,5.1,3.7c3.6,3,20.7,7.1,23.3,6.9c5.4-0.5,6.7-2.1,5.3-4.3c1.4,0.1,3.1-0.5,4.3-0.8c8.4-2.2,17-3.1,25.5-4.1
			c-9.4-0.8-18.8-2.4-27.8,2c-1.8-0.1-3.5-0.3-5.3-0.4l0,0c1.8,0.1,3.5,0.3,5.3,0.4c-0.9-4.6,4.7-4.4,6-7.7
			c-4.1-3.9-10.6-0.8-15-6.1c14.6-3,28.6-6,43.5-9.1c-11.7-4.1-23.7-1.7-36.4-6.2c17,1.4,33.5-0.9,46.7,7.3
			c5.3,3.3,13.9,3.3,17.1,11.5c1.2,3,8.2,4.2,12.5,3.1c3.1-0.8,4.1,0.3,5.7,2c3.2,3.2-0.8,2.9-1.8,4.4c-5.4,7.4-2.4,11.5,8.9,12.8
			c-9.9,2.9-20.4,3.1-30.9,5.3c1.7,0.5,3.4,0.9,5.9,1.6c-3.9,1.3-7,2.3-10.1,3.3c0.1,0.4,0.1,0.8,0.2,1.2c7.5-1.5,15.1-2.9,22.6-4.4
			c4.3-0.9,8.5-1.6,11.8,2.4c2.7,3.2,4.4-0.4,6.4-1.1c5-1.8,10.1-5.4,14.6,0.9c0.3,0.4,1.1,1,1.4,0.8c10.2-5.2,20.3,3.4,30.6,0.2
			c4.5-1.4,9.2-2.6,13.4,1.8c1.3,1.3,4.3,1,6.6,1.3c4.4,0.6,4.9-4.3,7.8-5.8c-1.6-2-2-5.1-5.5-5.6c-1.3-0.2-4.6-0.7-2.4-3.9
			c0.8-1.2,3.9-1.6,1.9-3.6c-1.5-1.6-3.7-1.9-6.3-1.1c-3.3,0.9-5.1,3.8-8.1,4.8c-1.7,0.5-3.6,4.2-5.3-0.4c-1-2.8-3.5-5.4,1.6-6.6
			c0.6-0.1,1.1-0.4,1.6-0.7c6.6-3.3,10-7.6,3.6-14c-1.7-1.7-1.8-2.6,0-3.9c-5.2,2.2-11.2,2.4-16.5,5.6c1.8-2,3.5-4.1,5.4-6.2
			c-1.3-2.7-5.2,1-6.3-2.3c1.3-2.6,3.8-2.3,6-2.2c3.3,0.2,5.7,0.2,4.8-4.5c-0.5-2.7,2.3-3.6,4.6-3.8c2.1-0.2,3.8,2.5,3.4,3.2
			c-4.4,6.9,3.1,4.1,4.7,5.9c3.2-0.5,6.4,0.6,9.7-2c3.8-3,7.1-1.8,6.3,4c-0.1,1-1.5,2,0.8,2c0.8,0,2.2-0.1,2.2,0.1
			c4.9,15.3,18.1,22.3,30.6,29.2c8.2,4.5,13.3,10.5,18,18.1c6,9.6,12.4,19.1,20.3,26.9c1.8,1.7,2,3,2.6,4.6c1.2,3.6-6.3,7.4,0.1,11
			c-8.6,2.3,2.5,8.4-2.5,11.5c-2-0.5,0.7-3.4-1.7-3.9c-2.7,3.9-3.2,9.1-6.8,12.6c-3-3,1.2-5.9-0.5-10.1c-3.5,9.4-9.7,13.5-18.3,16
			c-5.3,1.5-9.4,7.3-14,11.1c-1,0.8-3.1,1-2.1,3c0.7,1.4,1.9,2.2,3.5,2.1c2-0.1,4.5,0.3,5.9-0.8c6.6-4.9,13-7,21.4-3.3
			c2.7,1.2,8.6-2,10.9-6.5c2.9,1.6,0.2,3.1,0.5,4.4c5.5-2.9,10.8-0.9,16.1,0.9c0.8,0.3,1.7,1.9,2.7,1c6.4-5.9,14.4-1.8,21.4-3.9
			c1.5-0.4,3.8,1.1,4.4-1.4c0.5-1.9-0.6-4-1.9-4.5c-4.6-1.9-4.5-6.7-7.3-11.3c-0.2,3.1-0.4,4.8-0.6,7.9c-3.8-5.6-6.5-10.5-13.4-11.7
			c-1.8-0.3-2.2-8.2-3.4-12.6s1.4-4.9,0.5-10.1c-2.5-14.3,12.6-19.6,13.9-31.4c0.5-4.3,5.6-10-3-12.1l0,0
			c-0.6-13.5,12.8-12.1,19.2-17.2c-6.5-7.9-12.1-5.2-18.1,0.4s-4.3,10.9-1.1,16.7c4.7,6.3,0.4,11.6-3.6,14.6
			c-3.5,2.6-3.2-5.9-7.5-5.7c2.3-5-4.7-9.1-1.4-14.5c1.7-2.8-2.2-9.4,5.7-8.1c0.8,0.1-4-4.7,1.6-3.7c3.1,0.5,5.3,0,5.7-3.4
			c0.5-4.5,4.5-1,6.7-3c4.1-3.7,9.7-4.1,15.3-3c5,1,6.1-2.2,4-5.5c-2.7-4.1-6.6-6.8-12.3-7.2c-6.9-0.6-13.6-3.5-20.4-3.7
			c-2.6-0.1-6.7,1.3-9.5,3.1c-3,2-4.1,2.7-4.7-1.6c-0.4-2.9-0.4-7.5-4.1-7.8c-3-0.2-0.7,4.7-2.2,5.8c-3.2,2.3-5.3,7.3-11.5,4.2
			c-2.1-1-6.8-0.4-10.2-0.9c-5.9-1-5.1-1-2.4-6.2c2.3-4.3,3.9-13.8,2.6-14.4c-7.5-3.6,0.2-8.1-1.5-11.7c-0.8-1.7-1.4-6,3.9-4.2
			c1.8,0.6,1.2-2.4,0.5-3.2c-3.2-4.1-2.2-9.3-3.5-13.8c-1.8-6.2,5.1-9,9-12.7c2.1,1.7,4.2,3.5,6.2,5.2c-1.5-4.9,2.2-9.8-0.7-14.4
			c-3.9-0.1-6-5.5-11.3-3.5c3.4,1.3,5.8,3.2,6.5,6.4c-4.5-5.6-11.4-4.1-18.1-5.8c3.9-2.2,7.3-4,10.6-5.9l-1-7.7
			c3.4-1.6,5.8-4.4,8.1-7.2L977,932l0,0l0,0c0.1-0.1,0.2-0.2,0.3-0.3l0,0c0.6-0.6,1.2-1.2,1.8-1.8L979,930l0.1-0.1
			c-0.6,0.6-1.2,1.2-1.8,1.8c0.2,1.3-0.2,3,1.7,3.5c1.2-1.2,2.4-2.4,3.5-3.5l-0.1,0.1l-0.1,0.1l0,0l0,0l0,0c0.1-0.1,0.1-0.1,0.2-0.2
			c-0.9,1.6-1.1,3.8-3.7,3.7l0.4-0.2l0,0l0,0c-0.1,0-0.1,0-0.2,0c-0.1,0.1-0.1,0.1-0.2,0.2c-3.2,1.2-6.4,2.3-9.7,3.5
			c0.3,2.6,0.7,5.1,1,7.7c4.4-0.1,8.8-0.4,13.2-0.3c3.7,0,5.3,1.6,2.9,5.2c3.4-1.2,10.9-0.5,8.2-5.6c-4-7.3-0.2-13.8-1.3-20.4
			c-0.1-0.9-1.6-1.5-2.4-2.2c-2.6,1.6-1.5,5.6-4.8,6.5c-0.6,0.2-1.2,0.4-1.9,0.5c0.1-0.1,0.2-0.2,0.3-0.3l0,0l0,0
			c0,0-0.2,0.2-0.3,0.2l0,0c0-1.2,0.7-1.8,1.9-1.9c-0.3-3.6-2.2-1.6-3.7-1.1c-0.1-7.5,3.1-14.4,4.1-21.8c-3.1-0.8-2.4,2-3.3,3
			c-1.2,1.2-0.9,3.7-4.1,2.6c-2.7-1-2.9-2.1-2.4-4.6c0.7-3.3,0.7-6.8,1-10.5c-2.9,0.6-1.8,5.1-4.4,4.3c-2.5-0.8-1.5-3.3-1-5.3
			c0.9-3.8,2.5-7.5,1.6-13c-3.4,6.5-3.9,12.7-8.8,19.2c1.7-8.6,3.1-15.3,4.9-24.4c-5.8,9.3-6.6,4.7-8.3,0c-3-8.4,0.1-16.7-0.1-25
			c0-2.3,0.2-4.6,0.4-8c-3.9,4-0.4,9.5-5,12.1c-1.7-9.3,7.1-16.9,4.5-26.8c-4.7,4.1-3.7,10.3-7.2,14.1c-0.6-1-1.2-2.2-2-3.5
			c-2.6,2.5,0.7,6.9-3.9,8.8c0.9-6.5,2.3-12.5,0.1-18.9c-0.8-2.3,0.4-6.9,5.9-8.9c4.4-1.6,6.3-8.6,6.4-14.4
			c0.3-9.3,0.5-18.5-3.1-27.4c-1.3-3.2-1.8-6.6-0.4-10.1c2.9,1.1-0.3,4.3,4,5.5c-3.3-17.8-0.2-34.9,1.2-52.2l0,0
			c5.4,2,5.7,1.9,7.6-3.2c7.2,19.7,4.2,39.9,8,59.4c2.6,0,1.3-4,4.2-4.5c-1.2,7.7-2.3,15.2-3.5,22.9c3.7-1-0.2-4.9,3.5-5.9
			c1.9,5.3,0.2,10.3-3.4,14.4c-5.6,6.5-5.3,14.5-6,22.1c-0.3,2.9,1.2,5.7,5.6,6.5c0.8-8.6,0-17.8,6-26.1c3.9,7.8-1.1,15,0.7,23.6
			c2.2-6.1,3.1-11,4-16.1c0.7,17.5,1.1,34.9,2.4,52.3c0.3,3.9-5.1,8.1,0.4,11.7l0,0c-9.5,4.3-0.2,8.8-0.8,13.8
			c6.2-5.5,5.8-10.8,1.5-16.3l0,0l0,0c0-5.3,0-10.7,0-16c1.2,6.8,5.1,12.5,6.9,20.4c1.8-8.9-2.6-16-0.4-23.5
			c-0.1,7.3,4.9,12.6,7.7,18.9c-6.7-19.8-3.1-40.6-7-60.7c4.8,15.3,5.1,31.7,13.5,46c1-4.3-0.6-8-2.2-11.8
			c-2.3-5.6-4.4-11.2-1.2-17.5c1.5-2.9-2.7-9.1-4.5-12.8c-2.9-6-4-12.9-4.6-19.8c1.7,3.5,3.5,7,5,10.2c6.3-4.2,1.1-10.3,2.1-15.3
			c2.9-15-5.6-28.7-3.9-42.7c2.1-17.1,0.2-33.2-5.6-50.7c7.3,3.2,2.7,10.1,8.2,12.8c-2.3-7-1.4-14.1-4.3-20.6
			c-2.8-6.3-1.3-15.5,1.8-18.1c5.8-4.9,0.3-10.2,3.3-14.3c4.5,0.1,4.3,5.1,7.5,6.7c0.5-1.6,1-3.1,1.5-4.6
			c-7.7-6.2-8.5-15.8-11.8-24.1c-2.5-6.4-3.8-13.9-13-14.6c-1.8-0.1-3.4-2.6-2.6-4c3.4-6-0.4-15.1,8.8-18.6c0.5,4.3-2.2,8-2.9,12
			c-0.6,3.7,0,7.9,3.1,9.2c2.7,1.1,7.1,4.2,9.9-0.4c1.8-3,2.5-6.6,1.8-10c-1.2-5.6-0.8-10.4,4.3-14.2c6.1-4.5,2-11.4,3.7-17.3
			c2.1-0.3,2.4,4.3,4.1,2.5c5.8-6.2,13-1.2,19.3-2.9c2-0.6,2.7,2.3,1.2,3.7c-4,3.5-1.9,8.2-2.8,12.3c-2.2,1.1-3.7-2.7-3.7-2.1
			c0.3,9.6-10.3,15.4-8.4,25.5c0.4,2.2,2.3,4.2,1.1,6.9c-3.4-3.2-6.8-6.3-10.4-9.7c-0.1,3,0.1,5.6-0.5,8.1c-1.8,8.3,4,13.7,8.4,18.4
			c6.9,7.4,10.3,15.3,10.8,27.3c-3-5-4.7-8.1-6.8-11.6c-2.2,3.5,1,9.2-4.8,10.5c8.2,13.5,10.6,28.7,12.5,43.9
			c0.8,6.2-2.8,11.8-3.9,17.8c-0.5,2.5-5.6,0.6-7.7,5c-5.4,10.9-4.8,22.4-6,33.8c-0.3,2.5,1,5.1-0.6,7.8c-4.2-3.2-5-8.4-8.8-12
			c5.7,17.4,8.1,35.6,11.8,55.3c4.1-6.6,2.2-12.8,5.5-17.6c2.9,0.7,0.5,4.2,2.8,5.2c0.3-2.7-0.1-5.5,0.9-7.9
			c4.5-10.9,1.7-22.1,2.1-33.4c1.1,3.9,2.2,7.8,3.4,11.7c-2.7-14.5,4.8-28.4,1.2-44.2c3.9,4,1.9,8,3.9,11.6c2.4-8.6,4.6-16.8,6.9-25
			c1.6,6.7-0.2,13.3,2.3,22.2c1.2-6.3,3.8-9.8,5.5-13.5c3.1-6.5,5.9-13.4-1.8-19.5c-2.6-2.1-4.4-5.4-6.2-8.4c-2.8-4.6-8.9-9-1-14.7
			c2.1,4.4,6.6,7.7,6.2,13.6c3-6.3-3-12.8,1.4-19.5c1.6,2.4,3,4.5,4.7,7.2c1.2-4.3-3-7.3-0.3-11.3c5.9,5.2,7.4,15.1,16.7,16.7
			c-4.5-10.6-14.8-18.9-12.5-32.4c0.4-2.5-0.4-6.7-3.2-9.2c-1.1-1-3.2-2.6-1.6-4.1c1.2-1.2,3.6-1.9,5.1,0.5c3.5-2,0.4-2.2-0.8-2.6
			c-3.7-1.2-6-3.9-8.2-6.9c-5-3.8-10-7.4-14.9-11.4c-1.2-1-2.6-3.5-2.1-4.3c3.1-5.3,1-12.7,9.4-16.2c7-2.9,12.9-9,20.4-11.8
			c-6.3-4.6-3-11.8-4.9-17.5c2.6,6.4,9.8,10.9,7.7,19c2.9-0.6,5,4.7,8.5,0.9c0.9-1,4.7-1.9,4.1,2.4c-0.1,0.5-0.4,1.9,0.9,1.5
			c0.5-0.2,0.7-1.4,1-2.2c1,3.7,7.6,2.7,6.8,7.9c-0.6,3.6,1.4,7.6-1.7,10.8c-3.2-3.9-9.4,0.8-12.5-5.6c1.5,18.5,6.8,34.9,9.3,52.9
			c2.5-1.8,1.5-8.6,6.7-4.2c1.4,1.2,1-2.7,0.8-2.8c-6.5-3.2-3.8-8.8-3.9-14.6c4.1,5.1,6.3,10.3,7.1,16.1c3.3,0.3,2.1-2.1,2.5-3.5
			c1.9-6.4,5.7-1.9,9-1.9c6.1,0.1,13.1-10.8,10.9-17.1c-0.9-2.6-3.3-4,1.7-3.4c1,0.1,2.9-2.4,2-4c-3.3-6-1-11.5,0.8-17.2
			c-3.4,3-4.9-4.8-8.4-1.4c-2.4-8.2-4.2-1.6-5.1,0.4c-2.6,5.7-4.6,11.7-7,17.9c-2.6-5.1-4.9-10.3-9.9-13.4
			c15.5-10,26.6-24.6,38.7-38c5.9-6.6,12.5-12.6,17.3-20.2c1.3-2,3.3-2.6,5.2-1.1c1.8,1.4,0.7,3.5-0.4,4.6
			c-8.2,8.1-12.8,18.7-20,27.5c-4.1,12.6-0.9,26.3-5.7,38.9c-2,5.4,5.5,6.3,7.1,12.8c2-7.2,3.1-12.7,11.2-11.2
			c-2.2-3.2-3.7-2.8-6.2-2.3c-3.2,0.8-5.4-1.5-2.9-4.5c5.6-7.1,6.1-15.7,7.6-23.9c0.5-2.6-0.1-5.2,3-6.3l-0.2-0.4
			c-0.7-9.7,7.4-14.7,12.3-20.7c5.8-7.2,12.5-15.4,23.7-15.7c1.8,0,2.7-2.4,2-4.1c-0.8-1.9-2.5-1-3.6-0.1c-1.9,1.6-3.9,2.3-6.6,0.8
			c3.2-1.7,5.1-4.8,9.6-5.4c-2.3-0.9-3.5-1.4-5.8-2.2c6.3-1.7,11.2-4.2,17.3-2.5c20.5,5.9,39.1,15.7,57.4,26.3
			c19.9,11.5,37.7,25.9,56.3,39.4c3.7,2.7,6.3,6.8,9.4,10.2c-3.6-1.4-6-0.5-7.3,3.4c-3,8.8-6.5,17.4-10.6,26
			c5.9-3.3,11.9-6.4,16-11.7c3.7-4.8,7.5-10.2,2.8-16.7c8.6,2.3,9.6,5.6,7.3,15.3c-3.2,13.3-4.1,27.4-6.6,41.1
			c-0.7,4-1.1,8.2-2.7,11.8c-3.9,8.9-5.5,18.1-5.8,27.7c-0.1,1.7,0.2,4.1-0.8,5.1c-10.8,11.6-4.8,26.4-7.2,39.6
			c-1.4,7.6,4.9,15.4,10.4,20.9c3.8,3.9,6,9,10.5,12.3c0.8,0.6,2.7,2.7,1.5,4.5c-5,7.7,1.4,8.2,6.2,9.7c-2.5,2.8-9.6-0.9-8.8,5.3
			c1.4,11.2,7.7,16.5,19.7,17.1c-4.6,1.8-8,3.1-12.4,4.9c3,2.9,5.6,5.2,8.2,7.7c-2.4,1.9-6.1,0.7-7.8,4.1c2.7,3,6.5,3.8,10.6,4.3
			c-1.6,3.3-5.7,2.5-8,5.5c1.3,2.1,9.9,2.2,2.4,8c-2.1,1.6,4.9,0.8,5.8,6.2c-0.2,0.5-7.5,3-0.1,6.3c2.2,1-5.2,7.1,3.1,7
			c5-0.1,0.5,2.7,0.2,3.6c-4,9.3-4.1,9.3,5.7,10.5C1353.6,901.6,1347.1,898.3,1349.4,904.8z M1259.4,1164.7c0.5,0.3,1,0.5,1.5,0.8
			C1260.4,1165.2,1259.9,1164.9,1259.4,1164.7z M1232.2,1243.9c-16-12.1-28.7-27.7-44-40.7
			C1207.6,1211.8,1216.5,1231.5,1232.2,1243.9z M797.6,1220.3L797.6,1220.3c-1.6-1.9-7,0.5-6-4.2
			C790.5,1220.8,795.9,1218.5,797.6,1220.3z M733.5,1184.1c0.5,1.5-0.7,2.2-1.6,2.3c-2.6,0.5-5.1,0.2-7.6-2.3
			c23.1-16.9,47.9-30.2,74.3-41.1c0.2,2.9-1.8,2.9-3,3.6c-1.5,0.8-3.1,1.6-4.7,2.3c-20.3,8.8-39.2,20-57.6,32.3
			C732.6,1181.6,732.6,1181.6,733.5,1184.1z M749.4,1143.4c13.5-6.3,25.6-15.6,40.3-19.5c-0.8,2.6-3.3,2.9-5.3,3.9
			c-10.2,5.5-21.3,9.3-30.1,17.1c0-0.1,0-0.1,0.1-0.2c-15.7,7.5-31.3,15-47,22.6c-1.7,0.8-4.2,1.5-3.3,4.1c0.2,0.6,3.1,0.2,5,0.9
			c-12.1,1.3-20.7,10.4-32,13.7c15.8-13.3,33.6-23.5,50.9-34.4c4.2-3.1,8.4-6.1,12.7-9.1c4.2-3,8.5-6,12.8-8.9
			c8.6-5.8,17.4-11.4,26.4-16.6c-9,5.3-17.8,10.9-26.4,16.6c-4.3,2.9-8.6,5.9-12.8,8.9s-8.5,6-12.7,9.1
			C736.3,1151.9,742.5,1146.7,749.4,1143.4z M659.2,639.7c17.4,6.7,31.4,20.9,53.2,16.4c-16.4-9-33.8-12-49.1-20.7
			c4.8-7.3,12.4-11.7,17.2-18.7c2.8-4.1,7.7-4.1,12.3-3.2c-0.6-2.3-3.8-0.8-4.4-2.6c6.2-8.8,13.6-10.4,23.9-6.7
			c9.1,3.3,19.2,2.7,30.7,1.9c-13.6-3.2-25.4-5.9-37.4-8.7c7-8.8,15.2-10.2,25-6.5c4.9,1.8,10.1,2.1,15.5,0.4
			c-8.1-1.5-16.2-3-25.9-4.8c17.1-12.2,33.2-23.1,51-31.5c3.7-1.7,6,0.7,8.8,2.1c2.8,1.3,5.6,2.5,8.8,3.9c0.8-5.5-4.8-6.7-5.6-10.8
			c7.1-4.6,11.6-2.6,16.9,4c16,19.9,33,38.9,54.3,53.5c2.9,2,5.3,4.3,8.9,5.2c6.6,1.6,1.4,6.4,2.4,9.8c-2.7-6.4-11.4,0-13-7.3
			c-3.2,2.4-1.8,5.3-2.5,7.7c-3.7-0.1-4.5-4-8.2-5.8c3,16.1,12.5,28.6,17.4,43.8c2.8-3-0.1-6.1,2.1-8.1c3.6,3.2,6.5,10.1,12.7,2.2
			c2.2-2.8,3.9-0.6,4.5,2.2c0.7,3.6,1.7,7.1,3.3,10.5c0.7-2.7-0.9-5.4,0.5-8.3c2.4,0.4,5.5,2.8,7.5,0.2c1.7-2.2-1-4.1-2.2-6
			c-2.5-4-0.7-7.2,1.7-10.5c4-5.5,9.9-9.4,12.2-16.4c2.1-6.5-0.4-8.8-6.1-7.3c-9.7,2.6-8.9-2.5-7.3-8.8c0.4-1.7,0.6-3.4,0.8-5.2
			c0.9-8.1-3.3-0.4-5-1.8c1.4-3.9,0.8-8-1-12.4c-2.2,2.6-5.3,3-8.2,4.1c-3.3,1.2-5.1,1.9-4.1-2.9c1-4.9-7.7-5.5-3.6-12.2
			c-3.9,2-1.7,7.7-5.4,5.8c-3.4-1.8-7.9-5.7-4.3-10.5c1.3-1.7,4.2-5.6,8.1-2.9c11.8,8,26,8.4,39.2,11.4c5.6,1.3,5.1,2.6,5.1,6
			c0,3.7,0.9,7.4,0.3,11.3c-0.8,5.3,0.1,5.3,5.9,7.7c2.7,1.1,4.4,7.4,7.6,4.4c4.5-4.3,5-10.8,3-17.1c-0.3-0.8-0.5-1.6-0.8-2.5
			c-1-3.6-0.9-7.5,1.7-9.8c2-1.8,4.4,2.2,6.8,2c4.3-0.2,7.5,3.2,12.1,1.9c-1.2,6.7-6.2,11.2-6.8,17.3c4.3,1.2,8.9-2.6,12.5,2.6
			c1.2,1.7,1.4-2.6,3.1-3.4c0.8,5.5-2.6,12.4-0.5,15.7c6,8.9,0.2,16.2-0.6,24.1c-0.6,5.7-6.9,8.7-7.5,14.7c-0.1,1.3-2.1,1.1-2.7,0.1
			c-4-6.9-2.9,2.8-5.1,1.5c-2.5-7-5.2-13.9-6.6-21.4c-1-5.4-3.6-10,0.7-15.4c1.8-2.3,0.8-7.2-2.2-9.4c-3.4-2.5-4.5,2.1-6.8,3.3
			c-6,3.3-7.6,9-9.3,15c-2.5,8.7-2.7,8.6-12.9,15.7c-2,1.4-2.4,4.2-2,6.4c2.4,11.7-4.6,21.7-5.8,32.7c-0.3,2.9-1.2,5.9-0.5,8.6
			c0.8,3.3,2.7,15.2,2.5,21.4c-0.4,10.9,3.5,21.1,5.9,31.5c0.4,1.9,0.7,3.9,0.6,5.9c-3.7-6.6-5.1-13.8-6.7-21
			c-2.4-10.6-3.5-21.5-13.2-29.1c-6.8-5.3-2.9-13.8-6.1-22.1c6.2,3.5,1.9,9.3,6.7,11.6c0.7-9.4-3.1-17.1-7-25.1
			c-6.4,31.3,7.4,59.4,11.4,89.1c-2.4-6.6-4.9-13.2-7.2-19.9c-2.4-6.8-4.6-13.7-6.8-20.6c-2.1-6.6-4.1-13.3-6.5-19.7
			c-0.9-2.3-0.2-7.6-4.4-5.9c-4.5,1.9-0.1,5.5,0.9,7.7c7.7,16.7,13,34,14.1,52.5c-9.1-21.3-14.4-44.1-25.9-66.4
			c-0.9,3.6-1.4,5.6-2.1,8.1c-2.4-4.7-5.1-8.3-5.2-13.4c0-2.6-2.4-5.1-3.6-7.8c-3.2-7.3-12.4-2.5-12.5-2.2c-2.2,9.8-5-0.3-7.8,0.4
			c4.7,6-4.9,6.2-4.8,10.8c-0.1-0.8,0-1.7-0.4-2.4c-1.3-2.4-1-0.3-1.6,0.5c-1.9,2.8-0.7,4.6,1.3,6.7c6.6,6.9,11.9,15.8,19.8,20.4
			c6.5,3.8,6.2,10,10,14.4s3.3,4.8,7.3-0.8c-3.3,7.2,2,12.3,4,18.2c0.8,2.2,0.9,2.2,5.3,2.3c2.2,0,2.1,2.5,2,3
			c-2.7,13.4,7,23,10.4,34.5c0.3,1,0.4,2.1,0.6,3.7c-6.6-4.8-9-12.5-15.4-16.6c-2.4-16.2-9.2-30.8-19.8-42.8c-4.9-5.5-7-13-13.4-17
			c-4.8-5.2-9.1-10.8-15-15c-2,3.3,2.5,5.7-0.2,9.6c-3.6-6.1-1.5-15.9-11-17.1c2.3,6-0.9,9.9-7.8,8.9c0.9,2.5,0.7,5,0.1,7.9
			c-1.9-1.4-3.5-3.1-5.4-3.8c-2.5-0.9-5.3-1.2-4.3,3.2c1.2,5.3,2.3,10.6,3.7,17c-4.2-4.5-4.3-10.7-9.7-13c-1.8,2.4-2.5,5-2.2,7.9
			c-5.8-3.4-6-3.6-9.1,2.6c-1.2,2.3-1.9,1.2-3,0.7c-8.7-3.7,0.4,4-2,3.9c-3.4,1.1-4.9-2.3-7.6-1.8c-1.1,6.5-4.7,13-1.1,20.4
			c-1.4-1.8-2.7-3.8-4.4-5.3c-2.4-2-5-4.8-8.6-2.4c-2.4,1.6-0.2,5.8-0.9,6c-3.9,1.1-0.5,9.3-7.5,7.3c-0.6-0.2-3.6,0-5.3,0.6
			c-4.6,1.6-9.4,3.3-2.1,8.5c-3.3,2.1-5.6-2.7-8.5,0.1c0.6,3.5,3.9,5.7,6.2,9.8c-4.1,0.5-7.8,1-11.5,1.4c-4-9.2-4.8-9.7-18.7-13.1
			c6.1-1.4,12.6,1.2,16.4-5.1c-4.1-2.6-8.1-5.2-13.6-8.7c8.1-1.1,13.2,3.7,20.8,5c-4.4-3.8-8.2-5.8-3.7-11.2
			c2.9-3.4-1.1-7.5-4.8-9.2c-8.6-4-17.3-7.7-27-9.8c1.7,10,3.3,19.4,4.8,28.9c-13.1-18.7-16.2-38.3-6.2-59.2c1.4-3,1.7-6.8,3.8-9.2
			c7.6-8.8,0.9-8.5-5.3-9.5c-4.9-0.8-10-1.4-14.6-0.2c-7.7,2-8.2-1.6-7.2-7c7.5,9,16.6-0.5,26,3
			C674.3,648.7,662.5,649.9,659.2,639.7z M844.1,562.7c6.6,10,9,15.5,7.8,19.2c-1.9-3.4-4.7-5.6-4.5-9.7c-3.9,1.7-4.1,4.8-5.2,7.7
			C841.3,574.2,842.5,568.7,844.1,562.7z M986.5,647.3c10.7,11.3,6.6,24,4.5,36.5C983.4,672.3,993.2,658.8,986.5,647.3z
			 M977.4,625.6c-3.6-7,0.9-15.1-5.3-20.9c-0.4-0.4,4.2-5.3,7-3.5c3.8,2.5,4-1.6,8.9-3.1C978.4,606.4,980.1,616.3,977.4,625.6z
			 M974,741.9c1.2-9.8,2.1-17.1,2.9-24.5C978.9,725,981.1,732.7,974,741.9z M971,689c-4.3,0.4-3.6-2.9-3.7-5.6
			c0-0.9-0.2-1.7-0.2-1.6c-1-4.4-0.2-8.2,3.3-8.3c3.4-0.2,1.4,4.2,2.4,6.3c0.5,0.9,0.7,2.5,0.3,3.3C972.1,685,975.4,688.7,971,689z
			 M969.3,640.3c-2.3,2.4-1.9,6.8-0.4,10c3.6,7.8,3.7,14.7-5.6,20.8c1.3-16.8,2.5-32.4,3.7-47.9
			C971.3,628.9,975.1,634.1,969.3,640.3z M962.8,612.2c-2-2.8-4.1-6-7.4-7.7c0-4-0.2-8.1-0.1-12.1c0.1-4.8,4.6-4.3,7.3-4.8
			c3.4-0.7,2.7,2.7,3.2,4.8C967.4,599.2,968.3,605.9,962.8,612.2z M959.9,721.9c0.1,0.2,0.5,0.4,0.7,0.3c0.2,0,0.4-0.2,0.6-0.3
			c-2.9,3.5-1.5,8.2-3.1,12.7c-3.3-1.9-1.8-6.4-5.2-7.9c-1.6,0.3-1.6,2.3-1.4,3.3c1.1,4.6-3.1,3.1-4.8,4.4c-3.2,2.4-2.8-1.6-4.1-2.5
			c-3.7-2.7-3-7.3-4.4-11c-3.8-10.5-7.2-21.1-10.8-31.8c4.1,0.2,4.6,3.9,6.8,5.5c2.9-2.6-0.2-7.4,4.1-8.6c0.1,0,0.9,2.3,1.5,3.8
			c3.6-6.1-5.2-10.3-1-15.8c0.3,1.1,0.7,2.6,1.3,4.7c1.9-2.6,1.9-5,1.6-7.4c-0.3-1.9-1.8-4.2,1.1-5.1c2.6-0.8,1.5,3.7,4.8,3.3
			c0.3-4.2,0.3-8.8,3.3-12.8c1.9,4.4,0,9,2,13.4c0.3-3.9,0.6-7.7,1-11.6c0.8,14.4,10.8,27.8,7.3,42
			C959.5,707.9,957.7,714.5,959.9,721.9z M939.4,834.4c1.3,1.9-4.6,0.9-7.1,1.9c-4.9,1.9-8-0.6-9.8-5.9c-3.6,12.8-2.8,24.2,5.4,34.2
			c1.1,1.3,0.8,2.5,1.2,3.7c6.4,17.4,7.9,35.8,10.5,54c1.7,12.5,1.6,11.4-10.2,20.8c-5,4-8,5.4-11.5,1.2c-1.9-2.2-0.6-6.9-1.5-10.2
			c-4.1-14.9-1.3-30.4-4.6-45.3c-6.9-31.3-27.9-48.8-57.1-58.6c-25.9-8.7-48.9-3.1-70.8,11.8c-9.2,6.2-19.7,8.7-31.1,7.7
			c10-4.6,20-9.3,30-13.9c-0.2-0.5-0.3-1-0.5-1.5c-13.5,3.3-27,6.6-40.5,9.8l0,0c0.2-3.5,3.3-3.8,5.6-4.2
			c12.7-2.4,23.1-10.2,35.2-14.7c-6.1,0.7-10.6-4.2-17.6-3.7c6.9-3.7,13.9-2.9,19.3-6.7c1.1-0.8,3-1.1,2.7-2.8
			c-0.4-2.3-2.7-2.4-4.2-1.9c-7.8,2.6-15.6-0.4-23.8,0.7c1.1-4.4,5.2-1.8,7.4-4.1c-3.8-1.8-8.8-1.1-12.4-5.7h36.6
			c-10.9-1.2-20.9-4.5-29.9-10.5c-5.1-3.4-8.4-7.9-7.5-14.5c-1.5-0.4-3-0.9-4.4-1.3l0,0c1.1-5.7-6.2-5.7-6.1-10.9
			c-5.8,5.7,0.6,8.5,1.2,12.5c-2.3-1.6-5.2-1.5-6.6,0.5c-1.5,2.1,1.9,3.1,2.8,4.7c2.8,5.2,5.3,10.7,9.6,15.4
			c-4.6-2.4-9.2-4.8-13.8-7.1c-5.3-2.6-10.6-4.6-2.7-11.1c3-2.5-3.4-1.5-3.4-4.8c5.8-1.4,7.1-4.4,2.1-9.2c-0.6-0.6-4.3-3.6-0.7-5.1
			c2.2-0.9,2.5-7.5,7.6-2c3.4,3.6,4.3-2.2,6.1-5.2c1,4.3,0.7,10,7.5,6.8c-5.2,6.1,0.4,10.9,2,16.2c8,8.6,19.1,10.6,29.3,14.8
			c5,2.1,9.2,2.3,13.7-0.1l0,0c10.6,7,23.2,9,34.8,13.6c6,2.4,9.6,1.2,6.9-6.4c-0.2-0.5,2-1.8,3.4-2.9c-2.6-1-5.1-2-8-3.1
			c3.3-1.9,6,1,11.3-0.5c-4.6-3.9-8.3-6.6-11.6-9.8c-2.2-2.2-6.6-3.4-4.2-8.2c2.2-4.5,5.6-3.7,9.5-2.8c-3.9-3.4-7.7-6.9-12.4-10.9
			c3.3,0.8,5.9,1.5,8.5,1.9c1.7,0.3,2.8,3.7,5.1,0.9c2.1-2.5,1.4-4.6-0.2-7.1c-3.1-5-5.9-10.2-8.9-15.5c4.9-1.8,4.7,12.1,11.1,2.4
			c0.7-1.1,2.1,1.1,2.8,2.3c4.5,7.3,9.1,14.6,13.7,21.8l0,0c4.2,6.9,6.1,14.9,11,21.4s4.6,15.3,5.4,22c2,17.6,0.5,18.7,10.4,25.6
			c1.2,0.8,3.6,2.1,3.6,2.1c6.5-10.8,10.7,2,17,1.5c-3.2-6.7-11.3-10.7-10.4-19.3c3.4-0.4,4.4,2.3,6.8,5.8
			c-2.6-11.5-7.1-20.9-6.6-31.7c3.5,3.3,3.1,8.2,6.6,12.6c0.6-12.1-3.1-23.1-1-36.1c1.4,6.9,2.5,11.9,3.5,16.9
			c0-10,3.6-19.4,5.9-28.8c1.1-4.8,1.6-9.7,2.6-14.6c0.9-4.2,4.8,0.8,6.1-1.9c0.9-2,0-4.8,3.1-6.2c-0.9,8.2-2.4,16.1-0.1,25.4
			c1.9-7.1,3.4-13,5.1-19.5c4.3,7.7,1.5,15.3,1.3,22.7c2.4,0.1,1.2-2.8,2.7-2.9c1.9-0.1,1.2,1.5,1.1,2.5c-0.5,3.9,0.1,4.2,3.2,1.6
			c1.5-1.3,1.3,1.1,1.3,1.9c-0.1,7.6,2,14.6,4.4,21.7c1.8,5.1-2.3,10.4-2.8,18.3c4-7.4,5.7-13,6.8-18.8c0.9,10-0.8,19.4-3.9,28.9
			C940.3,822.3,934.3,827.1,939.4,834.4z M927.6,1010.5c-11.9-0.3-13.5-10.3-19.8-14.2c-0.1-0.1-0.2-0.5-0.1-0.7
			c0.1-0.2,0.5-0.3,0.5-0.4C917,996.6,918.5,1006.2,927.6,1010.5z M879.3,977.5c-0.7,3.1-4.6,3.2-5.7,5.9c0.8,2.1,3.2,2.1,6.1,4.1
			c-7.2-0.6-10.5,6.6-16.9,5.4c-0.7-7.7-8.7-0.6-11.2-5.8c12.4,0,1.1-10.8,6.8-14.7c-4.8,1.8-9.7-5.9-11.8-2.5
			c-4.6,7.4-9.6,3.5-13.9,2.7c-2.4,5.2,5.1,7.8,2.7,13c9.1,2.4,17.4,7.8,27.2,7.4c5,3,10.4,0.1,17.5,0.5c-6.7,3.7-11.6,6.3-17.4,6.7
			c-1.1,4.2,3.7,1,3.3,2.8c-0.5,2.5-2.8,3.6-5.3,3.5c-3.5-0.1-8.1-1.6-3.3,4.6c1.4,1.9-2.1,2.4-3.4,2.3c-3.6-0.3-7.2-1.2-10.8-1.8
			c0.3-3.6,3.3-1.3,6-1.7c-7.6-7.1-17.2-12.2-14-24.2c-4.1-1.3-6.6-3.5-8.7-8.1c-3.4-7.5-12.7-6.2-19.2-9.1
			c-2.5-1.1-5.7-0.7-7.4-4.4c5.9-1.7,10.1,4.2,15,3.2c0.4-10.6-10-7.7-15.9-12.8c9.4-3.9,17.3,1.2,25.5,2.6c-3.8-5.8-8.6-8.5-15-8.8
			c-14.9-0.6-25.3-10.4-36.4-18.5c6.1-6.8,9,4.2,15.2,3c-6.8-10.9-18.7-12.4-27.1-19c-5.5,2.8-3,5.8,0.1,8.2c3.1,2.5,6.6,4.4,10,6.5
			c-8.1,1.9-20.7-3.3-22-11c-1.6-9.7-7.8-15.3-13.9-21.5c-0.2-0.2-0.4-0.4-0.6-0.6c0.2,0.2,0.4,0.4,0.6,0.6
			c3.5-0.4,6.9-0.7,10.4-1.1c-4.4-4.9-10.7-6.9-16.1-10.4c-0.4-5.1-7.5-4.2-8.5-10.2c10.6,5.5,20.6,10.7,30.5,15.9
			c-6.5-7.9-17.3-10.5-23.9-19.8c4.2,1.2,7.7,2.2,11.7,3.4c-0.6-3.1-4.8-3.1-4-6.9c8.9,4.1,19.1,0.2,27.6,6.2c1.7-3.8-2-3.7-2.2-5.5
			c2.2-1.4,3.7,0.5,5.4,1.3c2,0.9,4.5,1.6,5.6-0.4c1.4-2.5-2.3-1.3-2.8-2.6c-0.8-2.2,1.2-3.1,2.4-4.1c2.4-2,4.9-4,7.5-6.1
			c3.2,3.3,2.1,7.3,2.4,10.7c1.7,16.6,8.9,29.8,19.4,43c15.1,18.9,34,26.5,56.9,28.3c8.3,0.7,15.9-4.2,24.3-2.3c1.5,0.3,4-2.4,3,1.8
			c-1.7,6.9,2.3,14-0.6,20.7c-2.7,6.4-5.2,13.1-10,18.6C875.8,978.5,877.9,975.8,879.3,977.5z M880.1,1053.3c-2.9,1.8-6,3.3-8.6,5.5
			c-1.3,1.1-0.7,4.2-3.6,4c-0.8,0-1.8-0.4-1-1.4c1.6-2.1-1.8-6.4,3.1-7.5h-14.2c3.8-2.1,5.5-4.2,3.5-8.8c-1-2.3-2.7-6.1,1-8.6
			c4.2-2.7,5,2.7,7.9,3.1h0.4l-0.4,0.2c4.6,1.8,9.2,3.6,7.8,10.2C875.3,1053.3,879.7,1051.1,880.1,1053.3z M874.4,1022.6
			c-6.8,7.3-26.9,7.3-31.8-0.2C853.3,1026.4,863.8,1026.9,874.4,1022.6z M836.1,1013.6c2-2.3,4.7-1,7-1.6c0.6,2.7,3.2,2.6,5.1,3.5
			c0.9,0.4,4.6-0.6,1.8,2.5c-1,1.1-1.4,4.3-3.4,2.5C843.3,1017.7,838.2,1018,836.1,1013.6z M783.8,984.4c-1.7,1.8,2.8,1.5,1.5,2.6
			c-1.6,1.4-4.2,0.9-5.5-0.6c-4.8-5.4-11.7-6.4-17.9-8.3c-6.6-2.1-12.7-6.9-14.8-11.1c-3.6-7.3-10.4-5.1-14-8.4
			c-4-3.7-5.8-1.1-8.6-0.2c1.5,2.8,0.6,6.6,4,8.8c1.9,1.2,4.6,1.2,5.8,3.9c-1.7,1.9-5.5,1.8-5.5,5.8c7.2-0.6,14.2,2.8,18.9,6.7
			c4.3,3.6,8.8,7.1,13.3,10.6c2.7,2.1-2.7,3.9,0,5.9c-2.1,2.1-4,1.2-6.3,0.1c-7.9-3.7-15.9-7-25.1-4c0.1,3.2,4.7,1,4.3,4.2
			c-0.3,3-2.8,2.5-4.6,3c-4.1,1-7.3,2.9-7.4,7.5c-0.1,5.6-5.2,5.5-8.2,6.5c-7.2,2.5-14.9,3.7-22.7,4.4c4.8-2.3,9.7-4.7,14.7-7.1
			c-2.3-2.5-6.3-0.5-8.6-3.4c2.8-1.8,5.5-3.5,8.6-5.5c-5-2.3-9.3,2.1-14.1,0.5c1-4.9,6.3-4.2,9.3-7c-10.2-4.3-1.1-6.2,1.3-8.8
			c-1.9-2.2-5,0.9-6.4-2.1c2.6-3.6,7.5-2.4,11.5-5.9c-6.8,1.8-7-8.8-14.4-5.6c4.9-3.3,12,0,15.7-6.2c-2.9-0.3-5.6-0.5-8.4-0.8
			c0-0.3,0-0.6,0-0.9c3.8-0.6,7.6-1.3,13.5-2.3c-9.9-2.9-18.2-0.7-26.7-2.1c2.7-2.7,6.5-0.1,8.3-3.2c-1.5-3.3-4.7-1.1-7-2.2
			c0.4-0.2,0.7-0.6,1-0.6c2-0.2,4.1,0,6-0.5c2.3-0.7,6,0.5,6.6-2.9c0.6-3.5-3.9-2.7-5.4-5c3.7,0,7-0.9,10.1-3.4
			c-2.1-1.1-4.2-2.2-6.4-3.3c4.9,1,5.7-5,9.6-5.2c-1.9-1.2-3.8-2.4-5.7-3.6c1-1.9,5.7-1.8,4-2.3c-5.5-1.8,0-6.1-3-8.1
			c-1.3-0.9,1-2.1,1.5-1.7c3.4,2.2,5.3-6.7,8.5-1.4c2.2,3.8,6.9,6.9,7.3,10.4c2.3,17.4,18.2,20.9,28.6,30.2c9.7,8.6,22,14,32.6,13.1
			c10-0.8,12.7,6.3,20.2,7.5c-5.5,3.7-10.2,5.5-15.4,1.9C786.8,983,784.9,983.2,783.8,984.4z M786.2,1008.7
			c-11.3,4.3-16.8-2.4-25.3-6.4C770.7,1001.6,777.4,1004.5,786.2,1008.7z M691.8,1041c-2.6,3.1-5.7,4.2-9.3,4.3
			c-2.9,0.1-6.6,0.4-6.4-3.6c0.1-3.7,3.9-3.8,6.6-3.5C685.8,1038.7,688.7,1040,691.8,1041z M708.8,768c-1,0.4,3.5,1.5,2.8,4.1
			c-4.7,3.4-8.4-1-12.7-1.6c0-2.9,4.1-1.2,3.6-4.1c-1.8-2.8-5.8,0.4-8-3.5c4.8,1.8,9.1,1.6,13.4,0.9
			C707.3,765.2,715.6,765.7,708.8,768z M741.8,844.1c-3.9,0.2-8.3-1.9-10.3,4.5c-1.4,4.6-7.7,3.1-9.8,2.1
			c-5.9-2.6-12.5-3.3-18.2-6.2c0.8-3.3,3.9-0.8,5.1-3c-0.8-0.2-1.5-0.5-2.2-0.4c-1.9,0.1-4.5,1.1-5.1-1.5c-0.5-2.3,0.9-4.6,3.5-5.2
			c2.2-0.5,5.3-1.7,6.7-0.7C720.5,840.1,731.9,840,741.8,844.1z M728.4,795c6.1,0.9,10.4,4.5,13.5,9.7
			C737,802.1,728.5,804.4,728.4,795z M708.9,822.1c7-1.1,11.5,2.5,16.1,5.7C719.1,828.1,713.5,827.6,708.9,822.1z M729.4,890.3
			c0.2,0.4,0.4,0.7,0.7,1c0.2,0.2,0.4,0.4,0.6,0.6c-0.2-0.2-0.4-0.4-0.6-0.6C729.8,890.9,729.6,890.6,729.4,890.3z M766.2,947.7
			c12.4,0.4,16.5,15.3,28.1,11.9C787.7,963,780.4,959.9,766.2,947.7z M730.6,891.9c0.3,0.3,0.6,0.6,0.9,0.8
			C731.2,892.5,730.9,892.2,730.6,891.9z M731.6,892.8c0.2,0.2,0.4,0.3,0.6,0.5C732,893.1,731.8,893,731.6,892.8z M733.7,894.5
			c0.1,0.1,0.3,0.2,0.4,0.3C734,894.8,733.9,894.7,733.7,894.5z M857.6,881c0.6-9.7-2.4-19.1-3.2-29.1c6.4,0.6,11.8,2.9,16.9,5.8
			c11.7,2,12.9,21.3,12.4,31.2c-0.3,6.9-1.7,14.1-4.3,20.6c-2.1,5.3-5.2,10-10.4,12.6c-3.8,1.9-8,2.2-12.2,2.1
			c-0.3,0.2-0.7,0.3-1,0.5c-7.1,3.2-13.8,1.2-20.4-0.4c-26.9-6.6-45.5-38.1-38.9-65.1c1.1-4.5,2.8-8.9,7.4-11.2
			c0.5,3.5,6.4,2.5,5.7,7c5.1,0.2,6.3,10.2,12.6,7.5c-8.8,5.7-8.6,8.3-0.5,15.5c0.6,0.6,1.5,0.6,1,1.7c-3.9,8.1,2.6,6.3,6.5,6.9
			c2.1,4.2,4.4,8.3,6.3,12.7c3,6.9,7,5.9,10.5,1c4.2-6,7.6-12.5,11.3-18.8L857.6,881z M747.1,776c-0.4,0.2-0.8,0.4-1.2,0.5
			C746.3,776.3,746.7,776.2,747.1,776z M790.4,767c-7.4-10.8-12.9-21.6-14.7-36.6c4.6,5.2,7,8.1,8.5,12.7
			c5,15.4,15.5,27.8,24.3,41.1c2.8,4.2,9.6,3,12,9.8c-9.7-4.7-19.7-5.6-28.5-10.7c-1.5-2.5-3-5-4.5-7.6c-9.4,0-12.7-7.5-17.2-13.7
			c3.2,1.9,6.6,3.2,10.1,4.4c-7.7-11.4-14.1-23.3-15.6-37.4c7.6,3.8,7.6,3.8,7.2,11.5C771.5,750.6,780.1,763.4,790.4,767z
			 M791.9,749.4c-4.2-5.6-5.3-11.6-2.3-18.3C798.4,736.3,789.6,743.5,791.9,749.4z M803.1,705.1c6.5,11.3,7.2,23.5,6.7,37.5
			C802.4,730,803.3,717.5,803.1,705.1z M828.8,732.6c-3.2,0.6-2.3-3.1-5-4.6c1.4,5.1-1.8,9.1-2.5,12.1c-0.8-4.9-4.9-12.5-2.5-15.3
			c5-5.9,1.9-13.7,7-18.5C825.5,715.3,826.7,724,828.8,732.6z M795.5,788.5c-9.9-1-18.7-3.8-23.8-13.3c6.4,3.8,12.6,8.1,20.4,8.4
			C793.2,785.2,794.4,786.8,795.5,788.5z M752.2,759.1L752.2,759.1c1.9,2.4,2.9,5,6.2,5.8C755.1,764.1,754.1,761.5,752.2,759.1z
			 M855.2,729.8c-2.3-6.5,2.8-12.4,1.8-18.9C864.4,718.1,854.9,723.4,855.2,729.8z M664.1,787.8c0.4,0,0.9,1.2,1.3,1.8
			c-3,2.1-1.7,8.3-7.5,7.7c-1.1-0.1-2.3-0.3-3.9-0.5c0.8-1.6,1.5-2.8,1.9-4.1C657.4,789,660.6,788.2,664.1,787.8z M658.3,664.8
			c2.3,10.8,4.6,21.7,6.8,32.5C660.8,687,658.5,676.1,658.3,664.8z M662.8,800.4c-5.2,2.4-4.2,8.1-9.5,8.9c-0.8-2.6,1.9-4.2,2.1-5.9
			c0.5-3.5-3.6-0.2-5.8-1.9C654.1,797.6,657.6,800.5,662.8,800.4z M991.5,1059c-0.6,2.1-0.3,5-0.8,7.5c-1.9,8.9-3.9,9.6-12,6.4
			c-2.1-0.8-0.7-1.5-0.5-1.9c2.4-6.1-0.7-10.5-4-15c-1.5-2.1-5.2-3.8-2.6-7.1c2-2.5,6-3.5,8.2-2.7c4.1,1.5,6.5-0.3,9.5-2.4
			C987.4,1049.6,993,1053.6,991.5,1059z M977.9,930.2C977.9,930.2,978,930.2,977.9,930.2L977.9,930.2L977.9,930.2z M1000.4,585.1
			c1,0,6.7,1,5.5,6.5c-1,4.6,0.6,12.4-4.4,12.3c-5.8-0.1-1.5-8.4-4.1-11.9C998.6,589.2,996,584.9,1000.4,585.1z M569.8,1083.2
			c1.9,3.9,3.4,7.2,5.7,11.9c0.7-6.6-2.6-10.3-3.7-14.6c-0.5-1.8-0.9-3.6,1.4-4.3c1.7-0.5,2.1,1.3,3.1,2.1c2.1,1.7,1.4,9.2,7.4,3.8
			c1-0.9,1.9,1.7,2.5,2.8c53.5,103.8,138.2,168.8,249.5,200.5c143.7,40.8,283.9,31.7,419.5-32c48.1-22.6,88.2-56.2,121.1-98.1
			c4.1-5.2,4.6-11.7,8.7-16.5c11.6-13.6,22.3-27.9,29.5-44.5c2.1-4.9,4.4-9.7,6.6-14.4c4.3,9.8-0.4,18.3-4.5,27.5
			c4.8-1.1,4.2-5.5,7-7.2c0.5,1.3,0.9,2.5,1.5,4c1.7-2.7,3.2-5.1,5.8-9.2c0.7,6.5-2.2,10.2-3.8,14
			c-33.5,78.2-90.3,133.4-166.2,170.5c-56.5,27.7-115.9,44-178.2,51.3c-55.9,6.6-111.7,6.1-167.3-1c-41.6-5.3-81.3-18.4-121-31.7
			c-49.4-16.5-93.3-41.6-132.5-75.1c-27.6-23.6-50.5-51.4-67.6-83.9c-8.1-15.4-18.2-29.7-23.2-46.7
			C570.2,1089.8,568.7,1087.2,569.8,1083.2z M1364.1,1234.6c-0.5,11.1-1.9,12-10.9,7.2C1358.2,1241.6,1358.8,1234.6,1364.1,1234.6z
			 M816.9,1342.3c-1.9-0.6-6.8-0.6-4.4-4.4c2.9-4.6,4.1-12.6,12.7-10.5c14.1,3.5,28,7.4,42.2,10.6c55.6,12.9,112,16.7,169,14.3
			c66.5-2.9,130.9-15.5,193.4-38.2c1.3-0.5,2.7-0.7,4.4-1.1c-1.9,4.9-1.6,10.9-7.3,12.8c3.1-0.8,6.2-1.6,9.9-2.6
			c-1.5,7.9-7.3,10.9-13.6,13c-32.6,10.7-65.6,19.7-99.4,25.7c-66.7,11.7-133.8,13-201,5.1C886.6,1362.6,851.3,1354.1,816.9,1342.3z
			 M820.7,1352.8c-5.4,0.6-9-1.4-12.9-2.3c-1.6-0.4-3.7-0.7-3.5-3c0.1-1,0.9-2.3,1.7-2.7c1.6-0.8,3.1,0,4.6,1.1
			C813.5,1348.2,816.7,1350.1,820.7,1352.8z M859.4,1322.1c26.2,4.8,52.1,11.4,79.4,14.1C927.3,1338.4,875.2,1329.3,859.4,1322.1z
			 M922,1341.5c-9.5,0.8-18.7-0.9-27.6-4.3C903.6,1338.6,912.8,1340,922,1341.5z M1064.5,1344.8c-40,3.7-80,4.5-120,0
			C984.4,1347.3,1024.4,1346.8,1064.5,1344.8z M966.4,1339.5h69.4c0,0.2,0,0.5,0,0.7h-69.3C966.5,1340,966.5,1339.8,966.4,1339.5z
			 M1072.4,1337c32.4-5,64.3-12.1,96.3-18.2C1137.3,1328.5,1105,1334.2,1072.4,1337z M1151.1,1330.1c-10.1,3.7-20.1,8.2-31.2,6.9
			C1130.3,1334.8,1140.7,1332.4,1151.1,1330.1z M1118.5,1337.3c-11.3,4.4-23.2,4.1-35,4.1C1095.2,1340,1106.9,1338.6,1118.5,1337.3z
			 M794.6,1325.9c-5.6-4-9.3-6.8-13.1-9.5c-2.1-1.5-3.2-3.5-2.1-6c1.1-2.6,4-2,5.3-1.4c3.8,2,15.6-2,7.9,9.7
			C791.9,1319.8,793.6,1322.4,794.6,1325.9z M767.7,1309.4c-7.7-1.7-16.4-1.3-21.3-10.4C755.8,1299.1,760.4,1307.2,767.7,1309.4z
			 M700.7,1279c-6.5-2.1-11.3-6.2-16.4-9.7c-1.5-1.1-1.9-2.3-1.2-3.6c1.2-2.5,2.2-0.3,3.7,0.1C693.8,1268,696.1,1274.7,700.7,1279z
			 M656.8,1255.2c3.7,5,3.8,11.1,4.1,16.4c0.4,5.9,3.4,7.7,8.6,11.4c-2-5.8,3.2-9.4-1-14.6c22,12.2,41.2,26.3,60.7,39.8
			c20.1,13.9,43,21.5,64.6,32.1c1.6,0.8,3.1,1.6,4.8,2c3.1,0.8,3.5,2.7,2.5,5.3c-1.1,2.8-3.1,1.7-5.1,1c-9.4-3.7-18.9-7.3-28.3-11.2
			c-6.7-2.7-13.3-5.7-19.9-8.7c1,0.2,1.9,0.1,2.5-0.5c1.3-1.2-0.5-2.6-1.4-3.5c-6-5.5-12.4-10.2-22.1-11c2.3,2,3.8,3.3,5.2,4.6
			c-3,1.1-1.3,2.3-0.2,3.7c3.9,4.9,9.2,8.3,14.7,10.7c26.9,11.6,53.9,22.9,81,34c4.5,1.9,9.5,2.5,14.4,3.5c1.4,0.3,3.7,1,4.2-1.5
			c0.4-1.8-0.9-2.4-2.5-2.8c-3.6-0.9-5.5-2.9-4.2-6.9c1.5-4.5,4.9-2.4,7.3-1.8c16.7,3.9,33.3,7.8,49.8,12.4
			c5.7,1.6,11.2,7.7,16.3,7.3c6.6-0.6,12.5,1.3,18.6,1.9c16.8,1.8,33.5,3.1,50.4,0.6H959c75.8-1.3,151.4-4.5,225.5-23.2
			c-10.4,3.3-20.9,6.6-32.7,10.3c12.3,0.4,22.3-4.2,33.6-6.3c-1.2,1.8-2.8,3.3-2.5,3.9c1,2.2,3,0.8,4.5,0.4
			c16.2-4.1,32.4-8.3,49.3-12.6c-0.4,6.9-6.9,6.2-9.9,9.3l0,0c-37.9,11.2-76.1,21.3-115.5,25.9c-15,1.7-30.1,3.6-45.2,4.5
			c-45.1,2.7-90.1,3.8-135.2-0.2c-49.8-4.4-97.2-18.7-144-35.3c-41.4-14.7-79.8-35.1-113.5-63.2c-20.1-16.8-38.3-36-42.6-63.9
			c-0.5-3.4-1-6.8-1.6-11.5C639.1,1231,647.8,1243.2,656.8,1255.2z M1299.3,1280.5c14.1-8.5,27-18.9,41.6-26.7
			c5.3-2.8,10.7-5.4,12.2-11.9l0,0c5.6,14.6-3,24-13,34.7c0.6-5.5,5.3-7,5.1-11.4c-1.9-0.9-3.1,2-4,1.6c-10.3-4.8-13.3,4.2-17.9,9.6
			c-7.9,9.3-19.7,13-28.2,21.3C1287.7,1287.3,1288.6,1286.9,1299.3,1280.5z M1303.5,1316.1c19.9-12.5,40.2-24.6,56.9-41.6
			c6.3-6.5,11.4-13,13.2-21.9c1.9-8.9,4.9-17.2,12.2-23.5c3-2.6,5.1-6.3,6.6-11.2c-8.9,0.5-14,7.3-20.5,11.1c-2.7-3.1-0.6-5.3,1-7.1
			c15.8-17.6,30.6-35.9,44.6-54.8c3.6-4.9,6.8-5.8,11.1-1.1c0.6,0.6,1.4,1.1,2.1,1.6c13,10.7,13.2,22,1,33.9
			c-2.6,2.5-3.9,0.8-5.9-0.2c-10-4.9-14.8-3.9-22.1,4.6c-10.5,12.4-17.4,27.1-22.4,42.1c-6.8,20.4-18.2,36.5-35,49.7
			c-15.6,12.2-31.1,24.2-49.6,32.3C1295.6,1323.4,1298.1,1319.5,1303.5,1316.1z M493.1,984c1.3,9.9,2.5,19.7,3.8,29.6
			C492.3,1004.1,489.2,994.4,493.1,984z M455.5,714.7c11.8-3.2,23.1-2.6,34.1,2.6c-8.3-0.3-16.6,1.8-23.1,5.8
			c-6.8,4.1-2.6,12.8-1.4,19c0.7,3.7,5.2,7.9,11.1,6.5c2.3-0.5,4.9-2.8,7.2-0.1c1.1,1.2,1.3,2.8,0.1,3.9c-2.1,2-4.1,3.6-7.6,1.2
			c-1.1-0.8-4.6,1.8-7.1,2.9c1.8,2.8,5.1,1.2,7.1,3c-1.4,0.5-2.9,1-4.4,1.5c6,0.3,7,6.5,12.4,9.3c-9.2,1.2-17.1,2.3-25.2,2.3
			c-4.4,0-6.3-1.6-6.6-5.9c-1-14.2-2.1-28.4-3.3-42.6C448.3,718.7,450.4,716.1,455.5,714.7z M458.5,798.6c-9-0.2-14-8.9-10-17.1
			c1.2-2.5,3.4-1.9,5.2-1.7c6.9,0.8,13.8,2,20.7,2.8c3.6,0.4,4.7,2.1,5,5.6c1.1,10.6,1.3,10.6-14.9,10.4
			C462.6,798.6,460.5,798.6,458.5,798.6z M464.7,809.2c-0.7-7.1,5.6-1.4,7.4-3.4c4.9,0.5,10.9-1.8,10.1,6.7
			c-0.9,8.9-7.8,4.5-11.9,5.4C462.8,819.5,465,812.1,464.7,809.2z M479.5,855.1c-13.6,0.9-13.8,0.8-13.9-15c0-0.6,0-1.2,0-1.7
			c0-12.5,4.2-16.5,15.8-11.3c10,4.4,1,14.7,3.1,22.1C485.5,852.7,483.9,854.8,479.5,855.1z M445.9,1023.9c-4-13.7-4.1-28-6-41.9
			c-1.9-13.5-4.1-26.9-4.9-40.6c-0.4-6.8,0-11.3,9.1-13c-14.1-4.4-5.2-12.4-6-18.6c7.7,10.2,7.7,10.2,22.6,9.9
			c7.5-0.1,15,0.2,22.5-0.2c2.6-0.1,3.7,0.2,3.9,2.9c0.7,8.1,1.6,16.1,2.3,24.2c0.3,4.1-3,2.7-4.9,2.8c-6.4,0.2-12.8-0.2-19.2,0.1
			c-8.2,0.4-17.8-2.6-22.4,8.4c2.5,0.4,5.2,0.9,8.1,1.3c-3,3.7-8.2,1.8-11,5.1c5.1,5.1,4.8,11.5,5.7,18.1c1.3,9.9-3.3,20.8,6.4,29.7
			C456,1015.4,453,1022,445.9,1023.9z M477.4,1048.3c-3.8,1.2-7.7,2.5-11.8,2.4c-1.4,0-4.6-2.1-4.5,1.7c0.1,3.4,2.8,2.8,5.2,2.8
			c3.6-0.1,7.1-2.7,10.8-0.3c-15.5,9-21.7,5.8-26.2-14.2c8.8,3.7,17,1.6,25.1,1.4c2.3,0,5.8-1.8,6.3,2.3
			C482.7,1047.4,479.5,1047.6,477.4,1048.3z M490.8,1077.3c-1.2-3.3,1.5-4.3,3.5-5.8c-0.6,0-1.1-0.1-1.7-0.1c3.2-6-1-7.7-7.3-9.1
			c5.5-1.5,9.4-6.1,12.7-0.9c2.5,3.9,1.4,8.3-3.8,10.3c7.2-1.9,7,2.4,6.3,7.2c-1.1-0.1-2.1-0.2-3.2-0.2
			C495,1078.6,492.1,1081,490.8,1077.3z M516.5,1144.3c-8.3-18.8-17.2-37.3-23.1-57.1c-0.8-2.6-0.1-3.7,2.2-4.5
			c1.9-0.7,4.6-0.5,4.9-3.2c4.1,10.6,8.2,21.2,12.5,31.7c3.9,9.4,8.1,18.6,12.2,27.9c1.1,2.5,3.9,5-0.9,6.8
			C521.3,1146.9,518.5,1148.9,516.5,1144.3z M521.8,1160.7c-1.7,0.4-3.7,0.5-4.3-1.7c-0.4-1.6,0.5-2.8,1.9-3.6
			c6.4-3.3,12.8-6.8,19.3-9.8c2.2-1,3.8,0.6,4.1,2.8c0,1.9-0.9,2.9-2.2,3.8C534.9,1156.2,528.7,1159.1,521.8,1160.7z M544.4,1297
			c-10.9-27.2-23.9-53.7-26.2-83.6c-0.3-3.4,0-6.9,0.4-10.4c5.4,30.1,15.9,58.6,24.8,87.6C544.1,1292.7,545,1294.7,544.4,1297z
			 M587.8,1318.2c-4.9,6.4-11.5,9.8-19.4,10.8C574.8,1325.3,581.3,1321.7,587.8,1318.2z M554.9,1223.3
			c-16.8-12.5-26.8-29.4-28.3-50.9c-0.4-5.5,0.9-8.3,6.5-9c2,1.8,1,4.2,1.1,6.3c0.4,27.6,16.9,44.3,38.9,56.7
			c16.9,9.5,33.9,19.2,52.6,25.1c4.8,1.5,8.7,4.3,13.7,9.8C607.4,1252.9,579.4,1241.6,554.9,1223.3z M672.5,1368.8
			c-10.9,6.7-21.1,14.5-32.5,20.2c-3.4,1.7-4.9,2.8-6.5-2.3c-13.2-41.4-26.8-82.8-40.3-124.1c-0.3-1.1-0.6-2.1-0.9-3.3
			c14.1-1,14.4-0.8,17.2,11.9c0.5,2.3,1,4.6,1.7,6.7c2.3,6.7,2.1,15.1,11.7,17.1c-0.8-11.4-5.7-21.8-10.3-33
			c5.5,0.2,9.8,0.1,11.3,6.2c7.6,32.6,27.1,58.1,49.2,82.1c0.6,0.6,1.2,1.3,1.8,1.9C683.8,1362.2,683.7,1362,672.5,1368.8z
			 M779,1432c-2.9-4.7-9.5-5-12.7-11.3c16.4,8.2,31,17.9,47.9,22.6C800.8,1444.3,790.8,1435.5,779,1432z M860.9,1455.2
			c9.6,0,18.6,3.3,27.6,5.7C878.8,1460.7,869.8,1458.2,860.9,1455.2z M927.2,1466.9c16,0.8,32,1.5,48,2.3
			C959.2,1471.8,943.4,1469.8,927.2,1466.9z M1002.3,1469.9c-8.6,38.4-5.2,76.7,0.8,114.9C992.1,1546.5,989.9,1508.3,1002.3,1469.9z
			 M937.3,1456.4c-52.6-4.2-103.4-16.3-151.4-38.5c-46.6-21.6-87-51.5-119-92.1c-4.6-5.8-9.3-11.6-13.2-20.9
			c28.3,24,55.4,45.2,88.7,56.7c-19.6-12.7-40.6-23.2-58.3-38.6c9.8,4.3,17.9,12.1,29.8,14.4c-4.9-4.7-9.1-8.6-13.2-12.6
			c23,13.8,49,21.9,72.5,38.8c-8.1,1.4-13-2.8-18.6-2.7c37.8,16.4,74.7,35.2,116.3,40.6c-11.9-4.7-24.7-6.5-35.9-13.5
			c10.2,1.9,20.5,3.8,30.7,5.7c0.1-0.4,0.2-0.9,0.4-1.3c-4.6-1.6-9.3-3.2-13.9-4.7c13.2,1.8,26.1,4.6,39.3,6.4
			c37.6,5.2,75.3,7.9,113.3,6.7c8.1-0.2,11.4,1.7,11.5,10.1c0.1,12,1.1,24,1.8,36c0.3,5.9-1,9.2-8.2,10.3
			C985.5,1460.5,961.4,1458.3,937.3,1456.4z M1010.1,1471.1c-0.9-5.7,5.2-2,8.1-2.8c3.2-0.8,4.5,1.8,3.1,4.1c-1,1.6,1.5,6.6-4.4,4.7
			c-5.3-1.7-4,3.4-3.5,5.8c1.3,5.8,1.3,11.5,0.8,17.2c-0.2,2.3-0.3,4.7-4.2,5.2C1009,1493.9,1011.9,1482.6,1010.1,1471.1z
			 M1025.8,1680.1c-0.4,0.9,2,2.8-0.7,3.1c-2,0.3-2.2-1.2-2.2-2.8c0.1-4.6,0-9.1,0-14.8C1025.6,1670.5,1028.2,1674.7,1025.8,1680.1z
			 M1013,1512.8c-1.5,0-3.1,0-3.2-2c-0.1-2.2,1.7-2.1,3.1-1.9c4.2,0.5,8.6,0.1,14.3,3.9C1021,1512.8,1017,1512.7,1013,1512.8z
			 M1031.3,1484.1c-4.6-11-3.7-12.5,8.2-14C1036.8,1474.9,1034,1479.5,1031.3,1484.1z M1073.5,1467.7c-0.1-0.6-0.2-1.3-0.2-1.9
			c12.5-1.5,25.1-3.1,37.6-4.6c0.1,0.8,0.2,1.7,0.3,2.5C1098.6,1465,1086.1,1466.3,1073.5,1467.7z M1281.7,1408.2
			c-7.2,4.4-16,6.5-23.4,10.9c-5.6,3.3-10,3.2-14.2-1.8c0.2,5.9-1.9,9.6-8,12.1c-16,6.5-32.8,10-49.7,13c-41,7.3-82.6,9.8-124,14.1
			c-11.6,1.2-23.1,1.7-34.8,0.7c-4.7-0.4-6.4-1.6-6.5-6.7c-0.3-14.8-1-29.6-2.2-44.4c-0.4-5.1,1.3-5.8,5.6-5.8
			c65-0.4,128.7-10,191.2-27.3c4.2-1.2,7.3-0.8,9.8,3c1.4,2.2,3.2,4.1,4.9,6.2c2.5,3.2,5,6.4,8.1,10.4
			c-40.6,9.2-80.5,18.3-120.3,27.4c0.1,0.6,0.2,1.1,0.4,1.7c28.5-5.5,57-10.9,85.4-16.6c14.8-3,29.3-6.8,44.6-7.2
			c12.8-0.4,24.7-6,36-12.3c3.9-2.2,6.3-5.6,6-9.9c-0.4-5.7,2.9-8.1,7.2-10.5c13.9-7.8,26.5-17.3,37.8-28.7
			c-14.2,9.2-27.9,19.2-43,27.6c-0.3-1.1-0.5-1.8-0.6-2.6c-1.5-15.4,4.8-24.5,19.4-31.3c20.3-9.5,37.7-24.2,54.2-39.4
			c7.9-7.3,12.3-16.8,16-26.7c6-16.1,12.2-32.1,21.1-46.8c2.7-4.5,5.4-9,9.3-12.6c3.8-3.5,7.8-3.5,11.8-0.5c4.5,3.4,1.8,6.8-0.4,9.8
			c-14,19.8-20.3,43-29.2,65C1371.7,1335.1,1332.8,1377.1,1281.7,1408.2z M1452.3,1228.7c1.8-5.2,3.3-9.6,4.8-14
			c-0.6-0.4-1.2-0.8-1.8-1.2c-11.1,16.2-25.3,30.1-34,48.3c2.7-2.5,5.3-4.9,8-7.4c-5.3,13.4-13.4,24.7-23.4,36.1
			c-2.2-6.2,0.3-9.7,2.1-13.1c8.5-16.2,17.4-32.1,25.9-48.3c8.3-15.7,16.4-31.4,24.2-47.4c1.6-3.2,2.5-4.1,5.5-2.1
			c10,6.4,20.4,12,33.1,16.4C1479.2,1204.2,1467,1217.2,1452.3,1228.7z M1535.1,1222.3c-26,14.2-44.5,35.5-60.1,60.5
			c-43,69.4-65.1,144.8-68.9,226c-1.1,24.4-4.2,48.6-8.2,72.9c0-6.3-0.1-12.6,0-19c1-48,1.2-96.3,14-142.9
			c18.3-66.7,43.3-130.3,93-181c10.2-10.4,20.4-21.5,36.1-24C1541.1,1219,1538.1,1220.7,1535.1,1222.3z M1723.1,1454.2
			c1.4,5.4-1.2,9.3-4.6,14.4c-3.2-23.5-11.9-44.1-17.8-65.5C1710.2,1419.3,1718.2,1436.1,1723.1,1454.2z M1683.8,1496
			c-0.7-3.3-0.7-6.4-0.1-10.2c6.8,1.5,4.4,7.1,5.9,10.6c0.8,1.8-1.5,3.5-3.8,3.6C1682.4,1500,1684.2,1497.7,1683.8,1496z
			 M1685.1,1423.6c0.9,0.2,1.6,0.2,2,0.5c2.8,2.9,5.9,5.6,6.1,9.9c0.1,1.4-1.9,1.9-2.7,1.3
			C1686.6,1432.5,1684.4,1428.8,1685.1,1423.6z M1681.1,1390.4c4.9,1.6,5.5,6,6.8,11.2c-5.3-1.7-8.5-4.3-8.8-9.3
			C1679.1,1391.1,1679.7,1389.9,1681.1,1390.4z M1667.2,1484c0.4-1.9,2.6-2.3,3.4-1.6c3.7,2.7,3.7,6.6,2.3,11.2
			C1668.8,1491.4,1666.1,1488.8,1667.2,1484z M1639.3,1461.8c-0.2,1.9-0.4,3.6-2.8,3.3c-3.9-0.4-5.4-3.2-5.3-6.6
			c0-1.2,0.1-3.3,1.5-3.8C1635.9,1456.7,1639.7,1457.4,1639.3,1461.8z M1635.8,1500.7c-2.8-0.1-3.4-3.2-3.7-5.8
			c-0.3-2.6,0.5-5.3,3-5.2c2.7,0.2,3.7,3.2,4.2,5.9C1639.8,1498.5,1637.8,1500.7,1635.8,1500.7z M1626.7,1421.1
			c5.4,0.4,8,2.9,7.7,7.6c-0.1,1.1-0.8,3.4-2.6,2.6C1627.5,1429.5,1626.5,1425.8,1626.7,1421.1z M1623,1401.8
			c5.9,3,8.5,6.5,7.1,12.6C1624,1412.5,1622,1408.6,1623,1401.8z M1633.5,1350.6c-0.5,0.4-2,0.5-2.3,0.1c-2.6-3.1-2.6-6.8-2.1-10.6
			c0.2-2.2,2.7-3.4,0.9-7.4c4.3,3.4,4.4,6.5,4.2,9C1633.9,1344.7,1636.6,1348,1633.5,1350.6z M1623.3,1315.1c0.9,0.4,1.8,0.5,2.3,1
			c2.7,2.7,6.8,4.5,6.7,9.2c0,0.4-2.6,1.3-2.8,1.1C1627.2,1322.9,1621.5,1321.2,1623.3,1315.1z M1626.5,1391.4
			c0.4,1.6,0.7,3.6-1.8,4.3c-3.1-1.2-5.1-3.5-6-6.8c-0.6-2.4,0.9-3.7,2.6-3.5C1624.5,1385.7,1625.8,1388.5,1626.5,1391.4z
			 M1591,1395.2L1591,1395.2L1591,1395.2C1590.9,1395.2,1590.9,1395.2,1591,1395.2c-0.7-0.7-1.3-1.4-2-2.1c-8-3.5-5.3-11.4-6.8-17.5
			c-0.2-0.9,1.1-1.9,2.5-1.5s2.8,1,3.2,2.5c1.3,4.5,2.5,9,3.7,13.6C1593.6,1392.3,1595.8,1394.3,1591,1395.2L1591,1395.2z
			 M1589.5,1418.9c-3.1-2.6-8.3-2.9-6.5-8.2c0.5-1.5,2.3-3.2,4-2.3C1591,1410.6,1590.4,1414.4,1589.5,1418.9z M1585.1,1339.5
			c0.3-4.5,11-7.9,15.6-8.4c4.4-0.5,9.6,6.4,13.5-1.2c0.6-1.1,2.7,1.6,2.6,2.5c-0.4,3.2,1.1,6,0.8,9c0.6,7.1,1.3,14.2,1.8,21.4
			c0.1,1.6,1.1,3.8-1.3,4.4s-4.2-1-4.3-3.1c-0.4-5.1-2.7-4.4-6.1-2.7c-6.4,3.1-8.6-3.4-11.4-6.3
			C1592,1350.4,1584.6,1347.1,1585.1,1339.5z M1603.7,1398.5c0.7,0.1,1.3,0.1,1.8,0.3c4,2,7.2,4.7,6.8,9.7c-0.1,1.2-1.7,1.6-2.8,0.8
			C1605.9,1406.7,1602.1,1404,1603.7,1398.5z M1608.4,1417.1c4.7,0.9,7.3,3.5,7.6,8c0.1,1.5-1.4,1.8-2.4,1.3
			C1610,1424.5,1606.9,1422.2,1608.4,1417.1z M1610.8,1451.9c2.3,4.8,11.9,2.7,8.2,12C1617.5,1459,1606.7,1461.6,1610.8,1451.9z
			 M1727,1483.2c-14.6,26.4-35.8,46.3-60.7,62.8c-6,4-12.4,11.6-18.4,10.3c-6.1-1.3-8.1-11.1-11.5-17.4
			c-30.2-55.5-65.9-107-111.6-151c-4.2-4-4.6-6.6-0.5-11.2c23.4-26.1,51-47.8,75-73.2c3-3.2,6.3-6.1,9.2-9.3c1.9-2.1,3.5-2.2,6-1
			c7.8,3.8,8.2,5.1,1.7,10.9c-26.2,22.7-52.7,45.1-78.6,68.1c-11.2,9.9-10.4,7.4-1.1,16.9c43.4,44.5,77.9,95.4,109.8,148.4
			c6.2,10.2,6.5,10.4,15.8,2.8c25-20.5,49.8-41.3,66.3-72.1C1731.3,1475,1729.3,1479.1,1727,1483.2z M1573.1,1377.8
			c-0.1,1.4-1.6,2.3-2.4,1.6c-3.7-2.9-7.5-5.9-8.6-12.8c2.3,1.3,3.3,1.6,3.7,2.2C1568,1371.9,1573.3,1372.7,1573.1,1377.8z
			 M1559.8,1392.1c0,1.5-1.9,4.7-4.1,3.2c-3.2-2.2-5.9-5.4-4.3-11C1554.6,1387.3,1560,1386.7,1559.8,1392.1z"/>
		<path class="st0" d="M1241.9,1462.9c-19.4,5.8-30.6,20-34.7,39.1c-7.7,35.6,16.8,56.9,51.1,45.3c1.9-0.6,5.5-1.6,5.6-1.3
			c2.1,5.2,3.7,1.7,5.2-0.2c6.1-8.3,16.1-13.7,15.1-27c-0.5-6.4,4.1-13.6,4.1-17.4C1288.2,1470.7,1267.9,1455.2,1241.9,1462.9z
			 M1258.1,1480.2c-4.5,0-8.3,0-14.7,0C1249.8,1478.8,1253.6,1476.7,1258.1,1480.2z M1226.9,1492c1.7-0.7,3.4-0.5,4.8,0.8
			c1.3,1.2,0.8,2.4,0.4,3.9c-1.7,5.8-7.5,8.3-10.1,13.8C1219.2,1503.6,1222,1494.1,1226.9,1492z M1275.3,1531.1
			c-0.8,0.4-1.2,1.8-1.9,2.7c-7.8,9.9-9.8,9.9-18.8,1.6c-3.1-2.9-5.2-7.2-10.1-7.8c3.1,4,6.2,8,10.4,13.6
			c-11.1-5.8-17.8-14.1-25.8-20.7c-1.7-1.4-4.1-3.5-1.8-5.8c2.8-2.8,3.4,1.4,5.1,2.2c1,0.5,2.1,0.6,3.1,0.9
			c-6.1-6.7,1.1-10.2,3.8-14.3c3.3-5.2,5.4,2.1,9.7,1.4c-2.4-3.1-4.4-6-6.6-8.6c-1.2-1.5-1-2.7,0.1-3.7c1.5-1.4,2.5-0.1,3.4,1.1
			c8.5,11.7,20.1,20.6,29.9,31.1C1278.2,1527.1,1279.4,1529.1,1275.3,1531.1z"/>
		<path class="st0" d="M563,1553.6c-6.3-18.5-8.2-38.2-7.3-57.7c0.8-16.8,3.7-33.5,7.5-50c2.4-10.4,4.2-21,6.2-31.6
			c-2,0.7-2.6,1.7-2.9,2.7c-9.9,38.1-17.5,76.5-20.1,115.8c-0.7,10.3,2,19.5,8,27.9c4.4,6.2,8.6,12.8,9.1,20.5
			c0.5,8.1,3.5,15.2,6.5,22.4c7.3,17.4,15.7,34.3,20.6,52.6l-0.3-0.2l0,0c0.1,0.1,0.1,0.1,0.2,0.2c4.1,3.6,2.3,10.6,7.4,13.7
			c1.2-1.8,0.4-3.4-0.1-5.1C586.2,1627.7,575.6,1590.4,563,1553.6z"/>
		<path class="st0" d="M1156.8,1599c-9.2,11.7-15.8,25.4-13.8,41.2c7.4-16.7,22.7-25.7,35-37.3c6.7-6.3,16.2-9.3,21.7-16.9
			c-1-0.2-2.9-0.5-4.8-0.8c11.2-1.1,22.2-1.4,33.1,0.3C1202.9,1575.7,1170.7,1581.2,1156.8,1599z"/>
		<path class="st0" d="M747.7,1666.9c-26.2-65.1-58.4-128.1-66.1-199.2C685.7,1540.1,713,1604.8,747.7,1666.9z"/>
		<path class="st0" d="M1299.9,1423.8c-54.9,24.8-111.8,42.4-172.2,48.1c5.8,0,11.5,0,17.3,0c0.1,0.4,0.1,0.7,0.2,1.1
			c-7.9,2.2-15.8,4.5-23.8,6.7C1184.2,1471.5,1244.6,1455.7,1299.9,1423.8z"/>
		<path class="st0" d="M772.7,1442.9c19.8,6.3,37.6,18.3,58.8,20.4c-10.1-2.7-19.3-7.5-28.9-11.3c-9.2-3.6-18.1-8.1-27.5-10.7
			c-11.4-3.2-21-8.9-29.8-16.5c7.4,0.9,12.4,7.9,21.3,8.9c-18.3-14.1-38.4-22.6-57-33.6c4.6,3.7,9.2,7.4,13.9,11.1
			c-4.8,0.7-7.1-4.7-12.2-4.8c3.7,4.8,8.2,7.8,12.7,10.6c11.7,7.4,23.7,14.5,35.6,21.7c1.6,1,3.2,1.9,2.3,3.9
			c-1,2.2-2.8,1.2-4.4,0.4c-2.9-1.4-5.9-2.6-8.8-3.9c12.1,11.9,27.1,17.5,43,21.7C783.1,1457.1,777.7,1450.4,772.7,1442.9z"/>
		<path class="st0" d="M1357.6,1416c-18,34.2-35.2,68.8-35.9,108.9c4.4-11.7,8.8-23.5,13.2-35.2l-0.2,0.2c0-10.9,3-21.2,6.8-31.3
			C1346.9,1444.4,1352.3,1430.2,1357.6,1416z"/>
		<path class="st0" d="M936.6,1528.2c-11.9,0.7-23.9,0.8-35.6,2.8c-15.9,2.7-30.9,1.6-46.1-4.1c-14.6-5.5-28.7-12.3-43.8-17.1
			c14.7,9,29.5,18,46.2,23.3c10.6,3.3,21.1,6.6,32.4,3.9c9.9-2.3,20.1-3.3,30.2-4c7.8-0.5,15.5-1.5,24.2-2.3
			C941.2,1527.3,938.7,1528,936.6,1528.2z"/>
		<path class="st0" d="M1174.7,1683.1c-11,4.4-11.4,4.4-16.8-5.9c-2.4-4.6-4.4-9.4-6.8-14c-0.9-1.8-0.6-5.1-3.5-4.8
			c-3.1,0.3-3.4,3-3.6,5.8c-0.5,11.1,6.6,19.5,10,29.2c2.3,6.4,5.9,7.4,11.8,2.8c5.4-4.2,7.5-13.1,18.5-11.5
			C1179.6,1681.2,1176.9,1682.2,1174.7,1683.1z"/>
		<path class="st0" d="M1430,1654.7c17.1-35.8,30.7-72.9,39-112C1456.5,1580.1,1442.3,1617,1430,1654.7z"/>
		<path class="st0" d="M305.6,1540.9c-0.5,0.1-1.1,0-1.3,0.3c-3.9,4.8-5.1-0.1-7-2c-9.1-9.4-17.7-19.1-24.9-30.1
			c-1.5-2.3-2.6-7.4-6.5-4.5c-3.7,2.7-0.4,6.3,1.6,8.9c18.2,24.7,41.7,43.8,65.4,62.8C325.1,1563.3,307.2,1558.7,305.6,1540.9z"/>
		<path class="st0" d="M368.8,1529.5c-20.9-25.5-48.9-44.1-68-71.4C315.2,1489.9,342.8,1508.9,368.8,1529.5z"/>
		<path class="st0" d="M508.8,1388.3c-7.8,38.9-6.3,77.6,1.3,116C507.6,1465.4,506,1426.9,508.8,1388.3z"/>
		<path class="st0" d="M1158.4,1480.9c-1.4,2.9-5.4,1.6-5.7,5.3c12.5-0.8,23.6-6.3,35.4-9.1c-2.4,3.9-8.2,2.6-11.1,7.6
			c8.8-3.4,17.3-5.1,25.4-10.3c-5-0.4-8.4,1.2-11.9,2.5c-2.4-6-7.3,2-10.1-2.2c1.9-1.8,5.9-0.7,7.9-4.9c-24.6,4.7-48,11-71.3,17.6
			C1130.9,1487.3,1144.3,1483.5,1158.4,1480.9z"/>
		<path class="st0" d="M1422.9,1596.9c-8.5,18.6-14.8,37.8-18.9,57.8c-0.3,1.6-1.7,3.8,0.5,4.5c2.3,0.8,3.5-1,4.1-3.3
			c1.3-5.4,2.8-10.7,4-16c5.1-21.5,14.2-41.7,19.4-63.6C1429,1583.3,1426.1,1590.1,1422.9,1596.9z"/>
		<path class="st0" d="M1451.4,1378.6c9.3-21.9,22.2-42.2,30.9-66.4C1469,1322.6,1452.8,1357.9,1451.4,1378.6z"/>
		<path class="st0" d="M412.5,1392.6c0.9-7.6-0.9-12.3-1.8-17.2c-2.1-11.6-4.9-23.2-3.8-35.2l0.1,0.3c-3.8-12.9-1.8-26.1-1.1-41
			c-5.1,10.3-1.6,19.6-4.1,30.4c-0.5-9.1-0.9-16-1.3-22.9c-2.6,8.5-1.5,16.8-0.4,25c1.4,11,5.5,21.5,4.3,33.2
			C403.5,1373.9,407.1,1382.6,412.5,1392.6z"/>
		<path class="st0" d="M425.9,1400.7c-0.3,6.2,4.9,11.8,11.2,11.9c7,0.2,13.3-5.9,13.1-13.3c-0.2-6.8-4-10.8-10.8-11.2
			C433.2,1387.8,426.2,1394.6,425.9,1400.7z M440.7,1395.4c1.1-1.5,4.3,1.6,4.6,4.6c-0.9,4.5-3.3,7.4-8.1,7.4c-4.1,0-6.5-2-6.3-6.5
			C431,1394.2,438,1399.2,440.7,1395.4z"/>
		<path class="st0" d="M754.2,1660.9c-16.5-38.5-30.2-78.1-45-119.6C710.4,1557.4,745.3,1649.8,754.2,1660.9z"/>
		<path class="st0" d="M568.1,1625.2c-10.4-24.9-15.2-51.8-29.2-75.1C545.9,1576.3,557,1600.8,568.1,1625.2z"/>
		<path class="st0" d="M568.1,1625.2c1.2,2.8,2.5,5.7,3.8,8.4C570.6,1630.8,569.3,1628,568.1,1625.2z"/>
		<path class="st0" d="M692.8,1567.8c7.1,36,18.6,70.7,32.3,104.7C714.3,1637.6,703.6,1602.7,692.8,1567.8z"/>
		<path class="st0" d="M717.9,1688.9c-6.9-21.4-13.6-41.8-20.2-62.2C699.3,1651.7,709.9,1685.2,717.9,1688.9z"/>
		<path class="st0" d="M521.3,1586.4c12.2,25.6,20.3,53.1,35.2,77.5c0.7-0.3,1.5-0.7,2.2-1c-11.9-25.9-23.8-51.8-35.7-77.7
			C522.4,1585.5,521.8,1586,521.3,1586.4z"/>
		<path class="st0" d="M988.3,1622.6c-5.6,0.6-9.6,3.8-9.5,9.4c0,5.7,4.3,9.3,9.8,8.9c5.5-0.3,7.2-5,7.5-9.4
			C995.5,1626.1,994.2,1622,988.3,1622.6z"/>
		<path class="st0" d="M588.2,1654c-8.6-20.9-17-41.9-25.6-62.8c-1-2.5-0.9-6.2-6.2-7.4c11.8,28.9,23.2,56.5,34.5,84.2
			c1.8-4.5-2-7.8-0.7-11.9C589.5,1655.3,588.6,1654.8,588.2,1654z"/>
		<path class="st0" d="M1334.8,1489.9l0.2-0.2c0.6,6.7-1.3,13.1-2.7,19.5c-2.6,11.5-5.2,22.9-7.7,34.4c0.7,0.2,1.4,0.3,2.1,0.5
			c6.2-23,10.6-46.5,17.8-69.4C1341.1,1479.7,1337.9,1484.8,1334.8,1489.9z"/>
		<path class="st0" d="M483,1496.7c12.4,26,19.6,51.9,25.3,78.2C508.1,1553,494.2,1509.6,483,1496.7z"/>
		<path class="st0" d="M832.1,1526.6c17.7,12,36.4,21.1,58.8,14.3C869.5,1543.9,851,1534.9,832.1,1526.6z"/>
		<path class="st0" d="M575.4,1455.4c-1.1,17.1-4.1,34.3,1.4,51.2C574.9,1489.6,580.7,1472.3,575.4,1455.4z"/>
		<path class="st0" d="M726.8,1688.4c-8.2-17.3-13.9-35.1-21.3-55.2C706.1,1649.8,720.5,1686.5,726.8,1688.4z"/>
		<path class="st0" d="M569.2,1454.3c-5.6,16.9-7,42-3,53.2C569.4,1489.1,566.9,1471.5,569.2,1454.3z"/>
		<path class="st0" d="M342.1,1388c0.2-13.8-5.1-25.1-8.9-36.8C331.6,1364.1,333.6,1376.2,342.1,1388z"/>
		<path class="st0" d="M1273.4,1663.9c-3.2,9.6-10.1,16.7-16.5,24.2c18-10.8,27.2-35.2,19.9-53.1
			C1278.4,1645,1276.5,1654.5,1273.4,1663.9z"/>
		<path class="st0" d="M999.7,1632.8c0.4,1.3,1.1,2.6,1.2,4c0.8,18.5,1.5,37.1,2.2,55.6c0.1,3.6,0,7.3,2.2,10.6
			c0.8-22.8-2-45.5-3.2-68.2C1002,1634.1,1000.5,1633.4,999.7,1632.8z"/>
		<path class="st0" d="M999.6,1632.7L999.6,1632.7L999.6,1632.7L999.6,1632.7z"/>
		<path class="st0" d="M816.3,1696.8c-4.5-21.9-12.9-42.9-17.6-64.9C800.6,1654.6,808.9,1675.5,816.3,1696.8z"/>
		<path class="st0" d="M1524.1,1273.7c-2.8-1.8-4.6-4.8-7.9-6.2c-0.7,0.5-1.7,0.8-2.1,1.4c-0.6,1.1-0.1,2.1,1.1,2.9
			c8.4,5.4,14.5,13.1,20.8,20.6c0.9,1.1,2,1.3,3,0.8c0.7-0.3,1.5-1.4,1.4-1.9c-0.8-3.2-5.6-4.7-4.1-9
			C1529.7,1283,1528.3,1276.4,1524.1,1273.7z"/>
		<path class="st0" d="M1461.9,1640.1c5-14.6,12.5-28.3,17.8-42.8C1471,1604.1,1464.8,1619.2,1461.9,1640.1z"/>
		<path class="st0" d="M523.4,1524.9c-3.5-21.4-6.5-42.9-9.6-64.4C514.9,1482.3,516.3,1504,523.4,1524.9z"/>
		<path class="st0" d="M522.4,1498.1c-2.2-19.7-3.3-39.4-5.3-59C516.2,1459.1,517.8,1478.8,522.4,1498.1z"/>
		<path class="st0" d="M759.3,1646.3c-8.9-15.9-15.1-33-23.8-48.8C742.2,1614.5,747.7,1631.9,759.3,1646.3z"/>
		<path class="st0" d="M1057.9,1662.7c-5.5-0.4-9.2,3-9.2,8.1c0,5,2.7,9.7,8.9,9.7c5.2,0,7.8-3.1,8-8
			C1065.5,1667,1063.5,1663.1,1057.9,1662.7z M1058.5,1676.9c-4.4,0.4-5.6-2.6-6.3-5.7c-0.9-3.6,1.9-5.6,4.8-6
			c4.5-0.7,5.7,2.9,6.7,6C1063.8,1675.2,1062,1676.6,1058.5,1676.9z"/>
		<path class="st0" d="M375.9,1595.7c9.8,6,19.5,12,29.3,18.1C397.1,1605.2,389,1596.2,375.9,1595.7z"/>
		<path class="st0" d="M1291.7,1680.8c6.9-4.6,5.6-12.4,11.6-14.9c-0.1-0.7-0.1-1.3-0.2-2c0.8-9.7,7.3-17.2,9.6-26.4
			C1303.9,1650.3,1298.8,1664.9,1291.7,1680.8z"/>
		<path class="st0" d="M921.3,1476c-16.7-2.6-33.3-5.2-50-7.8C887.6,1473.2,904.2,1476.6,921.3,1476z"/>
		<path class="st0" d="M1424.7,1630c6.6-10.6,11.5-22,13.1-36.9C1431.5,1606.2,1427.6,1617.8,1424.7,1630z"/>
		<path class="st0" d="M632,1671.4c-3.7-14.5-7.5-29.1-11.2-43.6C622.3,1642.9,625.8,1657.5,632,1671.4z"/>
		<path class="st0" d="M488.2,1639.3c-3.9,3.6-11.5-2-13.7,6.2c4.1,0.7,8.2,1.3,12.3,2.1c2.7,0.5,3.6-1,3.7-3.4
			C490.5,1642.1,488.5,1639,488.2,1639.3z"/>
		<path class="st0" d="M1335.5,1543.5c2.1-14.2,5.6-28.1,8.9-42C1338.2,1514.8,1335.5,1528.9,1335.5,1543.5z"/>
		<path class="st0" d="M1303.3,1665.9c8.1-8.8,12.7-19.7,17.8-30.3c-8.1,8.1-12.2,18.7-18,28.3
			C1303.2,1664.5,1303.2,1665.2,1303.3,1665.9z"/>
		<path class="st0" d="M1045.2,1576.4c1,6.1,6.6,6.6,10.9,8.6c1.6,0.7,2.7-0.5,3.1-2.3c-2.9-4-7.1-6.7-11.5-8.8
			C1045.9,1573.1,1044.9,1574.9,1045.2,1576.4z"/>
		<path class="st0" d="M494.2,1557c3.6,8.8,7.2,17.6,10.8,26.4C504.3,1573.4,500.5,1564.6,494.2,1557z"/>
		<path class="st0" d="M584.9,1579.1c3.5-7.3-1.9-11.5-4.2-16.6C578.1,1568.9,580.2,1574,584.9,1579.1z"/>
		<path class="st0" d="M1521.1,1351c-1-6.3-15.9-6.7-6.2-16.8c-2.9,2.5-5.8,5.1-9.4,8.3C1511.9,1344,1515.2,1349.7,1521.1,1351z"/>
		<path class="st0" d="M1293.3,1660.6c4.4-7.7,10.5-14.4,13.9-25.4C1298,1643,1296.8,1652.3,1293.3,1660.6z"/>
		<path class="st0" d="M380.8,1604.7c-6.9-7-15.1-11.5-24.7-14.1C364.3,1595.3,372.6,1600,380.8,1604.7z"/>
		<path class="st0" d="M346.2,1405c1.1,8.4,3.6,16.1,9.7,22.2C352.7,1419.8,349.4,1412.4,346.2,1405z"/>
		<path class="st0" d="M581.7,1493.2c-0.2,6.9,0.8,13.7,3,21.6C588.4,1505.9,583.5,1499.8,581.7,1493.2z"/>
		<path class="st0" d="M1080.7,1655.6c2.5-9,8-17.3,6.9-28.4C1084.1,1637.2,1081.7,1646.2,1080.7,1655.6z"/>
		<path class="st0" d="M999.6,1632.7L999.6,1632.7L999.6,1632.7C999.6,1632.7,999.6,1632.7,999.6,1632.7z"/>
		<path class="st0" d="M999.6,1596.3c0,12.1,0,24.2,0,36.3C1002.1,1620.5,1000,1608.4,999.6,1596.3z"/>
		<path class="st0" d="M1478.7,1613.3c-5.7,7.6-8.8,16.2-9.3,25.6C1472.5,1630.4,1475.6,1621.8,1478.7,1613.3z"/>
		<path class="st0" d="M449.2,1345.9c-5,4-9.9,8.1-12.5,14.3C441.7,1356.2,446.3,1351.8,449.2,1345.9z"/>
		<path class="st0" d="M1289.2,1179.9c0,0.1,0.1,0.1,0.1,0.2c0.1,0,0.2,0.1,0.3,0.1L1289.2,1179.9z"/>
		<path class="st0" d="M835.3,985.9c0-0.1,0.1-0.2,0.1-0.3h-0.1C835.3,985.6,835.3,985.9,835.3,985.9z"/>
		<path class="st0" d="M1590,1393l-0.7,0.2c0.5,0.7,1,1.3,1.6,2c-0.3-0.9-0.6-1.9-0.9-2.8V1393z"/>
		<path class="st0" d="M1102,967c-3.5,1.3-5.1,0.5-7.6-1.2c-3-2-3.3-3.8-0.4-6c1.4-1,0.4-1.9-0.3-2.8c-6-7.2-7.5-15.4-4-24.8
			c-3.7,1.4-7.4,4.3-9,0c-1.7-4.5,3.9-2.8,5.5-4.6c3.6-3.9,6.4-0.2,9.2,0.9c8.5,3.2,17.1,6.7,26.2,4.7c20.8-4.6,40.8-11.3,54.3-29.2
			c9.7-12.8,18.2-26.3,13.9-43.9c-1.1-4.5-2.4-11.9-0.1-13.6c8-6.4,0.6-9.5-2.3-11.1c-13.4-7.4-28-13.6-43.3-13.1
			c-34.8,1-68.9,26.4-75.1,61.6c-1.3,7.2-1.2,14.6-2.8,21.5c-1,4.4,2.2,10.8-4.1,13.8c3.7,6.3-2.4,12.7-0.4,18.1
			c2,5.2-1.6,5-3.5,6.8c-2.5,2.3-4.5,0.9-6.8-0.8c-2.7-2-3.8-5.8-7.7-6.5c-0.6,9.5,8.4,14,11,21.8c2.5,7.7,9.8,14.4,5.2,23.9
			c-2.8-1.8,0.9-5.7-2.8-6.8c-4.7,31.2-4.7,31.2,0.2,39.6c1.6-3.8,4-6.4,7.3-8.2c2.4-1.3,3.6-4.1,3.1-6.5
			c-0.9-4.3,0.8-11.2,4.1-12.8c1.3-0.6,2.4-2.3,4.2,0.1c3.2,4.3,7.2,8.6,9.5,13.1c2,3.8,1.4,4.4,5.3,2.2c2.1-1.2,7.5-3.7,8.3,1.5
			c0.3,1.8-2.3,4.1,1.5,4.9c1.3,0.3,2.8-0.5,4.1-0.7c-2.1-1.8,1.5-5.2-2.2-7c-0.7-0.3-0.5-4.9,0.6-6.2c1.7-1.9,7.1-1.4,6.9-0.5
			c-1.2,8.2,6.4,2.5,8.4,6.7c0.2,0.8-5.2,1.2-1.8,4.1c1,0.8,14.6-2.6,15-3.9c0.1-0.3-0.5-1.1-0.4-1.3c3.1-2.8,6.2-5.6,9.4-8.2
			c0.5-0.4,1.6-0.3,2.4-0.4c0,0,0.1,0.5,0.1,0.7c2.6,10.2,10.6,13.3,19.8,14.7c-2.5,3-4.8,5.9-7.8,9.6c7.5-1.8,13.9-5.1,21.8-3.6
			c-3,3.5-8.2,2.7-8.9,5.5c18.6,3.5,35-10.3,54.2-7c-1.3,0.4-2.7,0.7-5.6,1.6c10.7-0.4,13.4,11,22.3,11.2c-3-0.1-6.2-1.7-8.9,0.9
			c3.6,3.4-1.4,11.1,6.7,12.6c6.5,1.2,13,2.8,19.6,3.3c2,0.2,4.3-0.6,5.2,3c1.4,6,10.3,8.8,12.2,3.9c1.9-4.6,6.6-2.8,7.6-6.2
			c-0.9-3.8-7,0.5-5.5-2.1c3.7-6.4-2.6-5.3-4.2-6c-5-2.1-10.6-2.8-15.8-4.5c-3.9-1.3-8.8-0.4-11.4-4.8c5.4,1.7,10.8,3,17.8,2.9
			c-3.7-3.2-7.1-5.3-7-9.8c2.2-0.3,4.5-0.7,6.8-1c-5.5-0.7-7.6-8-14.2-5.7c1.5-3,7.9-5,0.8-7.4c-0.2-0.1-3-2.9,0.1-5.2
			c2.3-1.7-4.6-3.7-1.1-6.7c-1.6-1.1-2.5,0.6-3.7,1c-9.4,3.7-19,6.2-29,7.1c-5.8,0.5-12.9-2.9-16.9,4.6c-0.3,0.5-3,0.7-3.2,0.2
			c-2.7-4.6-7.4-2.9-10.7-2.6c-10.2,0.9-13.7-9.3-22-11.6c9.9-1.3,19.1-6.1,29-0.5c4,2.3,9.6-0.5,14.4-1.9c0.9-0.3,2.1-0.4,2.1-2.1
			c0-3.5,0.1-3.4,1.6-3.8c10-2.5,18-8,27.2-16.6c-11.6-0.3-20.8,0.4-30,1.8c-1.4,0.3-3.9,0.6-3.9,1c-0.7,13.3-10.9,8.9-18,9.5
			c-3.4,0.3-3.1-0.5-3.8-2.6c-1-3-0.3-4.4,2.6-5c7.6-1.4,15.2-3.4,23.1-2.9c1.2-6.1-3.8-9.5-7.4-11.4c-5.3-2.7-12.4-0.4-18.2-4.6
			c1.5-1.1,2.9-2,4.4-3.1c-3.2-2.2-6.5,0.7-8.8-2c7.1-3.7,14.1-7.4,21.6-11.3c-0.8,2.6-5.2,3.2-3.4,4.4c1.8,1.2,3.1,4.4,6.7,3.5
			c4.4-1.1,9.2-1.1,14.4-1.6c-2.1,3.2-5.7,2.2-6.8,5.1c19.3-1.2,26-4.4,39.5-16.4c4.9-4.3,6.3-9.3,7.8-15.2c1.2-4.7-2.7-4-3.2-3.5
			c-4.5,4.4-12.2,4.9-14.7,11.7c-0.9,2.3-3.1,4.4-4.9,4c-8-1.5-15.6,1.9-23.5,1.8c1.4-7.6,6.7-10.8,13.2-13.1
			c5.9-2.1,10.6-6,11-12.6c0.2-2.6,2.8-6.3-1.3-8.5c-2.8-1.5-5.3-0.3-8.2,0.4c-9.1,2.4-14.4,10.3-22.1,14.7
			c-20.5,11.8-40,25.6-62.3,33.7C1126.1,949.1,1116.2,961.5,1102,967z M1182.9,845.1c4.5,10.4,3.1,18.6,0,26.7
			C1182.9,863.7,1182.9,855.5,1182.9,845.1z M1090.4,855.1c5.5-2.5,11.1-4.5,17.5-7c0.2,16.7,6.2,31.2,14.5,44.9
			c1.8,3,3.2,8.2,7.6,7.1c3.3-0.8,3.2-5.6,3.8-9c1.5-8.2,1.4-17,9-23.8c-6.4,1.8-7.8-1.3-8.2-6c-0.2-2.6-1.7-5-1.8-7.6
			c-0.2-4-8.7-15.3,6.1-7.5c0.7,0.4,3-0.5,3-0.9c0.4-11.6,8.4-4.6,12.7-4.7c4-0.1,8,2.1,12,3.5c10.8,3.9,14.4,9.8,10.6,22.3
			c-6,19.7-17,36.1-36.5,45.3c-1.7,0.8-3.8,1.3-5,2.6c-8.6,8.6-18.4,6.7-27.3,2c-15.6-8.3-25-22.2-30-38.8
			C1075.5,868.7,1081.1,859.3,1090.4,855.1z M1069.9,980.7c-2.9,3.4-3.8,8.5-9.4,11.1c1.7-4.8,3-8.7,4.5-12.7c0.7-1.8,1.2-4.5,4-2.9
			C1070.5,977,1071.3,979.2,1069.9,980.7z M1077.2,941.4c-5.5-4.7-5.8-10.4-7.4-15.5c-0.9-2.9,1.4-5.4,4-5.4c2.5,0,2.6,3.2,1.7,4.8
			C1072.4,930.9,1078.9,935.4,1077.2,941.4z M1071.7,889.6c7.2,13.3,15.8,22.9,26.8,31C1081.3,919.2,1069,906,1071.7,889.6z
			 M1129.1,992.9c-4.2,0.8-7.4-2.5-11.4-2.4c3.7-0.8,7.4-0.8,10.9-2.6c2.5-1.3,4,0.9,4.3,2.8
			C1133.2,993.4,1130.6,992.6,1129.1,992.9z M1167.7,961.5c4.7-1.2,7,0.4,7.5,5.2c-8.5,0.1-16.8,3-26,0.9
			C1154.7,962.8,1161.5,963,1167.7,961.5z"/>
		<path class="st0" d="M1330.4,943.7c-2.1-3.5-7.2-4.2-7.5-9.6c-0.1-1.7-9.7,1.2-11.1-8.1c-0.7-4.9-10.8-7.4-15.8-12.7
			c-2.4-2.5-6-6.1-10.9-7.2c3.4-3.2,7.3-1,10.2-3c-6.3-4-12.2-8.5-19.5-10.7c1.8-0.4,3.5-0.8,5.3-1.2c-5.3-0.2-5.4-7.3-5.3-7.5
			c5.3-7.7-1.3-4.8-4.4-5.1c-1-0.1-2-0.8-2.8-1.2c-0.4-2,10.5-2.6,0.4-5.5c-2.2-0.6-3.5-4-5.6-5.6c-5.2-3.8-7.3-10.8-16.6-10.7
			c-7.4,0-16.3-1.3-24.1-5.4c3.3-2.5,8-0.4,10-4.7c-4.3,0.7-5.5-1.6-6.3-5c-0.3-1.4,3.6-4.2-1.1-4.2c-3.9,0-10.1-3.6-11,1.8
			c-0.9,5.3-5.3,4.7-7.7,7.7c2.7,1.2,4.9,2.1,7.5,3.3c-4.9,2.6-10.2-1.9-14.8,2c4.3,4.6,6.8,10,11.8,13.5c10.5,7.6,25,5.3,34.9,14.4
			c1,1,4.4-0.5,5.3,1.8c1.1,3-3.7,2.4-3.9,5.4c4.3-0.8,8.4-2.5,13-1.5c-1.9,3.1-6.4,1.7-7.8,5.1c4.8,3.2,8.9,6.5,3.3,12.5
			c-1.8,2,4.8,3.4,0.8,6c1.1,1,2.4,0.5,3-0.2c6.4-7.1,8.1,1.6,8,3.6c-0.6,7.7,4.8,8.8,9.7,10.8c1.9,0.8,3.7,1.4,5.1,3.3
			c-4.8,0.7-8.7-3.5-13.9-2c4.9,4.3,12.4,3.4,16,9.3c-1.8,0.5-3.3,0.9-5.2,1.4c5.8,1.4,11.6,1.9,17.1,6.1c-5.2,1.7-9.8-2.9-13.7,1
			c10.2,5.2,20.7,7.5,32,4.8c1.4-0.3,2.9,0.1,2.3,2.2C1320.3,944.2,1326.1,946.9,1330.4,943.7z"/>
		<path class="st0" d="M1068,742.5c-4.4,10.3-2.1,20.4,0.2,31.1c0.6-1.7,1.5-3,1.3-4.1c-0.1-0.7,1.3-0.8,0.5,0.7
			c3.9,4.5-3.5,11.4,3.9,16.8c2.6,1.9,1.6,10.1,1,14.8c-0.7,5.6,5.3,10.2,0.7,16.2c-2,2.7,3.7,0.3,4.6,2.8c-2.7,4.2-6,8.3-6.9,13.6
			c3.5-0.8,3.1-6.5,7.8-5.4c6.8,1.7,8.1-3,10.1-8.1c3.4-9,6.8-18,7.6-27.6c0.5-5.5,6.3-9.9,5.7-14c-2-13.8-3-13.8,0.4-23.9
			c1.2-3.5-0.9-4.9-2.4-6.7c-5-6.2-10.3-12.3-15.3-18.2c-3.9,7.3-5.3,16-11.8,25.4c3.3-13.1,9.5-23.9-0.6-33.2
			c0.2,4.9-1.2,7.3-7.8,4.7c-1.4-0.5,1.7,8.9-3.6,11.7c-3.1-5,1.3-10.1-0.7-16.5c-3.2,9.2-4,16.8-0.9,25.4
			C1064.3,745.9,1066.1,744.2,1068,742.5z"/>
		<path class="st0" d="M1303.7,773.5c-1.2-0.5-1.7-2-2.1-3.5c-1.7-7.7-3.4-15.5-5.8-23c-1.9-5.8-5-10.7-1.5-17.4
			c2.2-4.3-1.9-2-3.7-1.4c0.5-1.6,1.3-3.2,0.3-4.9c-8.9,4.5-19.1,7.1-24.6,17.8c6.6-0.8,10.7-5.6,16.2-6.8c-2.1,3.6-5.8,5.4-8.8,8
			c-1.1,0.9-3.7,2.5-2.2,3.9c6.7,6.3,0,8.4-3.2,11.8c-1.4,1.5-4.4,2.2-3.6,4.7c1.9,2.7,5,0.7,7,2.5c-2.6,3.7-8.2,3-9.3,8.4
			c4.8,0.2,8.8,4.7,14.5,0.8c-3.1,3.5-2.9,6.5,0.7,7.6c7.6,2.3,15.2,4.4,22.5,7.5c2.6,1.1,3.8-1.1,3.5-3.4c-0.3-2.1-1-3.9,0.9-5.6
			C1307.1,777.9,1308.6,775.5,1303.7,773.5z"/>
		<path class="st0" d="M1252.1,1067.6c1.7,1.1,3.2,2.2,4.8,3.2c-6.6-1.9-12.2-0.5-17.8,3.8c11.9,7.9,25,11.3,39.3,11.8
			c-1.7-4.2-6.1-4.4-10.1-8.1c6.1,1.5,10.5,0.7,12.9-2.7c1.7-2.4,1-3,4.3-0.5C1281.1,1066,1260.8,1061.3,1252.1,1067.6z"/>
		<path class="st0" d="M1055.2,640.2c0-0.1,0-0.2,0-0.3c-0.1,0-0.2,0.1-0.3,0.1C1054.9,639.9,1055.2,640.2,1055.2,640.2z"/>
		<path class="st0" d="M1071.1,645.5c1.2-0.3,3.8,2.3,6.1,0.7c2.9-2,1.3-4.9,0.7-7.2c-2.1-8.9-2.7-18.9-14.1-22.4c0,2.9,0,5.9,0,8.7
			c-3.6,1.4-4.7-4.2-8.4-1.9c1.3,1.8,2.5,3.6,4.8,6.8c-5.3-2.6-8.3-6.4-12.5-6.4c-0.4,7,8,9.4,7.5,16.2
			C1061.8,637.4,1064.2,647.4,1071.1,645.5z"/>
		<path class="st0" d="M1300.7,666.8c2.4,1.8,4.4-1.9,6-3.7c3.6-4.5,6.7-9.4,12.7-13.7c-1.9,7.8-6,12.4-10.4,16.9
			c-4.8,4.9-4.7,5.7,0.2,10.1c0.6,0.5,1.7,0.8,1.2,1.7c-2.9,5.9,3.6,10.4,2.5,16.2c5-16.5,10.5-32.8,9.6-52.3
			c-7.5,6.9-15.1,10.7-20.4,17.3C1300.4,661.4,1297.7,664.6,1300.7,666.8z"/>
		<path class="st0" d="M1133.8,712.5c-16.9,5.4-14.1,17.4-9.3,30.1c1.8-2.6,3.1-6.8,7.2-6c3.1,0.6-1.5,4.3,1.3,5.7
			c12-13.8,12.9-17.8,5.1-26.2c-0.5,3.4-1,6.4-1.8,11.8C1134.6,721,1136.1,715.8,1133.8,712.5z"/>
		<path class="st0" d="M1126.9,1053.2c-2.7-1.4-5.8,0.2-7.7,2.6c-1.7,2.1-0.5,4.1,0.5,6.4c2.3,5.5,4.6,6,10.7,3.9
			c11.9-4.3,24.7-5.4,37.6-7.8c-1.7-0.2-3.5,0-5.1-0.5C1151,1054.1,1138.3,1059,1126.9,1053.2z"/>
		<path class="st0" d="M890.5,1171.9c-3-0.8-5.8,3.2-7.5,6.2c-1.5,2.8-2.8,5.6-6.1,6.8c3.2-6.3,6.4-12.5,10.3-20.1
			c-7.5,3.7-9,11.2-14.9,14.8c-1-6.1,4.6-9.7,5.6-17.7c-9.1,13.5-21.4,21.3-28,35.4c6.6-0.9,7.6-6.8,11.6-8c7-1.9,4.4,5.6,7.5,8.3
			c2.3-2.4,4.7-4.9,7-7.3c1-1,1.2-2.1,1.2-3.2c0,1.2-0.2,2.3-1.2,3.2c-1.6,2.9-1.6,6.4,1.7,7c2.5,0.4,7.5,1.4,8.3-1.6
			c2.5-9.1,9.5-6.4,15.3-7c-1.4-3-2.5-6.1-4.2-8.8C895.3,1176.8,893.2,1172.6,890.5,1171.9z"/>
		<path class="st0" d="M901.7,1188.5c-0.1,0-0.2,0-0.4,0c0,0.1,0.1,0.1,0.1,0.2c0.1,0,0.1-0.1,0.2-0.1S901.7,1188.6,901.7,1188.5
			L901.7,1188.5z"/>
		<path class="st0" d="M1134.8,759.5c3.3-0.1,5-3,7.6-0.6c-2.2,3.1-4.4,6.2-7.9,11.2c6.1-3.2,10.1-5.4,14.1-7.5
			c0.7-0.4,1.5-0.8,2.2-1.2l0,0l0,0c-0.7,0.4-1.5,0.8-2.2,1.2c-5.3,10.4-16.7,15.3-23,25.3c4.7,0.2,8-4.1,12.6-3
			c-1.5,3.8-4.7,6.1-7.9,7.9c-5.7,3.2,3.8,5.2,0.6,8.4c-0.4,0.4,2.8,0.8,4.7,0.7c10.7-0.3,17-7.8,26.7-15.2
			c-7.7,2.3-8.9-2.4-6.8-4.1c9.8-7.9-1.8-14.5-0.9-21.7c0.1-0.9-2.1-1.5-3.4-0.2c5.9-8.2,1.5-16-0.9-24.9
			C1144.2,743.7,1142,752.7,1134.8,759.5z"/>
		<path class="st0" d="M1236.5,1092.1c-6.6-4.5-14.2-3.8-21.6-4.5c-2.8-0.3-7.1-1-7.8,1.6c-1,3.9,3.8,3.9,6.3,5.4
			c1.3,0.8,3.3,0.8,3.8,2.7c5,0.7,10.2,0.7,14.3,4.1c4.9,4.1,5.6-2.2,7.5-3.7C1242,1095.5,1238.7,1093.6,1236.5,1092.1z"/>
		<path class="st0" d="M1125.8,706.1c1.9-7.3,1.4-13.5-3-19.4c3.2-0.5,4.9,4,7.3,0.9c2-2.5-1.1-4.3-2-5.7c-2.6-3.8-2.2-8.6-4.9-13.6
			c-0.7,4.8-1.2,8.4-1.7,12c-3.3-0.2-2.4-5.3-6.8-4c1.2,5.3,2.4,10.8,3.7,16.2C1125.3,694.3,1120.7,702.6,1125.8,706.1z"/>
		<path class="st0" d="M1118.6,692.9c0-0.1,0-0.1,0-0.2c-0.1,0-0.2,0-0.2-0.1c0,0.1,0,0.1,0,0.2
			C1118.3,692.8,1118.4,692.8,1118.6,692.9C1118.5,692.9,1118.6,692.9,1118.6,692.9z"/>
		<path class="st0" d="M1091.6,1065.1c1.4,3.7,5.4,5,8.9,6.4c1.8,0.7,4.7,1.6,5-1.3c0.7-5.7,5.2-3.7,8.8-4.7
			c-6.3,0.2-0.5-6.3-4.8-7.3c-4.9-1.2-9.9-2.3-14,1.4C1093.9,1061,1090.6,1062.6,1091.6,1065.1z"/>
		<path class="st0" d="M1111.9,1085.8L1111.9,1085.8L1111.9,1085.8c-3.4,0.6-6.6,2.3-10.2,0.2c-2.6-1.6-5.7,0.6-6.7,2.3
			c-1,1.6,1.6,3.7,3.3,5.3c5.7,5.3,12.5,3.9,20.7,4c-3.2-2.7-5.1-4.7-7.4-6.3C1108.5,1089.1,1110.4,1087.6,1111.9,1085.8
			C1112,1085.8,1112,1085.8,1111.9,1085.8C1112,1085.8,1112,1085.8,1111.9,1085.8L1111.9,1085.8z"/>
		<path class="st0" d="M1112,1085.8c4.3,7.6,12.4,8.7,19.6,9.7c3.6,0.5-3.3-2.2-0.5-4.1c9.2,1.1,18.5,2.3,27.9,3.4
			c-8.9-2.8-17.3-6.5-27-6.9C1125.5,1087.8,1118.5,1087.9,1112,1085.8z"/>
		<path class="st0" d="M1096.3,693c3.2,1.1,4.2-3.7,3.6-7c-0.9-5.5-2.1-11-3.4-18.1c-2,5.2-0.5,9.5-3,12.7c-5.4-2.3-1.7-8-5.5-12.6
			c0,7.1,0.1,12.8,0,18.4C1088,692,1093.8,692.1,1096.3,693z"/>
		<path class="st0" d="M1118.9,699.3c-1.3-2.2-0.8-4.3-0.7-6.5c-1.9-0.4-2.4-3.2-4.9-2.8c-0.8,8.1-2.3,16.3,3.4,22.7
			C1122.4,708.8,1121.8,704.1,1118.9,699.3z"/>
		<path class="st0" d="M1217.2,1097.6C1217.2,1097.5,1217.2,1097.5,1217.2,1097.6C1217.2,1097.5,1217.2,1097.5,1217.2,1097.6
			c0.1-0.1,0-0.2,0-0.2h-0.1C1217.1,1097.4,1217.1,1097.5,1217.2,1097.6z"/>
		<path class="st0" d="M1209.1,1095.9c-8.8-3.6-17.6-7.2-27.5-6.1c15.3,2,27.9,12.6,44,13.2c-2.7-2.4-6.8-2.1-8.5-5.4
			C1214.1,1098.7,1211.8,1097,1209.1,1095.9z"/>
		<path class="st0" d="M1038.2,833.8c-3.7-2.8,0-7.3-3.6-11.5c-1.5,10.8,0.3,20.3,1.8,29.8c0.2-9,9.2-16.7,3.6-26.4
			C1038.3,828.1,1040.6,831.4,1038.2,833.8z"/>
		<path class="st0" d="M1232.5,1084.5c8.7,6.5,18.7,9.4,31.7,11.6C1253.7,1087.1,1243.7,1084.1,1232.5,1084.5z"/>
		<path class="st0" d="M1189.9,1114.5c6.3,6.4,17.1,0.5,22.8,8.8c-2.3-3.6-5-6.4-7.6-9.3c-1-1.1-0.7-2.2,0.9-2.2
			c0.4,0,0.8,0.5,1.3,0.9C1203.9,1108.8,1195,1109.7,1189.9,1114.5z"/>
		<path class="st0" d="M1207.2,1112.6c0.1,0.2,0.3,0.3,0.4,0.5v-0.1C1207.5,1112.9,1207.3,1112.8,1207.2,1112.6z"/>
		<path class="st0" d="M912.9,1191.6c-4.4,1.2-6.5-6.2-11.2-3c-2.1,3-7.6,5.5-3.9,9.7c3,3.5,7.5,0.3,11.1-1.3
			c1.3-0.5,2.4-1.6,3.4-2.5C913.1,1193.7,913.3,1191.5,912.9,1191.6z"/>
		<path class="st0" d="M1279.8,811.4c-1-0.9-1.4-4.4-3.4-2c-4.5,5.3-12.1,4.7-16.5,10.4c6.2-1.9,13.1,1.7,18.9-2.7
			C1281,815.4,1282.3,813.6,1279.8,811.4z"/>
		<path class="st0" d="M1305,1021.8c-8.9,1.2-17.3-4.6-24.7,4.8C1289,1026.5,1297.1,1030.9,1305,1021.8z"/>
		<path class="st0" d="M1106.5,701.9c-0.3,10.8-5.6,19.8-3.8,30.7C1107.3,727.7,1110,707.9,1106.5,701.9z"/>
		<path class="st0" d="M1252.2,803.5c8.3,0.5,15.9-1.8,24.1-4.8C1260.9,794.1,1259.6,794.4,1252.2,803.5z"/>
		<path class="st0" d="M1212.6,811.9c2.6-0.6,7.4-3,7.1-3.2c-6.7-4.7,2.2-4.5,2.1-7c0-0.6,1.2-1.2,1.8-1.8c-0.6-1.9-2.2-2.9-3.8-1.9
			c-3.5,2.4-9.2,3-8.3,9.7C1211.8,809.3,1212,812.1,1212.6,811.9z"/>
		<path class="st0" d="M922.6,1161.2c-1-0.1-1.3,2.2-0.9,3.8c0.5,2.1,1.4,1.9,3.5,2.1c7.8,0.8,9.5-4.1,11.2-10.1
			C930.7,1155.8,927.7,1161.7,922.6,1161.2z"/>
		<path class="st0" d="M1089.4,1184.1c1.4,6.5,4.4,11.6,11.2,13.2C1105.7,1185.2,1093.1,1188.5,1089.4,1184.1z"/>
		<path class="st0" d="M1100.7,1197.4L1100.7,1197.4c-0.1,0.1-0.2,0.2-0.2,0.2L1100.7,1197.4z"/>
		<path class="st0" d="M1077.6,695.8c2.5-0.4,2.8,2.5,4.4,3.1c4.2-4.9-4-8.9-0.7-13.7h-0.1c1-1,3.2,2.1,2.9-0.3
			c-1-8.3-2.6-16.5-4.2-24.8c-0.6-3-3.4-4.2-6.2-6c0.4,2.5,0.7,4.3,1.1,6.8c-2.4-1.4-4.3-2.6-6.2-3.7c1.1,2,1.8,4.5,3.4,5.9
			c7.1,5.8,8.7,13.7,9.1,22.1c-6.1,0-5.3-7.9-11.7-10.1C1071.8,683.1,1080.1,687.6,1077.6,695.8z"/>
		<path class="st0" d="M1201.1,1105.7c9.9,2.1,18.3,3.9,26.8,5.7C1220.4,1104.5,1211.9,1103.2,1201.1,1105.7z"/>
		<path class="st0" d="M1208.4,820.7c7,3,13.1,4.9,18.4-2.5C1219.8,815.5,1214.4,818,1208.4,820.7z"/>
		<path class="st0" d="M1127.3,650c-0.2,4.7,2.8,4.5,5.6,3.2c3.3-1.6,4.4-5.7,2.7-7.8c-1.5-1.9-5.3,0-7.9,1.2
			c0.6-2.5,0.9-5.1,1.8-7.5c0.5-1.4,3-2.6,0.2-3.9c-1.8-0.8-2.3,1.2-2.8,2.4c-2.4,7.1-4.8,14.2-7.7,22.9
			C1123.8,656.8,1122,650.8,1127.3,650z"/>
		<path class="st0" d="M827.9,1212c4.1-5.2,14.8-2.5,16.3-13.6C837.1,1202.4,832.2,1206.7,827.9,1212z"/>
		<path class="st0" d="M1059.2,1035.8c-2.1,0.3-4.3,1.6-5.9,3c-1.9,1.6-3.3,3.8-5.6,6.7c3.7-0.3,6-0.3,8.3-0.8
			c2.7-0.6,4.7-2.2,4.5-5.4C1060.4,1038,1060.5,1035.6,1059.2,1035.8z"/>
		<path class="st0" d="M1130.3,593.3c-2.3,2.4-3.3,5.7-5.2,8.4c-2.4,3.3-5.3,7.7-0.9,12C1126.1,606.8,1133.4,601.6,1130.3,593.3z"/>
		<path class="st0" d="M1280.6,843.3c7.5,2.2,14.9,2.1,23.9-1.4C1295.2,840.4,1287.9,841.1,1280.6,843.3z"/>
		<path class="st0" d="M1103.9,1049.7c1-1,4.1-1.2,2.3-3.4c-3.5-4.3-7.5-1.5-12.4,0.2C1097.8,1048,1098.8,1054.5,1103.9,1049.7z"/>
		<path class="st0" d="M725.5,1069.1c0.1,0,0.2-0.1,0.3-0.1c-0.1,0-0.3,0-0.4,0C725.4,1068.9,725.5,1069.1,725.5,1069.1z"/>
		<path class="st0" d="M725.8,1069c8.7,1,17-1.1,25.5-2.3C742.6,1065.7,734.1,1065.9,725.8,1069z"/>
		<path class="st0" d="M1207.8,1113.1c5.8,1.4,9.4,9.1,18.2,6.3C1219.5,1115.7,1215.4,1109.6,1207.8,1113.1z"/>
		<path class="st0" d="M1207.6,1113.2c0.1,0,0.1-0.1,0.2-0.1L1207.6,1113.2C1207.6,1113.1,1207.6,1113.2,1207.6,1113.2z"/>
		<path class="st0" d="M1141.2,805.3c-4.9,2.1-11,2.2-14.7,8.6c5.9-1.2,9.7-5.6,15.3-5c1.2,0.1,3.1-0.8,2.7-2.6
			C1144.2,804.4,1142.8,804.6,1141.2,805.3z"/>
		<path class="st0" d="M1145.4,701.3c2.9-3.3,6.9-6.5,3.1-12.5c-3.2,3.5-7,5.9-6.2,10.9C1142.4,700.4,1145.2,701.6,1145.4,701.3z"/>
		<path class="st0" d="M1100.2,1097.3c-5.4-2.1-10.8-4.3-16.2-6.4c4.2,5,9,8.7,15.5,8.7C1099.7,1098.8,1099.9,1098,1100.2,1097.3z"
			/>
		<path class="st0" d="M1491.4,996c6.9,0.5,9.8-3,10.5-8.8c0.7-6,0.6-12.2,0.9-18.2c0.3-5.7-2.6-8.7-8.1-9.2
			c-5.4-0.5-9.2,1.5-10.2,7.1c-0.7,4-0.8,8-1,9.6c0,4.8-0.1,7.1,0,9.4C1483.8,991,1484.5,995.5,1491.4,996z M1495.2,969.1
			c0.3,5.9,1.4,11.9-1.6,17.4C1492.2,980.6,1492.2,974.7,1495.2,969.1z"/>
		<path class="st0" d="M512.8,982.9c5.2-0.1,7.1-3.1,7.1-7.8c0-2.6,0-5.2,0-7.8c0.1,0,0.2,0,0.2,0c-0.3-4-0.3-8.1-1-12.1
			c-1-5.4-4-9.1-10.1-8.2c-5.7,0.8-8.6,4.3-8.6,10.1c0.1,6.7,0.6,13.2,1.8,19.8C503.5,983.5,508.2,983,512.8,982.9z M506.3,955.1
			c3,4.6,2,9.4,6,12.1c0.6,0.4,0.1,2.7,0.1,4.1c-1.4-1.4-5.1,3.1-5.2-2.3C507.1,964.9,505.4,960.7,506.3,955.1z"/>
		<path class="st0" d="M560,1145.4c-6.2,7-0.7,10.4,3.7,16C563.4,1154.8,562.6,1150.2,560,1145.4z"/>
		<path class="st0" d="M801.9,624.6c4,4,5.2,1.6,7.3-0.3c2.4-2.1,4.5-4.6,8.3-8.6c-1.5,5.9-4.6,7.9-6.9,10.1
			c-5.4,5.3-5.2,10.1,0.7,14.3c8.7,6.2,14.9,15.8,26,19.7c-0.9-2.5-1.7-4.8-2.8-7.8c5.5,2.5,5,9.4,10.6,10.8
			c0.1-1.5,0.1-2.9,0.5-4.2c0.5-1.6-0.7-5.2,2.6-4.2s0,3.3,0.1,4.7c0.3,4.8,0.6,10,4.5,13.6c1,0.9,1.2,3.9,3.6,2.3
			c1.7-1.1,1.4-2.9,0.8-4.7c-7-23.7-13.8-47.4-36.3-62c-0.1-9.4-10.2-16.5-21.2-14.5c8,3.3,14.9,7.2,19.1,14.5
			c-5-2.9-9.8,2.2-16.3-0.2c10.6,6.5,2.1,8-1.2,9.6c-5.2,2.4-11,3.4-17.1,8.2C791.3,624.8,798.2,620.9,801.9,624.6z"/>
		<path class="st0" d="M760.1,638.7c-21.4,3-43.1,3.6-66.2,3.5C717.8,657.1,738.8,646.3,760.1,638.7z"/>
		<path class="st0" d="M807.5,658c-1.8-1.5-4.6-3.8-3.7-5.5c3.3-6.3-1.8-8.5-5.2-8.9c-5.6-0.5-0.8,5.6-3.4,7.7
			c-4.3-1.1-5.3-6.9-10.6-8.1c1.6,4.2,5.8,5.4,6.3,9.2c-3.2,2.2-5.5-0.6-8.2-1.6c1.6,5.4,14.8,18.1,16.7,16.1
			c5.6-5.6,8,0.6,11.8,1.8C812.5,664.3,810.9,660.9,807.5,658z"/>
		<path class="st0" d="M681.2,706c-0.4,1.5,0.4,2.3,1.3,2.8c8.3,4.8,17.1,7.8,27,7.8c-0.8-5-4.8-4.6-7.9-8.6c3.8,1.3,6,1.9,8,2.7
			s4.1-0.4,4.6-1.3c1.1-2.1-1.8-4-2.7-4.1c-5.5-0.8-8.7-5.4-13.5-7.3C693.7,696.3,682.4,701.6,681.2,706z"/>
		<path class="st0" d="M693,613.6l-0.2,0.2c0.2,0,0.3,0,0.5,0C693.2,613.7,693.1,613.6,693,613.6z"/>
		<path class="st0" d="M745.3,621.5c-9.9-2.5-18.2,0.5-26.8-4.3c10.5,2.1,19.5,3.4,28.4-0.3c-6,0-11.9-0.4-17.8-0.9
			c-11.9-1-23.7-3-35.8-2.3C708.8,623.1,725,628.2,745.3,621.5z"/>
		<path class="st0" d="M715.5,631.9c-12.8-1.4-24.9-7.4-38.2-6.2C689.7,629.9,701.7,636.4,715.5,631.9z"/>
		<path class="st0" d="M791.5,578.1c1,2.6,4.1,4.4,6.3,6.5c1.1,1.1,2.5,1.6,3.9,1c1.1-0.5,1.3-1.7,1-2.9c-1.1-4.9-11.7-11-18-10
			C785.9,576.5,790.2,574.6,791.5,578.1z"/>
		<path class="st0" d="M773.6,655.1c-8.1-7.5-14.7-7.5-24.1,0C758.2,655.1,765.7,655.1,773.6,655.1z"/>
		<path class="st0" d="M797.6,629.1c-0.2-0.5-1.8-1.2-2.1-0.9c-7.5,4.8-17.2,4.5-26.2,11.5c10.6-1.8,18.4-3.7,25.8-6.8
			C796.4,632.2,798.5,631.3,797.6,629.1z"/>
		<path class="st0" d="M818.3,592.5c-4-7.1-8.9-13.5-16.2-17.7C804.4,583.3,813.8,585.7,818.3,592.5z"/>
		<path class="st0" d="M888.2,696.3c0.4-8.2,0.3-16.3-2.3-24.2C881.5,680.7,888.7,688,888.2,696.3z"/>
		<path class="st0" d="M1404.2,1127.8c-16.1,25.9-31.8,52.1-53.4,74.1C1374.9,1181.8,1391.4,1156.1,1404.2,1127.8z"/>
		<path class="st0" d="M647.1,1191.8c-19.2-20.9-34-44.8-48-69.3C610.7,1148.7,625.9,1172.3,647.1,1191.8z"/>
		<path class="st0" d="M893,1311.8c19.4,5.9,39.8,7.8,60.4,8.6C933.5,1316.7,913.3,1315.2,893,1311.8z"/>
		<path class="st0" d="M1067.8,1320.1c-18.7,1.2-37.4,2.5-56.1,3.7C1030.6,1325.3,1049.3,1323.3,1067.8,1320.1z"/>
		<path class="st0" d="M801.5,1288.4c0.1-0.4,0.3-0.8,0.4-1.2c-9.5-3.7-19-7.3-28.4-11c-0.2,0.5-0.4,0.9-0.5,1.4
			c5.5,2.3,11,4.7,16.5,6.9C793.4,1286,797.5,1287.1,801.5,1288.4z"/>
		<path class="st0" d="M930,1412.9c-56.4,1.1-108-18.2-159.5-37.6c58.5,30.8,121.1,43.2,186.7,42.5c-8.5-5.7-18.6-1.6-27.5-5
			L930,1412.9z"/>
		<path class="st0" d="M954.3,1412.8c-14.9-5.5-30.3-4-47.5-5.3c8.4,5.3,16.6,1.8,23.2,5.4l-0.3-0.2
			C937.9,1412.8,946.1,1412.8,954.3,1412.8z"/>
		<path class="st0" d="M794.7,821.2c15.1-1,30.2-4.1,45.4-0.2C825,814.6,809.9,815.1,794.7,821.2z"/>
		<path class="st0" d="M918.5,851.3c-0.7-10.3-4.4-17.2-10.3-25.9C907.3,837.1,913,843.2,918.5,851.3z"/>
		<path class="st0" d="M835.1,807.1c-10.8-1.5-20.9-7.7-32.1-5.7C813.7,803.5,823.9,808.5,835.1,807.1z"/>
		<path class="st0" d="M713.4,1313.1c-5.2-10.2-14.5-15.9-24.2-20.9C695.6,1300.9,700.5,1311.6,713.4,1313.1z"/>
		<path class="st0" d="M629,476.7c2.1-2.4-1.1-2.3-2.3-3c-0.1,6.5-6.3,8.3-9.5,12.4c-1.9,2.5-4.4,4.5-6.6,6.7c-1-0.2-2-0.4-2.9-0.6
			c-6.9,3.6-8.8,11.3-12.9,17.1c-0.8,1.1,1.7,0.5,2.8,0.2c4.2-3.7,8.4-7.4,12.6-11.2c0.8-1.3,1.5-2.6,2.3-4
			C618,488.4,623.7,482.7,629,476.7z"/>
		<path class="st0" d="M593.5,516.2c4.4-2.7,8.3-5.8,11.7-9.4c2.2-2.4,7.4-3.4,5-8.6c-4.2,3.7-8.4,7.4-12.6,11.2
			C596.2,511.6,594.8,513.9,593.5,516.2z"/>
		<path class="st0" d="M603.5,489.3c5.4-5.3,10.7-10.7,16.1-16C612.6,477,607,482.2,603.5,489.3z"/>
		<path class="st0" d="M1380,489.4c3.3,7.9,6.4,13.8,13.6,15.9c1.5,4.8,5.8,5.1,10.5,6.3c-2.2-2.7-3.9-4.8-5.6-6.8
			c3.6,0.5,4.4-0.3,1.6-3.1c-7.3-7.3-14.6-14.7-21.9-22.1c-1.1-0.5-2.3-0.9-3.4-1.4c5.1,5.7,10.2,11.5,15.2,17.2
			C1386.5,495,1384.4,491.4,1380,489.4z"/>
		<path class="st0" d="M638.8,1339.2c8.1,10.6,14.6,22.7,25,31.4c0.7-0.6,1.4-1.1,2.1-1.7c-8.5-10.4-17-20.9-25.5-31.3
			C639.8,1338.1,639.3,1338.6,638.8,1339.2z"/>
		<path class="st0" d="M636.8,1346.7c-6.8-11.5-12.2-23.4-18-35.2C621.7,1324.9,626.7,1337.3,636.8,1346.7z"/>
		<path class="st0" d="M474.1,943.2c-5.4-0.8-10.8-1.7-16.2-2.5c2.6-5.2,10.3-1.9,13.4-8.4c-10.8-2.7-20.6,2-30.8,1.9
			c4.4,2.6,10.6-0.6,13.8,5c-4.1,3-10.2,0.2-14.6,4.7c12,0,23.2,0,34.4,0C474.1,943.6,474.1,943.4,474.1,943.2z"/>
	</g>
</g>
</svg>
