<?xml version="1.0" encoding="UTF-8"?>
<svg xmlns="http://www.w3.org/2000/svg" version="1.1" viewBox="0 0 1000 1000">
  <defs>
    <style>
      .cls-1 {
        fill: #131939;
      }

      .cls-1, .cls-2 {
        stroke-width: 0px;
      }

      .cls-2 {
        fill: #dad9d9;
      }
    </style>
  </defs>
  <g id="Layer_3" data-name="Layer 3">
    <g id="Layer_3-2" data-name="Layer 3">
      <path class="cls-2" d="M9.1,875.2l4.6-5.6-5.9-25.1,5.9-24.7,18.2-23.4v-16.3l6.3-12.4,14.9-9.8,5.8-31.6,8.1-16.7,19-12,16.3-10.6,11.3-14.5,37.5-21.6,32.4-20.6,5.3-1.3-1.9-18.7-6.2-2.6,2-6.2-21.2-55.4-3.7-5.8-14.4,1.6-12-16.9-4.4-23.5-5.6-29.9,4.7-15.6,4.2-14.3h20.6l11.3-22-14.3-17.7-1.7-30-10-6.2v-50.6l12.2-6.2,18,2.5,12.2-37.5,22.9-48.9,20.3-43.4,7.5-43.3,15.3-13.7,27.9-14.9,26.3-9.8h17.2l36.7-26.6,51.5-23.1,73.8-13.8,50.6,1.7,51.9,6.9,53.4,22.4,38.1,19.4,20.4,17.1,18.6-1.9,15.1,5.5,43,22.9,13.8,46.3,13.9,39.6,18.6,43.6,20.3,39.6,5.9,31.6,2.1,7.5,13-2,7.7,5v16.7l2.3,24.2,3.2,12.8s-3,3.8-4.3,5.1-3.3,13-3.3,13l-.8,13-14.2,2.2v56.5l-7.4,52.4-13.9,39.2-24.3,39.9,18.7,8,19.3,10.6,19.7,8.5,22.3,23.8,23.5,23.8,16.4,15.4,27.9,45.9,19.4,19.9,12.7,26.8,2.6,9.1,4.3,12,7.2,32.5-30.8,20.2-29.2,26.2s-240,94.2-572.7,63.7c-104.8-9.6-219.8-27.8-337.4-72.8"/>
    </g>
  </g>
  <g id="Layer_2" data-name="Layer 2">
    <g id="Layer_1" data-name="Layer 1">
      <g id="Layer_1-2" data-name="Layer 1-2">
        <g>
          <path class="cls-1" d="M851,737.2c-.4-.3-.9-.7-1.5-1,.6.4,1.1.7,1.5,1Z"/>
          <path class="cls-1" d="M997.2,849.3c-1.1-3.1-1.9-6.3-2.4-9.5-7.9-40.6-23.6-77.9-48.7-110.9-12.4-16.3-27-30-43.4-42.6-16-12.3-28.9-28.6-43.2-43.1h0c-5.5-6.1-12.6-9.5-20.6-11.3-6.1-2.6-12.2-5.5-18.4-7.7-6.3-2.3-11.1-8.1-18.7-8,.8-1.2,1.5-2.1,2.1-3,16.9-23.1,29.5-48.1,36.2-76,7.8-32.5,9.1-65.5,8.3-98.7-.2-8.3-.3-8.5,8-9.8,5.6-.9,8.3-3.1,8.1-9.4-.1-7.2-1-15,5.3-20.8.6-.5,0-2.2.3-3.4,1.1-5.9-1.8-11.2-2.5-16.9-1.3-10-.9-20-1.1-30-.2-10.4-11-16.7-20.4-11.8,0-.8-.1-1.6-.2-2.3-.1-2.1-.2-4.2-.5-6.3,0-.2-2.2,2.8-2.2-.5s-.5-2.9,2.1-3c1.1,0,1.2-2.4.2-2.8-6.1-3-5.4-9.3-7-14.3-8.2-25.1-20.6-48.5-31.5-72.4-13.7-30-25.6-60.6-29.7-93.5-1.1-8.7-5.6-14.5-13.2-18.2-6.2-3-12.6-5.9-18.4-9.7-14.9-9.8-30.7-14.6-48.6-11.9-4.2.7-7.7-1.1-11-3.8-19-15.6-39.8-28.3-62.4-38-47.3-20.4-96.8-26.6-147.9-23.1-56.2,4-107.2,21.7-151.9,56.3-6.3,4.8-12.4,6.7-20.2,5.9-10.6-1.3-21-.7-30.7,5.2-8,5-16.2,9.9-24.9,13.4-13.5,5.4-21.1,14.1-20.8,29,0,.7-.3,1.5-.4,2.2-5,29.5-16.3,56.8-28.6,83.8-11.2,24.7-24.6,48.4-31.7,74.8-.8,2.8-2.1,2.4-4.2,2-8.2-1.9-16.4-2.3-24.3,1.5-2.6,1.3-5.1,2.6-4.8,6.3,1.5,15.5,3,31.1.3,46.7-.9,4.8,1.5,7.5,6.1,7.9,3,.2,3.8,1.7,4.2,4.2,1.3,8.5.6,17.2,1.2,25.8.4,5.8,5.2,10.2,5.4,16.2,0,1.6,2.9,2.2,4.6,3,1.6.7,3.2,1.3,4.8,2-5.7.8-9.2,2.8-9.4,9,0,1.6-2.4,1.7-3.8,2.2-1.9.7-3,1-3.3,3.5-.2,1.8-1.9,4-4.4,4s-3.4.6-3.8-1.6c-.8-5.1-4-1.5-6.1-1.7-3-.4-2.6,2.2-2.5,4,.7,8.5-2.4,15.8-6.4,22.9-1.1,1.9-1.4,3.8-1.1,6,2.2,15.8,4.4,31.6,6.5,47.5.7,5.4,1.4,10.6,7.5,13.1,1.9.8,3.1,3.3,4.3,5.3,4.6,7.7,4.5,7.7,13.6,6.1.6-.1,1.2-.1,1.7-.3,2.8-1.1,4.1.2,5,2.9,1.9,6.1,4.3,12.1,6.3,18.1,4.1,11.8,9,23.3,14.4,34.5.7,1.5,2.2,2.7.9,4.7-2,2.9-.3,5.5,1.7,7.1,6.2,5,3.3,12,4.5,18,.3,1.5-1.3,1.7-2.2,2.2-16.7,9.6-33.4,19.1-49.9,28.8-10.4,6.1-21.4,11.7-29.5,21-8.6,9.9-18.5,17.8-30.5,23.1-7.7,3.4-12.5,9.4-15.1,17.3-3.4,10.3-5.6,20.8-5.5,31.7,0,3.5-1,5.4-4.1,7.2-12.4,7.2-20.8,17.1-19.2,32.7.3,2.9-.8,4.8-2.8,7-9.8,11.2-16,24.4-20,38.6-1.4,4.8-.8,9.9.5,14.9,1.9,7.3,6.9,14.4,1.6,22.5,2.2-2,3.2-4.3,5.6,0,3,5.4,7.5,9.8,11.3,14.6-1.3-4-3.7-7.1-5.5-10.7-6.1-12-13-24.5-11-38.1,2-14.6,8.8-28.4,19.2-38.7,9.8-9.7,20-18.8,28-30.8,8.9,18.1,21.3,31.9,38.8,40.7-7.1-6.1-14.3-11.8-20.4-19-7.1-8.5-14.9-16.1-17-27.5-2.6-14.4-2.8-28.5,4-42.1,1.3-2.6,4.6-4,4.5-6.9-.4-8.1,6.3-8.9,10.7-12.2-1.9,18.5.9,35.9,6.1,54,.9-2.3.5-3.6.2-4.8-3.5-12-5.6-24.3-5.7-36.9,0-3.6.5-7,2.2-9.9,3.6-5.9,9.8-8.8,16.1-13.9-4.2,12.4-2.7,23.5-1.1,34.4,5,33.2,15.9,64.5,31.5,94.1,10.1,19.2,20.8,38.1,31.3,57.1,1.9,3.4,2.5,6.1-.7,9.7-9.2,10.4-17.9,21.2-28.1,30.6-1,.9-2.4,1.7-2.2,3.6,2.8.3,3.9-1.9,5.4-3.2,9.5-8.5,17.8-18.1,25.9-27.9,2.8-3.4,3.8-3.2,5.4.9,5.4,13.7,11,27.4,16.5,41.1.5,1.2.8,2.7,2.8,2.6,1.1-3.2-.6-5.9-1.7-8.7-5.6-13.9-10.7-28-17-41.6-11.4-24.8-25.6-48.2-38.1-72.5-7.1-13.8-7.5-13.9,4.8-23.4,15.3-11.8,24.7-28,33.4-44.6-2.1,2.3-4,4.9-5.5,7.6-9.1,15.6-21.2,28.2-35.8,38.7-4.8,3.5-6.1,2-7.8-2.3-8.1-21.8-15.1-43.9-18.5-67.1-3.2-21.9,2.6-38.8,22.5-50.4,12.4-7.3,25-14.5,37.5-21.6,8.1-4.6,15.4-10.7,24.8-15.9-1.1,3.4-.6,5.9-3.3,7.5-11.4,6.9-22.6,13.9-33.8,20.9-1.5.9-2,.7-1.9,0,1.5-5.4-2.3-1.4-2.6-1.2-3.8,2.7-7.4,5.6-11,8.4-2.8,2.2-5.9,3.6-9.5,4.8-5.5,1.9-8.9,8.2-12.4,13.3-1.4,2-2.7,4.2-1.7,7.3,2.6-3.1,5-6.1,7.5-9.1,1.9,10.6,0,20.6-1.1,30.7v-15.1c-2.1,8.2-3,16.5-1.9,24.9.4-1.4.9-2.8,1.6-5.3.8,8.1,0,15.2,3.7,21.5.6-2.8-2.4-5.3,0-8.5.5,4.3,2.2,7.6,6.3,11-2.9-12.8,5.5-19.2,12.5-26.1,14.5-14.4,29.9-27.8,45.7-40.7,1.5-1.2,3.5-2,3.8-5.3-25.4,17.9-46.5,38.9-65.7,61.9-3-4.4-2.8-9.9-2.1-15.5,1.1-8,4.2-16.5,2.6-23.9-2.5-11.2,3.4-15.8,10.9-20,8.7-4.9,17.1-10.4,25.4-16,8.3-5.5,16.6-10.9,24.9-16.3,1.1,5,1.9,9.8,3,14.3,1.2,4.6,2.6,9.3,4.3,13.7,18.1,46.8,32.4,94.8,44.4,143.5,10.3,42,20.6,83.9,29.8,126.1.7,3,1.1,6.3,3.8,8.7,1.3-1.7.5-3.2.2-4.6-7.3-31.3-13.5-62.7-21.4-93.8-10.4-40.6-19.4-81.5-32.5-121.3-3.4-10.5-7.9-20.7-10.2-31.6,1.2,0,1.1,1.2,1.4,2,5,14.3,10,28.6,14.7,43,12.1,36.6,19.6,74.3,30.3,111.2,8.7,30.3,14.7,61.3,23.5,91.6,1,3.4,2.1,5.3,5.9,5.6,4.8.3,9.6,1.1,14.2,2.4,5.4,1.6,5.3-.8,4.5-4.7-3.3-15.8-6.3-31.7-9.8-47.4-8.5-38-20.5-75.2-26.6-113.8-5.5-35-18.2-67.7-30.9-100.5-3.2-8.2-5.9-16.6-9-25.5,4.5,1.1,6.6,3.2,7.5,6.7,1.1,3.7,2.4,7.3,3.6,10.9,12.3,41.1,29.4,80.8,35.9,123.7,3.7,24.5,11.7,48.1,18,72.1,6.3,24.4,9.3,49.5,14.8,74,.5,2.3.5,4.9,3,6,1.1-.7,1-1.4.8-2.2-5.6-24.3-7.5-49.4-14-73.5-10-36.9-19.4-73.9-26.1-111.6-.3-2-2-4.4.8-5.5,10-4.1,18.3-11.2,27.7-16.5,1.9-1.1,2.9-.9,4.4.7,11.3,11.4,24,21,38.1,28.8,7.3,4,13.9,9.5,22.1,11.6.7,1.3-2.1,3.3,1.3,4.2,32.2,9.1,64.6,17.1,97.7,22.2,10.8,1.7,21.9,1.1,32.7,3.5,2.9.7,6.1.5,8.1-2.2-.7-2.5-4.1-.7-4.3-3.5h8c.2,7.9-4.4,7.9-10,6.3-1.1-.3-2.3,0-3.4.2-1.7.2-2.6,1-3,2.9-.4,2.3,1,3,3.1,3.7-11.4.9-22.4.7-33.3,0,14.8,3.2,29.7,4.4,44.9-1.1-2.3,15.1-2.6,29.4-.5,43.8.4,2.8-1.1,2.6-2.6,3.3-4.6,1.8-9.6,2.2-13.7,5,1.6,0,3-.4,4.5-.8,9-2.2,14.3,1.2,15.9,10.1.5,2.8,0,4.6-3.2,5.5-4.7,1.3-9.7,2.2-13.9,5,4.7-.9,9.3-2.2,13.9-3.4,5.9-1.7,6.7-1.2,6.8,5,.2,14.8,1.9,29.5,2.8,44.4.5,7.5.6,15,1,22.5.2,4.2.6,4.5,4.4,2.3.9-.5.6-.2,1.3,0,3.1,1.4,3.8.9,3.8-3s-1.1-1.7.6-1.7,2-.5,1.9,1.2c-.6,5,2.7,4.9,6.1,4.6,4.9-.3,2.6-4.1,2.5-6.1-1.3-25-2.8-49.9-4.4-74.9-.5-6.9-1.4-13.7-2-20.6,6.3,33.4,9.1,67.2,10.3,101.1-.3-21.6.3-43.2-2.9-64.5,3.8-.8,6.5,2,9.8.9-3.1-2.2-7.7-1.7-9.7-5.8,3.8-2.1,7.2,1.3,11.1.1-4.1-2.1-9.4-1.6-11.7-6.5,2.2-.3,3.7,2,6.6.4-12.2-2.9-6.9-12.6-8.6-20,1.1.1,1.2,1.1,1.7,1.6,13.4,13.8,33.4,15.1,48.3,2.6,3.3-2.7,5.8-4.3,8.9-1-3.6-4.4-3.6-4.9-1.1-10.5,9.3-20.8-7.8-47.5-31.4-45.3-2.6.3-5.4,0-8,0v-.5c5.2-1.1,10.4-2.1,15.7-3.2-7.9,0-15.8-.3-23.1,3.4-7.1,3.5-12,9.4-16.7,15.5,3.4-11.6,11.8-16.6,22.9-19.2,15.5-3.6,31.3-3.9,46.9-6,10.9-1.5,22.1-1.9,32.6-5.8-12.5,1.4-24.9,3.8-37.5,4.2-1.9,0-3.8.8-5.8,0,.9-1.9,2.6-1.9,4.2-2,18.3-1.6,36.6-3.6,54.5-7.9,1.3-.3,2.6,0,4,.2,2.4-.7,4.8-1.5,7.3-2.2,4-1.6,7.9-3.2,11.9-4.8-4,1.6-7.9,3.2-11.9,4.8,1.1.7,2.2.7,3.3.3,18.6-5.7,36.3-13.3,52.6-23.9,1.7-1.1,3.3-2.4,4.9-3.7-5.3,1.4-9.5,4.7-14.5,5.8-4.3,2.4-8.5,5.1-13,7.4,4.4-2.3,8.6-5,13-7.4,2-1.4,4-2.8,6-4.3,9.2-6.6,19.1-12.3,27-20.6,9-9.5,17.2-19.6,24.5-30.4.7-1.1,1.3-3.6,3.2-1.9,1.5,1.3-.2,2.8-1.4,3.7-7.1,5.4-9.7,14.3-17.3,21.4,3.7-1,5.6-1.5,7.5-2-9.8,12.7-23.8,20.8-34.3,33.4,18.8-7.7,31.9-20.4,40.1-38.3,0,2.4-.7,4.4-1.4,6.3-3.4,10.4-7.9,20.6-10.1,31.2-5.4,27-8.6,54.3-9.8,81.8-1.1,23.9-1.5,47.7-4.4,71.5-.7,6.3-1.5,12.7-2.4,19.6,2.8-1.7,2.4-3.8,2.8-5.6,1.9-9.8,3.3-19.8,4-29.7,2-29.5,3.2-59.2,5.6-88.8,3.9-48.7,19-93.5,44.2-135.1,11-18.1,23.7-35.2,41.2-47.8,4.2-3,8.5-6.1,14.1-5.4-13.7,7.1-24.7,17.5-34.2,29.5-27.6,34.7-44.6,74.4-54.7,117.1-7.7,32.3-7.9,65.6-11.6,98.6-2.4,21.2.5,42.8-5.3,63.7-.7,2.4,0,3,2.5,2.5,8.3-1.7,16.6-3.4,24.9-4.7,4-.6,5.5-1.9,5.8-6.1,2.2-32.9,8-65.3,9.4-98.2.4-9.5.8-19,2.4-28.8.9.6,1.5.8,1.8,1.1,17.6,21.9,34.9,44,49.1,68.4,5.6,9.7,11.3,19.2,17.3,28.7,2.6,4,5.2,8.4,11,8.9-5.2-4.6-9.2-10.1-12.4-16.1-17.8-33.3-39.3-63.9-63.8-92.5-2.2-2.6-1.7-4.9-1.2-7.5,7.6-40.1,21.4-77.7,43.4-112.2,6.9-10.9,15.3-20.1,25.7-27.7,3.4-2.4,5.4-2.6,8.5.9,10.9,11.9,22.3,23.4,33.6,35,1.1,1.1,2,2.6,5.4,3.2-13.2-13.9-25.5-26.6-37.5-39.4-1.1-1.1-3.9-2.1-2.6-3.8,1.5-2,4.2-3.8,7-3.2,1.7.4,3.2,2,4.6,3.2,12.6,10.8,22.8,24.1,35,35.2,2.6,2.4.8,3.7-.6,5.2-5.6,6-11.5,11.9-17.1,18-2.2,2.4-3.7,2-5.6,0-3.4-3.6-6.9-7.3-10.3-10.8-1.1-1.1-1.9-3.7-3.7-1.9-1.8,1.8.7,3,1.9,4.1,3.3,3.2,6.5,6.5,10.1,9.5,3.1,2.6,2.4,4.3-.3,6.7-6.1,5.4-12.1,10.7-17.7,16.6-2.3,2.4-4.2,2.6-6.5,1.2,2.8,2.2,1.1,4.2-.9,6.3-1.7,1.7-3,3.6-4.7,5.1-4.1,3.6-4.2,7.1.1,10.4,3.7,2.8,3,5.8,1.1,9.1-1.3,2.2-3.1,3.8-5.1,5.4-13.6,10.5-25.3,23.2-38.9,33.8,17.8-12,36-23.7,50.5-40.5,10.7,10.2,20.8,22.1,30.1,34.5,1.8,2.3,1.1,3.8-.8,5.7-13,13.1-25.9,26.2-38.7,39.5-1.3,1.3-3.1,2.4-3.6,5.4,16.1-15.3,31.6-30.1,47.4-45.1,8.2,11.5,15.5,24,22.7,36.8,2,3.5,2.2,6-1.3,9.4-3.6,3.6-7.1,7.4-10.7,11-7.4,7.6-15.1,15-22.6,22.5,1.5.5,2.3,0,2.9-.5,10.8-11,23.1-20.5,33.1-32.5,1.9-2.3,2.9-2.4,4.4.3,2.8,5.3,5.6,10.5,8.7,15.5,1.5,2.4,1,3.8-1.1,5.2-16.1,11.2-30.7,24.7-49.5,31.5-1.6.6-3.5,1.1-4.8,3.4,11.8-4,22.8-8.3,32.6-15.3,8.8-6.2,17.3-12.9,26.6-18.4,22.9-13.7,43.4-29.9,57.8-53.7,2.5,6.1,3.2,11.8,4.5,17.3,1,4.3,3.3,8.9,2.5,12.8-.9,4.4-7.1,4.2-10.5,6.9-2.1,1.7-4.5,3-6.7,4.5-13.7,9.4-25.6,21-38.1,31.9-1,.9-2.1,1.7-3.1,2.5.3.3.7.7,1.1,1,5.6-4.6,11.2-9.3,16.9-13.8,13-10.2,25.3-21.4,40.9-27.8,3.6-1.5,4.8-4.1,3.4-7.9h0ZM126.3,492.5c-.1-9-5.9-17.8-.4-26.7-3.3,9,1.1,17.8.4,26.7ZM54.6,768.3c-1.7,3-3.6,5.9-5.6,8.7-3.4,4.7-6.9,9.3-11.2,13.1-1.5,1.3-2.6,4.2-4.9,3-1.7-.8-.6-3.5-.9-5.1.1-10.9,8.9-23.2,18.9-27,1-.4,2.4-1.5,2.9,0,.7,2.3,2.2,4.8.7,7.2h0ZM551.7,829.7c13.8.6,22.9,8.7,23.3,23.8.3,10.2-8.4,18.2-19.5,18.3-12.2.1-22.7-10.2-22.9-22.6-.1-10.9,8.2-19.9,19-19.5h0ZM861.6,409.1c-.2,2.1-.4,4.2-.5,6.3-.7,10-1.6,10.8-12.3,10.4-1-6.1.8-12.3-1.1-18.2-.5-1.8,0-2.3,1.7-1.9,3.6.7,7.1,1.7,10.8,1.1,1.8-.3,1.5,1.2,1.4,2.3h0ZM863.9,353.9v12.1h.6c0,4.2-.2,8.5,0,12.7.2,3.3-1.1,4.4-4.2,4.8-4,.5-3.3-2.3-3.3-4.4-.1-8.5,0-16.9-.2-25.3,0-4.3,3.4-3.1,5.4-3.4,3.1-.5,1.6,2.2,1.7,3.6h0ZM845.4,340.8c2,3.7,8.9,5.9,11.8,4,2-1.3,1.7-2.2-2-6.1.9-.7,1.9-.3,2.7,0,2.2,1,4.8,2.5,4.7,4.6-.2,2.2-3.2,2.6-5.5,3.1-3,.6-6,.7-9.1.4-4.7-.5-5-2.4-2.5-6.1h0ZM854.2,368.1h.2c0,4.4-.3,8.9,0,13.2.3,3.9-2.1,3.5-4.3,3.3-2.2-.1-5.9,1.9-5.9-2.8,0-9-.1-18,.3-27,.2-5,4.7-2.3,7.1-3,3.1-.9,2.6,1.8,2.6,3.6v12.6h0ZM843.5,392.5c.2-2.5.9-3.1,3.2-3.4,5.8-.9,11.8-.2,17.6-2,1.7-.5,2.8,0,2.4,1.8-.6,2.8,2,7.1-2.9,8.1-4.3.9-8.7,1.2-13,1.7-4.8.6-7.9-.1-7.3-6.1ZM817.3,266.2c22.9,35.6,27.3,75.8,22.9,115.9-22.2-35-23.5-75.8-22.9-115.9h0ZM747.9,121.2c5.3,2.3,11,4.2,15,10.8-6-3.6-10.9-6.4-15.8-9.3.3-.5.5-1,.8-1.5h0ZM754.7,153.1c.3-.2.7-.4,1-.6,0,0,.2.2.3.3-.5.1-.9.3-1.3.3ZM726.7,136.5c1.3-1.3,2.4-.9,3.3.4,2.6,3.4,8.9,3,9.4,8.7,2.4-1.4,3.4.7,4.7,2,2.3,2.2,4.6,4.6,8.1,4.8,1.1-.6,1.5.3,2,.9h0c0,1.1.9,1.9,1.7,2.4h0c0,.9-.4,2.2,0,2.7,4.4,4.6,8.9,9,14.6,14.6-2.3-4.8-5.2-6.9-7.7-9.5-2-2.1-5-3.6-5.1-7.1,5,3,9.5,6.3,12.9,11.2.7.9,1.1,2.2,2.6,1.8,1.7-.5.1-1.5.3-2,3-13.3,1.8-16.1-7.7-27.7-.9-1.1-1.7-2-2.9-3.3,9.4,5.9,11.9,10.6,13.4,21.1,1.9,13,6.6,25.2,11,37.5,4.6,12.6,9.1,25.4,15.5,37.2,8.6,15.5,10.7,32.3,11.5,49.4.3,7.7,0,15.3-.5,23.3-1.1-2.9-2.2-5.8-3.3-8.7-6.5-17.5-14.6-34.3-24.5-50.2-16-25.9-25.7-54.9-41.4-81-5.3-8.7-11-17.1-17.2-25.1-.7-1.1-2.2-1.7-.7-3.3h0ZM714.1,106.3c.5.1,1.1.8,1.1,1.1-.6,6.1,5.1,6.7,8.7,9.7-5.6,1.7-10,.3-14.3-2.6-1,1.3.7,1.7.5,2.4-.1.9-.9.6-1.3.3-4.7-4.1-10.8-6.4-14.5-12.1,7-2.8,13.4-.3,19.7,1.2h0ZM312.5,101.9c-3.4,5-8,7.3-12.3,9.9-6.5,1-12.8,2.7-18.3,6.7-.7.5-1.5,1.6-2.4.5s0-1.9.7-2.9c1.4-2,5.8-1.1,5.1-5.2h0c3.3-3.4,8.3-3.2,13.5-5.9-6.9,0-11.4,3.4-16.6,4.2,9.1-5.9,18.8-8.7,30.3-7.4h0ZM235.2,137.2c5.9-7.1,12.9-12.9,20.3-18.2,1.3-.9,2.5-1.9,4-.4,5.2-2.3,10.4-4.4,15.5-7.1,2.2-1.2,4.4-1.5,6.7-1.8-.3,1.3-.3,2.4.7,3.4-7,1.9-14.1,3.3-20.7,6.6-.9.5-1.8,1.7-3,.6-12,6.4-21.9,14.9-27.8,27.4h0c-.2-4.2,1.9-7.5,4.4-10.6h0ZM231,147.5h-.1c0,.1.1,0,.1,0h0ZM193.1,258.7c.7-8.8,3.5-16.8,7.3-24.7,11.2-23,20.6-46.7,27.2-71.4,1.3-5,2.2-10,3.3-15.1,2.8,5.9,2,12,.7,18.4,8.1-5.7,14.5-12.6,22.5-17.8,7.9-5.2,16.7-9.9,23.1-17.3,1.7.9,3.6,0,6.1-.2-17.7,20.8-30.5,43.4-41.1,67.2-6.5,14.7-13.6,29.3-21.7,43.2-11.2,18.9-20.8,38.5-28,59.2-.3,1-.9,2-1.7,2.9-.7-14.9.9-29.7,2.1-44.6ZM168.7,311.7c1.3-11,6-21,10.3-31.1,2.8-6.4,6-12.6,9.1-19,.5.1.9.2,1.4.3-1.5,13.3-1.9,26.6-1.9,39.9,0,22.2-5.9,42.8-15.1,62.7-.7,1.6-.9,4.4-3.3,4-3.1-.5-1.7-3.4-1.9-5.2-1.2-17.3-.5-34.6,1.5-51.8ZM175.7,363.7c8.3-17.1,14.1-35.2,17.6-54.1,2.6-14.3,8.5-27.6,15.3-40.3,16.4-30.3,30.7-61.6,47.4-91.7,40.8-73.8,103.3-118.9,186.5-134,55.7-10.1,110.9-7,164.5,12.3,61.7,22.2,108.6,62.6,139.8,119.6,19.4,35.4,38,71.2,55.7,107.6,5.6,11.6,9.3,23.9,11.7,36.7,2.8,14.3,7.3,28.4,13.7,41.5,9.6,19.6,15,39.9,13.4,61.8-.2,2.3.2,4.6.3,6.9,0,.3.5.6,1.5,1.8,1.5-9.5,0-18.4.9-27.1,1.4.3.9,1.4.9,2,.5,26.5,1.9,53,0,79.6-3,44.9-14.5,86.7-42.1,123.1-.3.5-.7.9-1.1,1.4-3.6,4.7-7.4,5-11.4.9-2.6-2.6-5.1-5.3-9.5-5.4,6.3-12.6,13.2-24.6,18.2-37.6,8.9-23.1,12.8-47,15.5-71.3,1.7-15.3,2.4-30.7,2.8-46.1.5-21.1-.8-42.1-1.9-63.1-.6-11.8.4-23.5.3-35.2-.1-13.3-2.8-25.7-8.1-38.1-26.1-61.8-68.4-110.1-123-148-29.5-20.5-62.7-32.1-97.6-38.5-67.8-12.4-135.2-11.1-201.9,7.7-42.6,12-77.9,36.2-109.7,66-34.4,32.2-60.4,70.1-78.7,113.4-4.7,11.1-6.1,22.5-5.5,34.4,1.3,28.2-2.2,56.2-2.4,84.3-.2,17.4.4,35,2.8,52.4,3.1,23.1,6,46.2,13.1,68.4,9.1,28.5,23.2,54.3,43,76.8.9,1.1,2,2.2,1.7,3.5-1.5,5,.5,9.7.8,15.4-3.2-5.8-3.8-11.4-5.2-16.7-.5-1.9-.2-4.2-3.1-3.4-2.9.8-.9,2.8-.7,4.2.8,7.8,1.9,15.5,4.8,23.9-16.1-7.4-32.4-13.4-42.8-28.4-4.6-6.6-4.8-14.5-4.8-22.2s1.9-2.7,3-4c1.3-1.5,3.8-2.4,2-5.2-1.7-2.8-3.6-7-6.8-6-4.8,1.5-5.1-1.6-6.4-4.1-10.3-19.8-16.5-41-18.8-63.1-.5-5.2-3-5.2-6.6-4.8-5.3.7-10.6,1.3-16.7,2.1,3.6-5.4,8.7-4.8,13.3-5,8.1-.4,11.6-3.7,10.8-11.6-2-23.4-4.2-46.8-6.3-70.2-2.6-25.1-1.6-49.2,9.8-72.7h0ZM686.7,753.8c-2,1.1-3.4,2-4.9,2.6-2.1.9-4.2,1.7-6.7,2.6-1.5-3.9.6-7.3,1-10.7,1.1-9.3,2.6-18.6,4-27.9.3-1.9.8-4.1-2.3-4-2.4,0-5.5-1.3-6.1,3-1.3,9.1-2.8,18.2-4,27.4-.5,4.3-3.8,8.8,1.1,13-6.3.5-17.1-12.4-16.9-19.3,2,0,4.3-.5,6.1.2,6.3,2.1,7.7-1.7,8.5-6.5.9-5.5,1.9-11,2.3-16.5.3-3.3,1.3-4.2,4.6-3.8,4.8.6,9.7.6,14.3-1.1,2-.7,4.5-1.1,5.4-4.8-6.1,4.8-12.4,4.4-18.9,4-2.4-.2-4.5-1.1-6.3-2.5-3.8-3-3.5-5.7.9-7.7,4.7-2.2,9.5-4.3,14.5-5.4,5.4-1.2,10.3,1.9,11.8,7.3,1.6,5.6-.9,10.9-6.2,12.4-2.9.8-4.2,2.2-4.3,5.1-.3,8.9-3.2,17.3-4.9,26-1.5,6.9-1.1,7.3,6.7,6.8h0ZM199.4,422.1c-.3,4.1,1.6,9.1-4.8,10.8-2.4.6-1.6,3.4-2.8,5.1,1.1-9.3.6-18.4,1.5-27.6.4-4.1,2.2-8.1,1.2-12.4h0c1.5-2.2,3-4.5,5-7.7.8,14.1-1.7,27-4.6,40.5,3.7-2.5,2.9-6.1,4.4-8.7h0ZM194.5,397.9c-.7-14.3,1.4-28.3,5.9-41.8-3.2,13.7-3.1,28-5.9,41.8ZM194.4,347.2c-1.3-9.5,0-18.7,3.7-27.5,30.7-74.7,81.7-131.1,153.6-168,28.2-14.5,59-20.8,90.3-24.7,38.5-4.8,77.1-4.8,115.8-.7,70.7,7.5,130.2,36.6,179.5,87.9,30.6,31.8,54.1,67.8,70.9,108.5,3.7,9,4.8,18.4,4,28.1-8.1-23.8-18.8-46.3-33.7-66.4-30.4-41.1-69.7-71.5-116.1-92.6-58.6-26.7-120.3-36.9-184.4-32.9-51.6,3.2-101.2,14.7-147.5,38.1-53.8,27.2-96.8,65.9-124.3,120.3-4.9,9.7-8.7,19.6-11.8,29.9h0ZM814.3,440.5c.2,1.3-.5,2.4-1.5,2.8-1.7.7-2.2-.9-2.8-2h0c2.9-2.9,1.4-6.3.8-9.5-2.2-11.4-4.2-22.9-2.4-34.7.7,2.5,1.5,5,2.2,7.5-1.7-14.1-.1-28.6-4.6-42.4,3.3,6.8,4.6,14.1,5,21.5.9,16.9,3.4,33.6,2.5,50.6-.2,2,.5,4.1.9,6.2ZM809.8,441c-4.8-6.5-3.7-14.1-4.1-21.6,2.2,7,3.7,14.1,4.1,21.6ZM204.2,380.8c.5-2.8,1.1-5.7,1.8-8.5,9.8-39.7,30.3-73.3,57.6-103.3,10.8-11.8,21.7-23.3,33.3-34.4,6.3-6.1,14.3-9.4,21.6-13.9,5.6-3.6,10.2-8.4,15.5-12.4,2.8-2,5.9-3,9.1-4.3,20.4-8.3,40.8-16.7,62.1-22.3,3.7-1,7.4-2.2,11.1-3,3.4-.7,6.7-1,8.3-4.8.5-1.3,3.3-3.2,4-1.3,2.6,7,7.2,2.4,9.5,1.1,3.6-2.2,5.5-3.8,10.4-1.7,4.3,1.9,10.4-.6,15.7-1.1,4.8-.5,9.5-1,14.2-1.5,11.3-1.1,22.5-1.8,34-1.1,12.8.7,25.5,1.8,38.2,3,3,.3,5.9,1.4,9-.9,2-1.5,5.2-.3,7.1,1.7,3.2,3.5,6.1,6.3,10.4,1.1,1.1-1.3,3.8-.8,3.9.6.3,4.4,3.9,3.9,6.3,4.4,27.3,6.1,52.9,16.9,78.2,28.4,2,.9,4.3,1,6.3,1.9,5.8,2.7,8.9,8.6,13.4,12.7,16.9,8.2,30.8,20.2,43.4,34,14,15.3,27.4,31.3,39.2,48.3,9.4,13.6,16.1,28.7,22.2,44.1,1,2.6.6,6.1,4.6,7,.6.1,1.1,2,1.3,3,1.7,15.9,6.9,31,9.3,46.7.1.9,0,1.9-.6,2.8-3-12-5.9-24.1-9.2-36.1-11-39.7-32.1-73.7-59.3-104.3-14.8-16.7-31.5-31-49.7-43.6-.6-.4-.9-1.1-1.4-1.7-11.8-6.7-23.2-14.1-35.6-19.8-28.1-13-57.7-20.7-88.2-25.5-29-4.6-58.2-5.9-87.5-3.4-47.1,4-92.7,13.8-134.6,36.9-27.7,15.3-51.2,35.6-72.5,59-30.3,33.4-51.4,71.3-61.2,115.3-.3,1.1-.6,2.2-.9,3.3-.1.5-.3,1.1-.7,2-1.3-3.2.1-6,.6-8.7h0ZM732.9,438.4c1,2.8-2.6,7.1-4,10.8-.4,1.1-2.4,3-.8,3.3,7.6,1.5-1.5,6.1,1.7,8.5.2.1-2.9.7-3.3,2.5,1.6,1.1,3.1-.3,4.8.2-6,3.6-13.1,2-19.5,3.7h-20.4c3.4,3.4,6.4,3.2,9.1,4.7-2,2.3-5.2.2-7.7,2.5,5.5-.3,2,4.8,4.5,6.5.1.1-2,1.7,0,1.7,5.7.2,11.3,3.4,17,.4,2.6-1.4,7.3-.5,7-6.1,0-.8,3.7-2.2,6.1-2,.8,2.3-1.5,2.3-2.2,3.4-.5.9-5,1.9,0,3.4,2.2.7-.1,1.9-.8,2.6-1.1,1.2-4.5,1.8-.8,3.9-1,1.3.6,3.8-2.2,4.1-1.7.1-3.4.5-6.1,1,3.2,1.3,6.7.3,7.2,3.9-2.4.9-5.2,2-8.5,3.2,4.6,1.8,4.4,8,10.4,7.7-2.4,1.4-4.6.4-5.9,2.4,3,2.4,6.7,2,10.4,2.4-1.3,1.4-2.6.6-3.8,1.1-1.9.7-5-1.1-5.4,1.5-.3,2.3,1.3,4.8,4.5,5.1.5,0,1,.4,2.5.9-4.2.5-7.8-2.2-11.1.9,1.3.9,2.5,1.7,3.6,2.4,0,.9-.5.9-1.1,1.1-1.5.5-4.5-1.1-2.4,3.2,1.6,3.2-2.6,4.6-5.4,6.3,2,1.7,3.8,3.2,5.9,4.9-2.1.2-3.9.3-5.8.5.7,2.6,3.2,2.8,5.6,5-4-.8-7.1-2.1-10,0,.1,1.1,2,1.2,1.7,2.6-1.6,1.1-3.8-1-5.1,1.1,3.7,2.1-5.8,4.8.9,6.8-2.1.9-3.8,1.7-6,2.6,1.8,1.2,3.1,2.1,4.5,3-.4.2-.7.4-1,.5-1.3.5-3.3-1.5-4,.7-.6,1.9,1.5,2.4,2.8,3.2,1.5.9,2.9,1.7,4.3,2.8-3.7-.5-6.9-2.8-11.2-2.6,1.3,4.3,6.3,4,8.3,7.3-3.7,0-6.3-2.6-9.6-3.5-2.8-.8-5.5-1.1-6.5,1.3-1.1,2.6,2.2,3.6,4,4.4,3.7,1.6,7.6,2.6,11.4,3.6,10.8,3,21.6,5.9,31.6,11.3-17.5-5.2-34.5-13-53.1-12-1.9,1.1,6.2,3.4-.9,3.4,1.1,1.9,3,2.1,5.9,3-4.5.2-7.7.4-10.8.5-.2.3-.3.7-.5,1,.9.5,1.9,1.1,3.4,1.9-4,1.1-8.1-2.8-10.8,2.2,3.8,1.6,7.1,4,10.5,7.3-6.2-.7-11.8-3-19.4-2.7,9.2,6.2,18.9,7.7,26.8,12.8-9.8-2.6-19-8-29.6-9.3,1.5,3.3,5.6,2.5,6.5,5.6-4-.1-7-3.6-12-3.8,2.4,2,4.1,3.5,5.8,5,2.6,1.4,5.1,2.8,7.7,4.2,5,.4,8.9,3.2,13.2,5.4,8.2,4,16.2,8.7,25.6,10.9-1.5-3.4-5.8-2.8-7.1-5.8-5.8-1.9-11.1-4.8-16.2-8.1-.5-.3-.9-.6-1.4-.9.5.3.9.6,1.4.9,6,1.4,11.4,4,16.2,8.1,6.3,1.3,10.7,5.9,17.1,9-10.2,1.3-31.9-10.5-48.8-19.4-2.6-1.4-5.1-2.8-7.7-4.2-4.2-1.2-8.4-1.3-13.1-1.3,1.3,3.8,5.6,4.4,7.9,8.6-3.5-1.9-5.9-3.2-8.5-4.6-3-1.6-3.3-1.7-3.8-.3-.5,1.6-2.8,3.3.3,5.2,2.4,1.4,4.3,3.6,5.4,6.5-3.6-2.8-6.5-6.5-10.9-8.3-1.5-.7-2.6-1.4-3.3.7-1.5,5-4.6,3.6-7.9,2.3-1.5-.6-3.5-2-4.7-.3-1.4,1.9,1,2.9,2,4.2,1.3,1.6,2.8,3.1,4.2,4.7,3,3.7-.5,2.4-2,2.6h0c-2-6.8-8.8-8-13.6-11.7,3.2,6.1,6.6,11.8,13.3,14.7h0c.9.7,1.9,1.3,2.8,1.9-7.1-1.6-12.3-6.3-18.2-9.5-1.2,2,.9,3.2,0,5.1-3.6-2.9-6.1-6.7-10.2-8.7-.7,2.6-3.3,3.1-7.6,1.5,1.6,3.2,4,5.7,5,10.2-3.9-3.4-5.2-7.7-9.3-9.4,6.7,8.7,10.4,18.8,13.3,29.2-4.8-10.5-8.1-21.8-17.8-29.6-.5,2.8,3.2,3.6,3,6.7-3.7-2.4-6.3-1.3-7.9,2.4-.7,1.7-1.9,2.6-3.4,3.4,4.2,6.7,8.5,13.4,13.4,21.1-3-1.3-4.2-3-5-4.7-3.4-6.8-8.2-12.5-13.7-17.6-1.6-1.5-1.5-1.5-4.1-.3-.3.1-.7.1-1.1,0-1.3-.5-2.3-2.6-3.7-.3s1.8,2.9,1.9,4.7c-2.4,1.1-2.8-3.8-6-1.6-3.9,2.6,1.1,4.1.1,6.7-3.8-4.2-8-2.3-12.2-1.2-.3,2.5,2.4,3.8,2.4,6.9-3.4-2.2-6.7-4.2-10.6-2.2-.5,1.8,3,3.4.9,5-2.7,2.1-3.8-2.6-6.7-1.8,1.1,2.2,1.7,5-3.4,2.6,2.8,5.9,5.2,11,7.6,16.1-5.4-5.4-6.1-15-16.3-15.1-1.4,2.9,2.8,3.6,3,6.5-3.7-.7-4.2-8.1-7.5-5.3-2.5,2.2-10.1-.7-7.7,6.7-1.8,0-1.7-1.6-2.6-3.2-.3,2.2-.4,3.8-.6,5.4-4.2-1.2-3.4-9.1-8.9-7.3-3.7,1.2-5.8,5-5.6,10.6-1.9-4-1.1-7.2-1.5-10.5-2,.7-4.2.9-4.2,3.7s-.1,2-.9,1.6c-5.1-2.5-8.7,5.4-14.1,2-.4-.3-2.8,2.2-4,3.8-1.5,1.9-2,3.9-4.7.5-.9-1.1-5.1,2.2-6.7,4.5-1.5,2.2-2.1,5.1-3.4,8.6-1.9-5.6,1.6-9.3,1.9-13.4-1.7-1.8-5.4,8.2-5-1.5-3.4,2.6-5.4,5.7-7.2,8.8-1.2,2-1.3,3.7-4.7,1.9-5-2.6-5.4-2-2-7.4.5-.9,1.9-1.5,1.2-3-4.2,1.7-4.5,6.8-7.9,9.2-1.6-2.9,2.7-3.8,1.7-6.4-2.8.9-3.8,3.6-5.8,5.1-2.2,1.7-.2-6.2-4.3-1.3.3-3.4,3.6-4.4,3.6-7.3-4.3-.7-6,4.2-10,4.9-.3-3,2.9-3.6,3.3-6.1-3-.3-3.8,3.8-6.9,3.2,1.3-2.8,5.2-3.6,5.7-7.5-4.6,1.3-6.9,5.2-10.9,7.3-.3-2.6,2-3.2,3.2-5.2-3.6.5-6.1,3.4-9.6,2.9.5-2.4,3.1-2.8,4.2-5.6-3,1.7-5.2,2.9-7.6,4.2-.2-3,3.5-2.5,3.4-5-2.1-.3-3.5,1.2-5.2,1.9-.7.3-1.4.7-2,1-.6-3.5-5-1.9-5.2-2.6-1.3-3.9-5.8-2.5-7.3-5-1.9-3.2,2.3-2.4,3-4.1-1.5-1.3-2.8-.3-4.1.6,1.3-2,2.6-4.1,4-6.1-.3-.3-.6-.7-.9-1-2.3,1.2-4.6,2.4-6.9,3.6,2.2-3.3,3-8.2,8.3-8.2-1.3-.3-1.5-2.2-2.9-2.3-4.5-.3-1.6-2.7-.7-3.4,2.9-2.4,6.1-4.4,9.7-6.5-2.7,3.1.9,6.1-.2,9.1,3-3,8.1-2.6,10.4-6.8.2-.4,1.9,0,3.2.9,3.9,2.7,1.1,4.2.1,6.4,11.2-6.1,20.1-13.9,22-27.8-.7-.5-1.3,1.9-2.6,1.5-1.3-1.7,1.3-2.6,1.3-4.2-4.6.6-6.5,5.9-11.2,5.6-1,0-2,1.7-3,.1-.9-1.5.4-2.4,1.4-3.3,1.7-1.6,3.9-2.5,5-4.9-3.4-.9-5.8.8-8,2.7-15.2,12.8-32.6,23.1-45.5,38.6-2.8,3.4-4.4,1.1-6.4-.5,16.9-16.1,36.3-28.9,55.6-43.5-5.2-1.1-5.9,3.8-9.1,3.8-15.3,8.3-26.2,22.7-41.6,30.6-2.1,1.1-3.4,4.2-8.1,3.1,17.8-11.3,31.7-25.6,48.6-36.2-.8-2.9,2.8-3.9,2.8-6.5-4.2.3-8.6-2.9-12.7-.4,8.5-6.5,19-8.9,28-14.3-10.1.9-18.6,6.5-27.9,9.6-9.8,3.3-19,8.2-28.2,13-9.1,4.6-18,9.4-27,14.1-9,4.7-18,9.4-27.3,13.5,27.8-16.6,56.5-31.6,86.9-45.3-5.2-1.7-8.1,1.9-11.8,2.8-3.7.8-7.2,2.6-10.6,4.2-7,3.1-13.9,6.3-20.9,9.6-2,1-2.8,1-1.9-1.3,8.3-3.8,16.7-7.7,25.1-11.4,1.3-.5,2-1.1,1.3-2.4,2.6-6.1,9.5-6.7,14-10.6,6.1-5.2,15.2-6.7,23.6-7.7,4.1-.5,4.2,1.4,1.6,4.9,10-6.5,20.6.5,30.3-3.4,1.3-.5,3.9-1.4,4.8-.9,3.4,2.1,4.4,0,5.6-2.3-2.6-.3-2-5.2-6.3-3.8-3.3,1.2-8,2.3-10.6,0-4.1-3.8-6.9-2.2-10.4.2-1.1.7-7.3.4-7.6-.2-2.3-4-2.3-4-6-2.8-4.6,1.4-9.3,2.6-14.3,1.9-1.8-.3-4.1,1-5.4,2.8-.2.3,0,1.3.3,1.5,1.7,1.1,3.6,1.4,5.5.9,3-.8,6.1-1.7,9.1-2.4-11.8,6.4-24.3,10.8-36.7,15-.9.2-1.8.5-2.6.7.9-.3,1.8-.5,2.6-.7.5-.9,1.1-1.8,2.1-3.3-12.4,2.8-24.3,5.6-36.2,8.3,11-5.7,24.3-5,36.4-12.5-28.4,2.5-54.5,7.4-79.7,16.9,23.1-11.2,48.6-14.1,73.4-20.8-3.2-.9-5.8-1.6-2.4-5.4-4.2.9-7.9.3-11.6,1.7-1,.3-2.4,1.5-2.9-1.9-.5-3.4-4,.6-6.1,0,0-2.5,2.6-6.7-3.6-5-2,.5-4.4-.5-6.7-.9.9-2.2,3.3-1.3,4.5-2.9-.5-.2-1-.5-1.5-.5-1.7.3-3.4.5-5.1.9-3.7,1.1-4.3-.7-3.6-3.6-1.9.7-3.7,1.7-5.9,1.1.9-1.7,3-1.5,4.2-2.6-23.7-3.9-47.4-3.7-70.9-6.9,20.8,1.1,41.5,2.5,62.4,1-5.6,0-10.5-3.6-16.2-2.7-1.4.2-2.4-.5-2.7-1.6-.5-1.7,1.1-1.9,2.2-1.9,3.6.2,6.6-.9,9.7-2.8,2.2-1.4,5.6-.1,6.4,1.7.8,1.9,2.4,1.6,3.4,2.4,2.4,2,13.7,4.7,15.4,4.6,3.6-.3,4.4-1.4,3.5-2.8.9,0,2-.3,2.8-.5,5.6-1.5,11.2-2,16.9-2.7-6.2-.5-12.4-1.6-18.4,1.3-1.2,0-2.3-.2-3.5-.3h0c1.2,0,2.3.2,3.5.3-.6-3,3.1-2.9,4-5.1-2.7-2.6-7-.5-9.9-4,9.7-2,18.9-4,28.8-6-7.7-2.7-15.7-1.1-24.1-4.1,11.2.9,22.1-.6,30.9,4.8,3.5,2.2,9.2,2.2,11.3,7.6.8,2,5.4,2.8,8.3,2,2-.5,2.7.2,3.8,1.3,2.1,2.1-.5,1.9-1.2,2.9-3.6,4.9-1.6,7.6,5.9,8.5-6.5,1.9-13.5,2-20.4,3.5,1.1.3,2.2.6,3.9,1.1-2.6.9-4.6,1.5-6.7,2.2,0,.3,0,.5.1.8,5-1,10-1.9,14.9-2.9,2.8-.6,5.6-1.1,7.8,1.6,1.8,2.1,2.9-.3,4.2-.7,3.3-1.2,6.7-3.6,9.7.6.2.3.7.7.9.5,6.7-3.4,13.4,2.2,20.2.1,3-.9,6.1-1.7,8.9,1.2.9.9,2.8.7,4.4.9,2.9.4,3.2-2.8,5.2-3.8-1.1-1.3-1.3-3.4-3.6-3.7-.9-.1-3-.5-1.6-2.6.5-.8,2.6-1.1,1.3-2.4-1-1.1-2.4-1.3-4.2-.7-2.2.6-3.4,2.5-5.4,3.2-1.1.3-2.4,2.8-3.5-.3-.7-1.9-2.3-3.6,1.1-4.4.4,0,.7-.3,1.1-.5,4.4-2.2,6.6-5,2.4-9.3-1.1-1.1-1.2-1.7,0-2.6-3.4,1.5-7.4,1.6-10.9,3.7,1.2-1.3,2.3-2.7,3.6-4.1-.9-1.8-3.4.7-4.2-1.5.9-1.7,2.5-1.5,4-1.5,2.2.1,3.8.1,3.2-3-.3-1.8,1.5-2.4,3-2.5,1.4-.1,2.5,1.7,2.2,2.1-2.9,4.6,2,2.7,3.1,3.9,2.1-.3,4.2.4,6.4-1.3,2.5-2,4.7-1.2,4.2,2.6,0,.7-1,1.3.5,1.3s1.5,0,1.5,0c3.2,10.1,12,14.7,20.2,19.3,5.4,3,8.8,6.9,11.9,12,4,6.3,8.2,12.6,13.4,17.8,1.2,1.1,1.3,2,1.7,3,.8,2.4-4.2,4.9,0,7.3-5.7,1.5,1.7,5.6-1.7,7.6-1.3-.3.5-2.2-1.1-2.6-1.8,2.6-2.1,6-4.5,8.3-2-2,.8-3.9-.3-6.7-2.3,6.2-6.4,8.9-12.1,10.6-3.5,1-6.2,4.8-9.3,7.3-.7.5-2,.7-1.4,2s1.3,1.5,2.3,1.4c1.3,0,3,.2,3.9-.5,4.4-3.2,8.6-4.6,14.1-2.2,1.8.8,5.7-1.3,7.2-4.3,1.9,1.1.1,2,.3,2.9,3.6-1.9,7.1-.6,10.6.6.5.2,1.1,1.3,1.8.7,4.2-3.9,9.5-1.2,14.1-2.6,1-.3,2.5.7,2.9-.9.3-1.3-.4-2.6-1.3-3-3-1.3-3-4.4-4.8-7.5-.1,2-.3,3.2-.4,5.2-2.5-3.7-4.3-6.9-8.9-7.7-1.2-.2-1.5-5.4-2.2-8.3s.9-3.2.3-6.7c-1.7-9.5,8.3-13,9.2-20.8.3-2.8,3.7-6.6-2-8h0c-.4-8.9,8.5-8,12.7-11.4-4.3-5.2-8-3.4-12,.3-4,3.7-2.8,7.2-.7,11,3.1,4.2.3,7.7-2.4,9.7-2.3,1.7-2.1-3.9-5-3.8,1.5-3.3-3.1-6-.9-9.6,1.1-1.9-1.5-6.2,3.8-5.4.5,0-2.6-3.1,1.1-2.4,2,.3,3.5,0,3.8-2.2.3-3,3-.7,4.4-2,2.7-2.4,6.4-2.7,10.1-2,3.3.7,4-1.5,2.6-3.6-1.8-2.7-4.4-4.5-8.1-4.8-4.6-.4-9-2.3-13.5-2.4-1.7,0-4.4.9-6.3,2-2,1.3-2.7,1.8-3.1-1.1-.3-1.9-.3-5-2.7-5.2-2-.1-.5,3.1-1.5,3.8-2.1,1.5-3.5,4.8-7.6,2.8-1.4-.7-4.5-.3-6.7-.6-3.9-.7-3.4-.7-1.6-4.1,1.5-2.8,2.6-9.1,1.7-9.5-5-2.4.1-5.4-1-7.7-.5-1.1-.9-4,2.6-2.8,1.2.4.8-1.6.3-2.1-2.1-2.7-1.5-6.1-2.3-9.1-1.2-4.1,3.4-5.9,5.9-8.4,1.4,1.1,2.8,2.3,4.1,3.4-1-3.2,1.5-6.5-.5-9.5-2.6,0-4-3.6-7.5-2.3,2.2.9,3.8,2.1,4.3,4.2-3-3.7-7.5-2.7-12-3.8,2.6-1.5,4.8-2.6,7-3.9l-.7-5.1c2.2-1.1,3.8-2.9,5.4-4.8l-.2.2h0l.2-.2h0l1.2-1.2h0l-1.2,1.2c.1.9-.1,2,1.1,2.3l2.3-2.3h0c0,.1.1,0,.1,0-.6,1.1-.7,2.5-2.4,2.4h.3c0-.1-.1-.1-.1-.1h-.1c-2.1.9-4.2,1.7-6.4,2.4.2,1.7.5,3.4.7,5.1,2.9,0,5.8-.3,8.7-.2,2.4,0,3.5,1.1,1.9,3.4,2.2-.8,7.2-.3,5.4-3.7-2.6-4.8-.1-9.1-.9-13.5,0-.6-1.1-1-1.6-1.5-1.7,1.1-1,3.7-3.2,4.3-.4.1-.8.3-1.3.3l.2-.2h0s-.1.1-.2.1h0c0-.8.5-1.2,1.3-1.3-.2-2.4-1.5-1.1-2.4-.7,0-5,2-9.5,2.7-14.4-2-.5-1.6,1.3-2.2,2-.8.8-.6,2.4-2.7,1.7-1.8-.7-1.9-1.4-1.6-3,.5-2.2.5-4.5.7-6.9-1.9.4-1.2,3.4-2.9,2.8-1.7-.5-1-2.2-.7-3.5.6-2.5,1.7-5,1.1-8.6-2.2,4.3-2.6,8.4-5.8,12.7,1.1-5.7,2-10.1,3.2-16.1-3.8,6.1-4.4,3.1-5.5,0-2-5.6,0-11,0-16.5s.1-3,.3-5.3c-2.6,2.6-.3,6.3-3.3,8-1.1-6.1,4.7-11.2,3-17.7-3.1,2.7-2.4,6.8-4.8,9.3-.4-.7-.8-1.5-1.3-2.3-1.7,1.7.5,4.6-2.6,5.8.6-4.3,1.5-8.3,0-12.5-.5-1.5.3-4.6,3.9-5.9,2.9-1.1,4.2-5.7,4.2-9.5.2-6.1.3-12.2-2-18.1-.9-2.1-1.2-4.4-.3-6.7,1.9.7-.2,2.8,2.6,3.6-2.2-11.8-.1-23.1.8-34.5h0c3.6,1.3,3.8,1.3,5-2.1,4.8,13,2.8,26.4,5.3,39.3,1.7,0,.9-2.6,2.8-3-.8,5.1-1.5,10-2.3,15.1,2.4-.7-.1-3.2,2.3-3.9,1.3,3.5.1,6.8-2.2,9.5-3.7,4.3-3.5,9.6-4,14.6-.2,1.9.8,3.8,3.7,4.3.5-5.7,0-11.8,4-17.3,2.6,5.2-.7,9.9.5,15.6,1.5-4,2-7.3,2.6-10.6.5,11.6.7,23.1,1.6,34.6.2,2.6-3.4,5.4.3,7.7h0c-6.3,2.8-.1,5.8-.5,9.1,4.1-3.6,3.8-7.1,1-10.8h0v-10.6c.8,4.5,3.4,8.3,4.6,13.5,1.2-5.9-1.7-10.6-.3-15.5,0,4.8,3.2,8.3,5.1,12.5-4.4-13.1-2-26.8-4.6-40.1,3.2,10.1,3.4,21,8.9,30.4.7-2.8-.4-5.3-1.5-7.8-1.5-3.7-2.9-7.4-.8-11.6,1-1.9-1.8-6-3-8.5-1.9-4-2.6-8.5-3-13.1,1.1,2.3,2.3,4.6,3.3,6.7,4.2-2.8.7-6.8,1.4-10.1,1.9-9.9-3.7-19-2.6-28.2,1.4-11.3.1-21.9-3.7-33.5,4.8,2.1,1.8,6.7,5.4,8.5-1.5-4.6-.9-9.3-2.8-13.6-1.9-4.2-.9-10.2,1.2-12,3.8-3.2.2-6.7,2.2-9.5,3,0,2.8,3.4,5,4.4.3-1.1.7-2,1-3-5.1-4.1-5.6-10.4-7.8-15.9-1.7-4.2-2.5-9.2-8.6-9.7-1.2,0-2.2-1.7-1.7-2.6,2.2-4-.3-10,5.8-12.3.3,2.8-1.5,5.3-1.9,7.9-.4,2.4,0,5.2,2,6.1,1.8.7,4.7,2.8,6.5-.3,1.2-2,1.7-4.4,1.2-6.6-.8-3.7-.5-6.9,2.8-9.4,4-3,1.3-7.5,2.4-11.4,1.4-.2,1.6,2.8,2.7,1.7,3.8-4.1,8.6-.8,12.8-1.9,1.3-.4,1.8,1.5.8,2.4-2.6,2.3-1.3,5.4-1.9,8.1-1.5.7-2.4-1.8-2.4-1.4.2,6.3-6.8,10.2-5.6,16.9.3,1.5,1.5,2.8.7,4.6-2.2-2.1-4.5-4.2-6.9-6.4,0,2,0,3.7-.3,5.4-1.2,5.5,2.6,9.1,5.6,12.2,4.6,4.9,6.8,10.1,7.1,18-2-3.3-3.1-5.4-4.5-7.7-1.5,2.3.7,6.1-3.2,6.9,5.4,8.9,7,19,8.3,29,.5,4.1-1.9,7.8-2.6,11.8-.3,1.7-3.7.4-5.1,3.3-3.6,7.2-3.2,14.8-4,22.3-.2,1.7.7,3.4-.4,5.2-2.8-2.1-3.3-5.6-5.8-7.9,3.8,11.5,5.4,23.5,7.8,36.6,2.7-4.4,1.5-8.5,3.6-11.6,1.9.5.3,2.8,1.9,3.4.2-1.8,0-3.6.6-5.2,3-7.2,1.1-14.6,1.4-22.1.7,2.6,1.5,5.2,2.2,7.7-1.8-9.6,3.2-18.8.8-29.2,2.6,2.6,1.3,5.3,2.6,7.7,1.6-5.7,3-11.1,4.6-16.5,1.1,4.4-.1,8.8,1.5,14.7.8-4.2,2.5-6.5,3.6-8.9,2-4.3,3.9-8.9-1.2-12.9-1.7-1.4-2.9-3.6-4.1-5.6-1.9-3-5.9-5.9-.7-9.7,1.4,2.9,4.4,5.1,4.1,9,2-4.2-2-8.5.9-12.9,1.1,1.6,2,3,3.1,4.8.8-2.8-2-4.8-.2-7.5,3.9,3.4,4.9,10,11,11-3-7-9.8-12.5-8.3-21.4.3-1.7-.3-4.4-2.1-6.1-.7-.7-2.1-1.7-1.1-2.7.8-.8,2.4-1.3,3.4.3,2.3-1.3.3-1.5-.5-1.7-2.4-.8-4-2.6-5.4-4.6-3.3-2.5-6.6-4.9-9.8-7.5-.8-.7-1.7-2.3-1.4-2.8,2-3.5.7-8.4,6.2-10.7,4.6-1.9,8.5-5.9,13.5-7.8-4.2-3-2-7.8-3.2-11.6,1.7,4.2,6.5,7.2,5.1,12.6,1.9-.4,3.3,3.1,5.6.6.6-.7,3.1-1.3,2.7,1.6,0,.3-.3,1.3.6,1,.3-.1.5-.9.7-1.5.7,2.4,5,1.8,4.5,5.2-.4,2.4.9,5-1.1,7.1-2.1-2.6-6.2.5-8.3-3.7,1,12.2,4.5,23.1,6.1,35,1.7-1.2,1-5.7,4.4-2.8.9.8.7-1.8.5-1.9-4.3-2.1-2.5-5.8-2.6-9.7,2.7,3.4,4.2,6.8,4.7,10.6,2.2.2,1.4-1.4,1.7-2.3,1.3-4.2,3.8-1.3,5.9-1.3,4,0,8.7-7.1,7.2-11.3-.6-1.7-2.2-2.6,1.1-2.2.7,0,1.9-1.6,1.3-2.6-2.2-4-.7-7.6.5-11.4-2.2,2-3.2-3.2-5.6-.9-1.6-5.4-2.8-1.1-3.4.3-1.7,3.8-3,7.7-4.6,11.8-1.7-3.4-3.2-6.8-6.5-8.9,10.2-6.6,17.6-16.3,25.6-25.1,3.9-4.4,8.3-8.3,11.4-13.4.9-1.3,2.2-1.7,3.4-.7,1.2.9.5,2.3-.3,3-5.4,5.4-8.5,12.4-13.2,18.2-2.7,8.3-.6,17.4-3.8,25.7-1.3,3.6,3.6,4.2,4.7,8.5,1.3-4.8,2-8.4,7.4-7.4-1.5-2.1-2.4-1.9-4.1-1.5-2.1.5-3.6-1-1.9-3,3.7-4.7,4-10.4,5-15.8.3-1.7,0-3.4,2-4.2v-.3c-.6-6.4,4.8-9.7,8-13.7,3.8-4.8,8.3-10.2,15.7-10.4,1.2,0,1.8-1.6,1.3-2.7-.5-1.3-1.7-.7-2.4,0-1.3,1.1-2.6,1.5-4.4.5,2.1-1.1,3.4-3.2,6.3-3.6-1.5-.6-2.3-.9-3.8-1.5,4.2-1.1,7.4-2.8,11.4-1.7,13.6,3.9,25.8,10.4,37.9,17.4,13.2,7.6,24.9,17.1,37.2,26,2.4,1.8,4.2,4.5,6.2,6.7-2.4-.9-4-.3-4.8,2.2-2,5.8-4.3,11.5-7,17.2,3.9-2.2,7.9-4.2,10.6-7.7,2.4-3.2,5-6.7,1.9-11,5.7,1.5,6.3,3.7,4.8,10.1-2.1,8.8-2.7,18.1-4.4,27.2-.5,2.6-.7,5.4-1.8,7.8-2.6,5.9-3.6,12-3.8,18.3,0,1.1.1,2.7-.5,3.4-7.1,7.7-3.2,17.5-4.8,26.2-.9,5,3.2,10.2,6.9,13.8,2.5,2.6,4,5.9,6.9,8.1.5.4,1.8,1.8,1,3-3.3,5.1.9,5.4,4.1,6.4-1.7,1.9-6.3-.6-5.8,3.5.9,7.4,5.1,10.9,13,11.3-3,1.2-5.3,2-8.2,3.2,2,1.9,3.7,3.4,5.4,5.1-1.6,1.3-4,.5-5.2,2.7,1.8,2,4.3,2.5,7,2.8-1.1,2.2-3.8,1.7-5.3,3.6.9,1.4,6.5,1.5,1.6,5.3-1.4,1.1,3.2.5,3.8,4.1-.1.3-5,2,0,4.2,1.5.7-3.4,4.7,2,4.6,3.3,0,.3,1.8.1,2.4-2.6,6.1-2.7,6.1,3.8,6.9,0,1.8-4.3-.4-2.8,3.9v-.2ZM673.4,610.2c.3.2.7.3,1,.5-.3-.2-.7-.4-1-.5ZM655.5,662.6c-10.6-8-19-18.3-29.1-26.9,12.8,5.7,18.7,18.7,29.1,26.9ZM368.2,647h0c-1.1-1.3-4.6.3-4-2.8-.7,3.1,2.8,1.6,4,2.8ZM325.8,623c.3,1-.5,1.5-1.1,1.5-1.7.3-3.4.1-5-1.5,15.3-11.2,31.7-20,49.1-27.2.1,1.9-1.2,1.9-2,2.4-1,.5-2,1.1-3.1,1.5-13.4,5.8-25.9,13.2-38.1,21.4-.3.2-.3.8.1,1.9h0ZM336.3,596.1c8.9-4.2,16.9-10.3,26.6-12.9-.5,1.7-2.2,1.9-3.5,2.6-6.7,3.6-14.1,6.1-19.9,11.3h0c-10.4,4.8-20.7,9.8-31.1,14.8-1.1.5-2.8,1-2.2,2.7.1.4,2,.1,3.3.6-8,.9-13.7,6.9-21.2,9.1,10.4-8.8,22.2-15.5,33.6-22.7,2.8-2,5.6-4,8.4-6,2.8-2,5.6-4,8.5-5.9,5.7-3.8,11.5-7.5,17.5-11-5.9,3.5-11.8,7.2-17.5,11-2.8,1.9-5.7,3.9-8.5,5.9-2.8,2-5.6,4-8.4,6,5.5.2,9.6-3.2,14.1-5.4h0ZM276.7,263.2c11.5,4.4,20.8,13.8,35.2,10.8-10.8-5.9-22.3-7.9-32.5-13.7,3.2-4.8,8.2-7.7,11.4-12.4,1.9-2.7,5.1-2.7,8.1-2.1-.4-1.5-2.5-.5-2.9-1.7,4.1-5.8,9-6.9,15.8-4.4,6,2.2,12.7,1.8,20.3,1.3-9-2.1-16.8-3.9-24.7-5.8,4.6-5.8,10-6.7,16.5-4.3,3.2,1.2,6.7,1.4,10.2.3-5.4-1-10.7-2-17.1-3.2,11.3-8.1,21.9-15.3,33.7-20.8,2.4-1.1,4,.5,5.8,1.4,1.9.9,3.7,1.7,5.8,2.6.5-3.6-3.2-4.4-3.7-7.1,4.7-3,7.7-1.7,11.2,2.6,10.6,13.2,21.8,25.7,35.9,35.4,1.9,1.3,3.5,2.8,5.9,3.4,4.4,1.1.9,4.2,1.6,6.5-1.8-4.2-7.5,0-8.6-4.8-2.1,1.6-1.2,3.5-1.7,5.1-2.4,0-3-2.6-5.4-3.8,2,10.6,8.3,18.9,11.5,29,1.9-2,0-4,1.4-5.4,2.4,2.1,4.3,6.7,8.4,1.5,1.5-1.9,2.6-.4,3,1.5.5,2.4,1.1,4.7,2.2,6.9.5-1.8-.6-3.6.3-5.5,1.6.3,3.6,1.9,5,.1,1.1-1.5-.7-2.7-1.5-4-1.7-2.6-.5-4.8,1.1-6.9,2.6-3.6,6.5-6.2,8.1-10.8,1.4-4.3-.3-5.8-4-4.8-6.4,1.7-5.9-1.7-4.8-5.8.3-1.1.4-2.2.5-3.4.6-5.4-2.2-.3-3.3-1.2.9-2.6.5-5.3-.7-8.2-1.5,1.7-3.5,2-5.4,2.7-2.2.8-3.4,1.3-2.7-1.9.7-3.2-5.1-3.6-2.4-8.1-2.6,1.3-1.1,5.1-3.6,3.8-2.2-1.2-5.2-3.8-2.8-6.9.9-1.1,2.8-3.7,5.4-1.9,7.8,5.3,17.2,5.6,25.9,7.5,3.7.9,3.4,1.7,3.4,4s.6,4.9.2,7.5c-.5,3.5,0,3.5,3.9,5.1,1.8.7,2.9,4.9,5,2.9,3-2.8,3.3-7.1,2-11.3-.2-.5-.3-1.1-.5-1.7-.7-2.4-.6-5,1.1-6.5,1.3-1.2,2.9,1.5,4.5,1.3,2.8-.1,5,2.1,8,1.3-.8,4.4-4.1,7.4-4.5,11.4,2.8.8,5.9-1.7,8.3,1.7.8,1.1.9-1.7,2-2.2.5,3.6-1.7,8.2-.3,10.4,4,5.9.1,10.7-.4,15.9-.4,3.8-4.6,5.8-5,9.7,0,.9-1.4.7-1.8,0-2.6-4.6-1.9,1.9-3.4,1-1.7-4.6-3.4-9.2-4.4-14.1-.7-3.6-2.4-6.6.5-10.2,1.2-1.5.5-4.8-1.5-6.2-2.2-1.7-3,1.4-4.5,2.2-4,2.2-5,5.9-6.1,9.9-1.7,5.8-1.8,5.7-8.5,10.4-1.3.9-1.6,2.8-1.3,4.2,1.6,7.7-3,14.3-3.8,21.6-.2,1.9-.8,3.9-.3,5.7.5,2.2,1.8,10,1.7,14.1-.3,7.2,2.3,13.9,3.9,20.8.3,1.3.5,2.6.4,3.9-2.4-4.4-3.4-9.1-4.4-13.9-1.6-7-2.3-14.2-8.7-19.2-4.5-3.5-1.9-9.1-4-14.6,4.1,2.3,1.3,6.1,4.4,7.7.5-6.2-2-11.3-4.6-16.6-4.2,20.7,4.9,39.3,7.5,58.9-1.6-4.4-3.2-8.7-4.8-13.2-1.6-4.5-3-9.1-4.5-13.6-1.4-4.4-2.7-8.8-4.3-13-.6-1.5-.1-5-2.9-3.9-3,1.3,0,3.6.6,5.1,5.1,11,8.6,22.5,9.3,34.7-6-14.1-9.5-29.2-17.1-43.9-.6,2.4-.9,3.7-1.4,5.4-1.6-3.1-3.4-5.5-3.4-8.9,0-1.7-1.6-3.4-2.4-5.2-2.1-4.8-8.2-1.7-8.3-1.5-1.5,6.5-3.3-.2-5.2.3,3.1,4-3.2,4.1-3.2,7.1,0-.5,0-1.1-.3-1.6-.9-1.6-.7-.2-1.1.3-1.3,1.9-.5,3,.9,4.4,4.4,4.6,7.9,10.4,13.1,13.5,4.3,2.5,4.1,6.6,6.6,9.5s2.2,3.2,4.8-.5c-2.2,4.8,1.3,8.1,2.6,12,.5,1.5.6,1.5,3.5,1.5,1.5,0,1.4,1.7,1.3,2-1.8,8.9,4.6,15.2,6.9,22.8.2.7.3,1.4.4,2.4-4.4-3.2-5.9-8.3-10.2-11-1.6-10.7-6.1-20.4-13.1-28.3-3.2-3.6-4.6-8.6-8.9-11.2-3.2-3.4-6-7.1-9.9-9.9-1.3,2.2,1.7,3.8-.1,6.3-2.4-4-1-10.5-7.3-11.3,1.5,4-.6,6.5-5.2,5.9.6,1.7.5,3.3,0,5.2-1.3-.9-2.3-2-3.6-2.5-1.7-.6-3.5-.8-2.8,2.1.8,3.5,1.5,7,2.4,11.2-2.8-3-2.8-7.1-6.4-8.6-1.2,1.6-1.7,3.3-1.5,5.2-3.8-2.2-4-2.4-6,1.7-.8,1.5-1.3.8-2,.5-5.8-2.4.3,2.6-1.3,2.6-2.2.7-3.2-1.5-5-1.2-.7,4.3-3.1,8.6-.7,13.5-.9-1.2-1.8-2.5-2.9-3.5-1.6-1.3-3.3-3.2-5.7-1.6-1.6,1.1-.1,3.8-.6,4-2.6.7-.3,6.1-5,4.8-.4-.1-2.4,0-3.5.4-3,1.1-6.2,2.2-1.4,5.6-2.2,1.4-3.7-1.8-5.6,0,.4,2.3,2.6,3.8,4.1,6.5-2.7.3-5.2.7-7.6.9-2.6-6.1-3.2-6.4-12.4-8.7,4-.9,8.3.8,10.8-3.4-2.7-1.7-5.4-3.4-9-5.8,5.4-.7,8.7,2.4,13.7,3.3-2.9-2.5-5.4-3.8-2.4-7.4,1.9-2.2-.7-5-3.2-6.1-5.7-2.6-11.4-5.1-17.8-6.5,1.1,6.6,2.2,12.8,3.2,19.1-8.7-12.4-10.7-25.3-4.1-39.1.9-2,1.1-4.5,2.5-6.1,5-5.8.6-5.6-3.5-6.3-3.2-.5-6.6-.9-9.7-.1-5.1,1.3-5.4-1.1-4.8-4.6,5,5.9,11-.3,17.2,2-3.4-6.3-11.2-5.5-13.4-12.2h0ZM398.9,212.3c4.4,6.6,5.9,10.2,5.2,12.7-1.3-2.2-3.1-3.7-3-6.4-2.6,1.1-2.7,3.2-3.4,5.1-.6-3.8.2-7.4,1.3-11.4ZM493,268.2c7.1,7.5,4.4,15.9,3,24.1-5-7.6,1.5-16.5-3-24.1ZM487,253.8c-2.4-4.6.6-10-3.5-13.8-.3-.3,2.8-3.5,4.6-2.3,2.5,1.7,2.6-1.1,5.9-2-6.3,5.5-5.2,12-7,18.2h0ZM484.8,330.7c.8-6.5,1.4-11.3,1.9-16.2,1.3,5,2.8,10.1-1.9,16.2ZM482.8,295.8c-2.8.3-2.4-1.9-2.4-3.7,0-.6-.1-1.1-.1-1.1-.7-2.9-.1-5.4,2.2-5.5,2.2-.1.9,2.8,1.6,4.2.3.6.5,1.7.2,2.2-.7,1.3,1.5,3.7-1.4,3.9h0ZM481.7,263.6c-1.5,1.6-1.3,4.5-.3,6.6,2.4,5.2,2.4,9.7-3.7,13.7.9-11.1,1.7-21.4,2.4-31.7,2.8,3.8,5.4,7.2,1.5,11.3h0ZM477.4,245c-1.3-1.9-2.7-4-4.9-5.1,0-2.6-.1-5.4,0-8,0-3.2,3-2.8,4.8-3.2,2.2-.5,1.8,1.8,2.1,3.2,1.1,4.5,1.7,8.9-2,13.1h0ZM475.5,317.5c0,.1.3.3.5.2.1,0,.3-.1.4-.2-1.9,2.3-1,5.4-2,8.4-2.2-1.3-1.2-4.2-3.4-5.2-1.1.2-1.1,1.5-.9,2.2.7,3-2,2-3.2,2.9-2.1,1.6-1.9-1.1-2.7-1.7-2.4-1.8-2-4.8-2.9-7.3-2.5-6.9-4.8-13.9-7.1-21,2.7.1,3,2.6,4.5,3.6,1.9-1.7-.1-4.9,2.7-5.7,0,0,.6,1.5,1,2.5,2.4-4-3.4-6.8-.7-10.4.2.7.5,1.7.9,3.1,1.3-1.7,1.3-3.3,1.1-4.9-.2-1.3-1.2-2.8.7-3.4,1.7-.5,1,2.4,3.2,2.2.2-2.8.2-5.8,2.2-8.5,1.3,2.9,0,5.9,1.3,8.9.2-2.6.4-5.1.7-7.7.5,9.5,7.1,18.4,4.8,27.8-1.1,4.9-2.3,9.3-.9,14.1h0ZM461.9,391.9c.9,1.3-3,.6-4.7,1.3-3.2,1.3-5.3-.4-6.5-3.9-2.4,8.5-1.9,16,3.6,22.6.7.9.5,1.7.8,2.4,4.2,11.5,5.2,23.7,6.9,35.7,1.1,8.3,1.1,7.5-6.7,13.7-3.3,2.6-5.3,3.6-7.6.8-1.3-1.5-.4-4.6-1-6.7-2.7-9.8-.9-20.1-3-29.9-4.6-20.7-18.4-32.3-37.7-38.7-17.1-5.8-32.3-2-46.8,7.8-6.1,4.1-13,5.8-20.6,5.1,6.6-3,13.2-6.1,19.8-9.2-.1-.3-.2-.7-.3-1-8.9,2.2-17.8,4.4-26.8,6.5h0c.1-2.3,2.2-2.5,3.7-2.8,8.4-1.6,15.3-6.7,23.3-9.7-4,.5-7-2.8-11.6-2.4,4.6-2.4,9.2-1.9,12.8-4.4.7-.5,2-.7,1.8-1.9-.3-1.5-1.8-1.6-2.8-1.3-5.2,1.7-10.3-.3-15.7.5.7-2.9,3.4-1.2,4.9-2.7-2.5-1.2-5.8-.7-8.2-3.8h24.2c-7.2-.8-13.8-3-19.8-6.9-3.4-2.2-5.6-5.2-5-9.6-1-.3-2-.6-2.9-.9h0c.7-3.8-4.1-3.8-4-7.2-3.8,3.8.4,5.6.8,8.3-1.5-1.1-3.4-1-4.4.3-1,1.4,1.3,2,1.9,3.1,1.9,3.4,3.5,7.1,6.3,10.2-3-1.6-6.1-3.2-9.1-4.7-3.5-1.7-7-3-1.8-7.3,2-1.7-2.2-1-2.2-3.2,3.8-.9,4.7-2.9,1.4-6.1-.4-.4-2.8-2.4-.5-3.4,1.5-.6,1.7-5,5-1.3,2.2,2.4,2.8-1.5,4-3.4.7,2.8.5,6.6,5,4.5-3.4,4,.3,7.2,1.3,10.7,5.3,5.7,12.6,7,19.4,9.8,3.3,1.4,6.1,1.5,9.1,0h0c7,4.6,15.3,5.9,23,9,4,1.6,6.3.8,4.6-4.2-.1-.3,1.3-1.2,2.2-1.9-1.7-.7-3.4-1.3-5.3-2,2.2-1.3,4,.7,7.5-.3-3-2.6-5.5-4.4-7.7-6.5-1.5-1.5-4.4-2.2-2.8-5.4,1.5-3,3.7-2.4,6.3-1.9-2.6-2.2-5.1-4.6-8.2-7.2,2.2.5,3.9,1,5.6,1.3,1.1.2,1.9,2.4,3.4.6,1.4-1.7.9-3-.1-4.7-2-3.3-3.9-6.7-5.9-10.2,3.2-1.2,3.1,8,7.3,1.6.5-.7,1.4.7,1.9,1.5,3,4.8,6,9.7,9.1,14.4h0c2.8,4.6,4,9.8,7.3,14.1s3,10.1,3.6,14.5c1.3,11.6.3,12.4,6.9,16.9.8.5,2.4,1.4,2.4,1.4,4.3-7.1,7.1,1.3,11.2,1-2.1-4.4-7.5-7.1-6.9-12.8,2.2-.3,2.9,1.5,4.5,3.8-1.7-7.6-4.7-13.8-4.4-21,2.3,2.2,2,5.4,4.4,8.3.4-8-2-15.3-.7-23.9.9,4.6,1.7,7.9,2.3,11.2,0-6.6,2.4-12.8,3.9-19,.7-3.2,1.1-6.4,1.7-9.7.6-2.8,3.2.5,4-1.3.6-1.3,0-3.2,2-4.1-.6,5.4-1.6,10.6,0,16.8,1.3-4.7,2.2-8.6,3.4-12.9,2.8,5.1,1,10.1.9,15,1.6,0,.8-1.9,1.8-1.9,1.3,0,.8,1,.7,1.7-.3,2.6,0,2.8,2.1,1.1,1-.9.9.7.9,1.3,0,5,1.3,9.7,2.9,14.3,1.2,3.4-1.5,6.9-1.9,12.1,2.6-4.9,3.8-8.6,4.5-12.4.6,6.6-.5,12.8-2.6,19.1-1.3,3.6-5.3,6.7-1.9,11.6h0ZM454.1,508.3c-7.9-.2-8.9-6.8-13.1-9.4,0,0-.1-.3,0-.5,0-.1.3-.2.3-.3,5.8.9,6.8,7.3,12.8,10.1h0ZM422.2,486.5c-.5,2-3,2.1-3.8,3.9.5,1.4,2.1,1.4,4,2.7-4.8-.4-6.9,4.4-11.2,3.6-.5-5.1-5.8-.4-7.4-3.8,8.2,0,.7-7.1,4.5-9.7-3.2,1.2-6.4-3.9-7.8-1.7-3,4.9-6.3,2.3-9.2,1.8-1.6,3.4,3.4,5.2,1.8,8.6,6,1.6,11.5,5.2,18,4.9,3.3,2,6.9,0,11.6.3-4.4,2.4-7.7,4.2-11.5,4.4-.7,2.8,2.4.7,2.2,1.9-.3,1.7-1.9,2.4-3.5,2.3-2.3,0-5.4-1.1-2.2,3,.9,1.3-1.4,1.6-2.2,1.5-2.4-.2-4.8-.8-7.1-1.2.2-2.4,2.2-.9,4-1.1-5-4.7-11.4-8.1-9.3-16-2.7-.9-4.4-2.3-5.8-5.4-2.2-5-8.4-4.1-12.7-6-1.7-.7-3.8-.5-4.9-2.9,3.9-1.1,6.7,2.8,9.9,2.1.3-7-6.6-5.1-10.5-8.5,6.2-2.6,11.4.8,16.9,1.7-2.5-3.8-5.7-5.6-9.9-5.8-9.8-.4-16.7-6.9-24.1-12.2,4-4.5,5.9,2.8,10,2-4.5-7.2-12.4-8.2-17.9-12.6-3.6,1.9-2,3.8,0,5.4,2,1.7,4.4,2.9,6.6,4.3-5.4,1.3-13.7-2.2-14.5-7.3-1.1-6.4-5.2-10.1-9.2-14.2l-.4-.4.4.4c2.3-.3,4.6-.5,6.9-.7-2.9-3.2-7.1-4.6-10.6-6.9-.3-3.4-5-2.8-5.6-6.7,7,3.6,13.6,7.1,20.2,10.5-4.3-5.2-11.4-6.9-15.8-13.1,2.8.8,5.1,1.5,7.7,2.2-.4-2-3.2-2-2.6-4.6,5.9,2.7,12.6.1,18.2,4.1,1.1-2.5-1.3-2.4-1.5-3.6,1.5-.9,2.4.3,3.6.9,1.3.6,3,1.1,3.7-.3.9-1.7-1.5-.9-1.9-1.7-.5-1.5.8-2,1.6-2.7,1.6-1.3,3.2-2.6,5-4,2.1,2.2,1.4,4.8,1.6,7.1,1.1,11,5.9,19.7,12.8,28.4,10,12.5,22.5,17.5,37.6,18.7,5.5.5,10.5-2.8,16.1-1.5,1,.2,2.6-1.6,2,1.2-1.1,4.6,1.5,9.3-.4,13.7-1.8,4.2-3.4,8.7-6.6,12.3.9,1.3,2.3-.5,3.2.7h0ZM422.7,536.6c-1.9,1.2-4,2.2-5.7,3.6s-.5,2.8-2.4,2.6c-.5,0-1.2-.3-.7-.9,1.1-1.4-1.2-4.2,2-5h-9.4c2.5-1.4,3.6-2.8,2.3-5.8s-1.8-4,.7-5.7c2.8-1.8,3.3,1.8,5.2,2h.3-.3c3,1.3,6.1,2.5,5.2,6.9-.5,2.2,2.4.7,2.7,2.2h0ZM418.9,516.3c-4.5,4.8-17.8,4.8-21-.1,7.1,2.6,14,3,21,.1ZM393.6,510.3c1.3-1.5,3.1-.7,4.6-1.1.4,1.8,2.1,1.7,3.4,2.3.6.3,3-.4,1.2,1.7-.7.7-.9,2.8-2.2,1.7-2.2-1.9-5.6-1.7-6.9-4.6h0ZM359.1,491c-1.1,1.2,1.9,1,1,1.7-1.1.9-2.8.6-3.6-.4-3.2-3.6-7.7-4.2-11.8-5.5-4.4-1.4-8.4-4.6-9.8-7.3-2.4-4.8-6.9-3.4-9.3-5.6-2.6-2.4-3.8-.7-5.7-.1,1,1.9.4,4.4,2.6,5.8,1.3.8,3,.8,3.8,2.6-1.1,1.3-3.6,1.2-3.6,3.8,4.8-.4,9.4,1.9,12.5,4.4,2.8,2.4,5.8,4.7,8.8,7,1.8,1.4-1.8,2.6,0,3.9-1.4,1.4-2.6.8-4.2,0-5.2-2.4-10.5-4.6-16.6-2.6,0,2.1,3.1.7,2.8,2.8-.2,2-1.9,1.7-3,2-2.7.7-4.8,1.9-4.9,5,0,3.7-3.4,3.6-5.4,4.3-4.8,1.7-9.8,2.4-15,2.9,3.2-1.5,6.4-3.1,9.7-4.7-1.5-1.7-4.2-.3-5.7-2.2,1.9-1.2,3.6-2.3,5.7-3.6-3.3-1.5-6.1,1.4-9.3.3.7-3.2,4.2-2.8,6.1-4.6-6.7-2.8-.7-4.1.9-5.8-1.3-1.5-3.3.6-4.2-1.4,1.7-2.4,5-1.6,7.6-3.9-4.5,1.2-4.6-5.8-9.5-3.7,3.2-2.2,7.9,0,10.4-4.1-1.9-.2-3.7-.3-5.6-.5v-.6c2.5-.4,5-.9,8.9-1.5-6.5-1.9-12-.5-17.7-1.4,1.8-1.8,4.3,0,5.5-2.1-1-2.2-3.1-.7-4.6-1.5.3-.1.5-.4.7-.4,1.3-.1,2.7,0,4-.3,1.5-.5,4,.3,4.4-1.9.4-2.3-2.6-1.8-3.6-3.3,2.4,0,4.6-.6,6.7-2.2-1.4-.7-2.8-1.5-4.2-2.2,3.2.7,3.8-3.3,6.3-3.4-1.3-.8-2.5-1.6-3.8-2.4.7-1.3,3.8-1.2,2.6-1.5-3.6-1.2,0-4-2-5.4-.9-.6.7-1.4,1-1.1,2.2,1.5,3.5-4.4,5.6-.9,1.5,2.5,4.6,4.6,4.8,6.9,1.5,11.5,12,13.8,18.9,20,6.4,5.7,14.5,9.3,21.6,8.7,6.6-.5,8.4,4.2,13.4,5-3.6,2.4-6.7,3.6-10.2,1.3-1.1-.9-2.3-.7-3,0h0ZM360.6,507.1c-7.5,2.8-11.1-1.6-16.7-4.2,6.5-.5,10.9,1.5,16.7,4.2ZM298.2,528.4c-1.7,2-3.8,2.8-6.1,2.8-1.9,0-4.4.3-4.2-2.4,0-2.4,2.6-2.5,4.4-2.3,2,.3,4,1.2,6,1.9h0ZM309.5,348c-.7.3,2.3,1,1.9,2.7-3.1,2.2-5.6-.7-8.4-1.1,0-1.9,2.7-.8,2.4-2.7-1.2-1.9-3.8.3-5.3-2.3,3.2,1.2,6,1.1,8.9.6-.4.9,5.1,1.3.6,2.8h0ZM331.3,398.3c-2.6.1-5.5-1.3-6.8,3-.9,3-5.1,2-6.5,1.4-3.9-1.7-8.3-2.2-12-4.1.5-2.2,2.6-.5,3.4-2-.5-.1-1-.3-1.5-.3-1.3,0-3,.7-3.4-1-.3-1.5.6-3,2.3-3.4,1.5-.3,3.5-1.1,4.4-.5,5.9,4.2,13.5,4.2,20,6.9h0ZM322.4,365.8c4,.6,6.9,3,8.9,6.4-3.2-1.7-8.9-.2-8.9-6.4ZM309.5,383.7c4.6-.7,7.6,1.7,10.6,3.8-3.9.2-7.6-.1-10.6-3.8ZM323.1,428.8c.1.3.3.5.5.7l.4.4-.4-.4c-.2-.3-.3-.5-.5-.7ZM347.4,466.8c8.2.3,10.9,10.1,18.6,7.9-4.4,2.2-9.2.2-18.6-7.9ZM323.9,429.9c.2.2.4.4.6.5-.2-.1-.4-.3-.6-.5ZM324.5,430.5c.1.1.3.2.4.3-.1-.1-.3-.2-.4-.3ZM325.9,431.6s.2.1.3.2c0,0-.1,0-.3-.2ZM407.8,422.7c.4-6.4-1.6-12.6-2.1-19.2,4.2.4,7.8,1.9,11.2,3.8,7.7,1.3,8.5,14.1,8.2,20.6-.2,4.6-1.1,9.3-2.8,13.6-1.4,3.5-3.4,6.6-6.9,8.3-2.5,1.3-5.3,1.5-8.1,1.4-.2.1-.5.2-.7.3-4.7,2.1-9.1.8-13.5-.3-17.8-4.4-30.1-25.2-25.7-43,.7-3,1.9-5.9,4.9-7.4.3,2.3,4.2,1.7,3.8,4.6,3.4.1,4.2,6.7,8.3,5-5.8,3.8-5.7,5.5-.3,10.2.4.4,1,.4.7,1.1-2.6,5.4,1.7,4.2,4.3,4.6,1.4,2.8,2.9,5.5,4.2,8.4,2,4.6,4.6,3.9,6.9.7,2.8-4,5-8.3,7.5-12.4l.2-.3h0ZM334.8,353.3c-.3.1-.5.3-.8.3.3-.1.5-.2.8-.3ZM363.4,347.3c-4.9-7.1-8.5-14.3-9.7-24.2,3,3.4,4.6,5.4,5.6,8.4,3.3,10.2,10.2,18.4,16.1,27.2,1.9,2.8,6.3,2,7.9,6.5-6.4-3.1-13-3.7-18.8-7.1-1-1.7-2-3.3-3-5-6.2,0-8.4-5-11.4-9.1,2.1,1.3,4.4,2.1,6.7,2.9-5.1-7.5-9.3-15.4-10.3-24.7,3.3,1.7,4.9,4.2,4.8,7.6-.3,6.7,5.4,15.1,12.2,17.5ZM364.4,335.7c-2.8-3.7-3.5-7.7-1.5-12.1,5.8,3.4,0,8.2,1.5,12.1ZM371.8,306.4c4.3,7.5,4.8,15.5,4.4,24.8-4.9-8.3-4.3-16.6-4.4-24.8ZM388.8,324.6c-2.1.4-1.5-2-3.3-3,.9,3.4-1.2,6-1.7,8-.5-3.2-3.2-8.3-1.7-10.1,3.3-3.9,1.3-9.1,4.6-12.2-.2,5.9.6,11.7,2,17.4ZM366.8,361.5c-6.5-.7-12.4-2.5-15.7-8.8,4.2,2.5,8.3,5.4,13.5,5.6.7,1.1,1.5,2.1,2.2,3.2h0ZM338.2,342.1h0c1.3,1.6,1.9,3.3,4.1,3.8-2.2-.5-2.8-2.2-4.1-3.8ZM406.3,322.7c-1.5-4.3,1.9-8.2,1.2-12.5,4.9,4.8-1.4,8.3-1.2,12.5ZM279.9,361.1c.3,0,.6.8.9,1.2-2,1.4-1.1,5.5-5,5.1-.7,0-1.5-.2-2.6-.3.5-1.1,1-1.9,1.3-2.7,1-2.4,3.1-3,5.4-3.2ZM276.1,279.8c1.5,7.1,3,14.3,4.5,21.5-2.8-6.8-4.4-14-4.5-21.5ZM279.1,369.4c-3.4,1.6-2.8,5.4-6.3,5.9-.5-1.7,1.3-2.8,1.4-3.9.3-2.3-2.4-.1-3.8-1.3,3-2.6,5.3-.7,8.7-.7ZM496.4,540.3c-.4,1.4-.2,3.3-.5,5-1.3,5.9-2.6,6.3-7.9,4.2-1.4-.5-.5-1-.3-1.3,1.6-4-.5-6.9-2.6-9.9-1-1.4-3.4-2.5-1.7-4.7,1.3-1.7,4-2.3,5.4-1.8,2.7,1,4.3-.2,6.3-1.6-1.3,3.8,2.4,6.5,1.5,10h0ZM487.4,455.2h0ZM502.2,227.1c.7,0,4.4.7,3.6,4.3-.7,3,.4,8.2-2.9,8.1-3.8,0-1-5.6-2.7-7.9.8-1.9-.9-4.7,2-4.6h0ZM217.6,556.3c1.3,2.6,2.2,4.8,3.8,7.9.5-4.4-1.7-6.8-2.4-9.7-.3-1.2-.6-2.4.9-2.8,1.1-.3,1.4.9,2,1.4,1.4,1.1.9,6.1,4.9,2.5.7-.6,1.3,1.1,1.7,1.9,35.4,68.6,91.4,111.6,164.9,132.5,95,27,187.7,21,277.3-21.2,31.8-14.9,58.3-37.2,80.1-64.8,2.7-3.4,3-7.7,5.8-10.9,7.7-9,14.7-18.4,19.5-29.4,1.4-3.2,2.9-6.4,4.4-9.5,2.8,6.5-.3,12.1-3,18.2,3.2-.7,2.8-3.6,4.6-4.8.3.9.6,1.7,1,2.6,1.1-1.8,2.1-3.4,3.8-6.1.5,4.3-1.5,6.7-2.5,9.3-22.1,51.7-59.7,88.2-109.9,112.7-37.3,18.3-76.6,29.1-117.8,33.9-37,4.4-73.8,4-110.6-.7-27.5-3.5-53.7-12.2-80-21-32.7-10.9-61.7-27.5-87.6-49.6-18.2-15.6-33.4-34-44.7-55.5-5.4-10.2-12-19.6-15.3-30.9-.6-1.7-1.6-3.4-.9-6.1h0ZM742.7,656.4c-.3,7.3-1.3,7.9-7.2,4.8,3.3-.1,3.7-4.8,7.2-4.8ZM380.9,727.6c-1.3-.4-4.5-.4-2.9-2.9,1.9-3,2.7-8.3,8.4-6.9,9.3,2.3,18.5,4.9,27.9,7,36.8,8.5,74,11,111.7,9.5,44-1.9,86.5-10.2,127.8-25.3.9-.3,1.8-.5,2.9-.7-1.3,3.2-1.1,7.2-4.8,8.5,2-.5,4.1-1.1,6.5-1.7-1,5.2-4.8,7.2-9,8.6-21.6,7.1-43.4,13-65.7,17-44.1,7.7-88.4,8.6-132.9,3.4-23.9-2.9-47.3-8.5-70-16.3h0ZM383.4,734.6c-3.6.4-5.9-.9-8.5-1.5-1.1-.3-2.4-.5-2.3-2,0-.7.6-1.5,1.1-1.8,1.1-.5,2,0,3,.7,1.9,1.5,4,2.8,6.7,4.6h0ZM409,714.3c17.3,3.2,34.4,7.5,52.5,9.3-7.6,1.5-42-4.6-52.5-9.3ZM450.4,727.1c-6.3.5-12.4-.6-18.2-2.8,6.1.9,12.2,1.9,18.2,2.8ZM544.6,729.3c-26.4,2.4-52.9,3-79.3,0,26.4,1.7,52.8,1.3,79.3,0ZM479.8,725.8h45.9v.5h-45.8c0-.1,0-.3,0-.5h0ZM549.8,724.1c21.4-3.3,42.5-8,63.7-12-20.8,6.4-42.1,10.2-63.7,12ZM601.9,719.5c-6.7,2.4-13.3,5.4-20.6,4.6,6.9-1.5,13.7-3,20.6-4.6ZM580.3,724.3c-7.5,2.9-15.3,2.7-23.1,2.7,7.7-.9,15.5-1.9,23.1-2.7ZM366.2,716.8c-3.7-2.6-6.1-4.5-8.7-6.3-1.4-1-2.1-2.3-1.4-4,.7-1.7,2.6-1.3,3.5-.9,2.5,1.3,10.3-1.3,5.2,6.4-.5.7.7,2.4,1.3,4.8h0ZM348.4,705.9c-5.1-1.1-10.8-.9-14.1-6.9,6.2,0,9.3,5.4,14.1,6.9ZM304.1,685.8c-4.3-1.4-7.5-4.1-10.8-6.4-1-.7-1.3-1.5-.8-2.4.8-1.7,1.5-.2,2.4,0,4.6,1.5,6.1,5.9,9.2,8.7h0ZM275.1,670c2.4,3.3,2.5,7.3,2.7,10.8.3,3.9,2.2,5.1,5.7,7.5-1.3-3.8,2.1-6.2-.7-9.7,14.5,8.1,27.2,17.4,40.1,26.3,13.3,9.2,28.4,14.2,42.7,21.2,1.1.5,2,1.1,3.2,1.3,2,.5,2.3,1.8,1.7,3.5-.7,1.9-2,1.1-3.4.7-6.2-2.4-12.5-4.8-18.7-7.4-4.4-1.8-8.8-3.8-13.2-5.8.7.1,1.3,0,1.7-.3.9-.8-.3-1.7-.9-2.3-4-3.6-8.2-6.7-14.6-7.3,1.5,1.3,2.5,2.2,3.4,3-2,.7-.9,1.5-.1,2.4,2.6,3.2,6.1,5.5,9.7,7.1,17.8,7.7,35.6,15.1,53.5,22.5,3,1.3,6.3,1.7,9.5,2.3.9.2,2.4.7,2.8-1,.3-1.2-.6-1.6-1.7-1.9-2.4-.6-3.6-1.9-2.8-4.6,1-3,3.2-1.6,4.8-1.2,11,2.6,22,5.2,32.9,8.2,3.8,1.1,7.4,5.1,10.8,4.8,4.4-.4,8.3.9,12.3,1.3,11.1,1.2,22.1,2,33.3.4h-15.1c50.1-.9,100.1-3,149.1-15.3-6.9,2.2-13.8,4.4-21.6,6.8,8.1.3,14.7-2.8,22.2-4.2-.8,1.2-1.9,2.2-1.7,2.6.7,1.5,2,.5,3,.3,10.7-2.7,21.4-5.5,32.6-8.3-.3,4.6-4.6,4.1-6.5,6.1h0c-25.1,7.4-50.3,14.1-76.4,17.1-9.9,1.1-19.9,2.4-29.9,3-29.8,1.8-59.6,2.5-89.4-.1-32.9-2.9-64.3-12.4-95.2-23.3-27.4-9.7-52.8-23.2-75-41.8-13.3-11.1-25.3-23.8-28.2-42.2-.3-2.2-.7-4.5-1.1-7.6,6.5,8.9,12.3,17,18.2,24.9h0ZM699.8,686.8c9.3-5.6,17.8-12.5,27.5-17.6,3.5-1.9,7.1-3.6,8.1-7.9h0c3.7,9.7-2,15.9-8.6,22.9.4-3.6,3.5-4.6,3.4-7.5-1.3-.6-2,1.3-2.6,1.1-6.8-3.2-8.8,2.8-11.8,6.3-5.2,6.1-13,8.6-18.6,14.1-4.9-6.9-4.3-7.1,2.8-11.4h0ZM702.6,710.3c13.2-8.3,26.6-16.3,37.6-27.5,4.2-4.3,7.5-8.6,8.7-14.5,1.3-5.9,3.2-11.4,8.1-15.5,2-1.7,3.4-4.2,4.4-7.4-5.9.3-9.3,4.8-13.6,7.3-1.8-2-.4-3.5.7-4.7,10.4-11.6,20.2-23.7,29.5-36.2,2.4-3.2,4.5-3.8,7.3-.7.4.4.9.7,1.4,1.1,8.6,7.1,8.7,14.5.7,22.4-1.7,1.7-2.6.5-3.9-.1-6.6-3.2-9.8-2.6-14.6,3-6.9,8.2-11.5,17.9-14.8,27.8-4.5,13.5-12,24.1-23.1,32.9-10.3,8.1-20.6,16-32.8,21.4-.7-4.4.9-6.9,4.5-9.2h0ZM166.9,490.8c.9,6.5,1.7,13,2.5,19.6-3-6.3-5.1-12.7-2.5-19.6ZM142,312.7c7.8-2.1,15.3-1.7,22.5,1.7-5.5-.2-11,1.2-15.3,3.8-4.5,2.7-1.7,8.5-.9,12.6.5,2.4,3.4,5.2,7.3,4.3,1.5-.3,3.2-1.9,4.8,0,.7.8.9,1.9,0,2.6-1.4,1.3-2.7,2.4-5,.8-.7-.5-3,1.2-4.7,1.9,1.2,1.9,3.4.8,4.7,2-.9.3-1.9.7-2.9,1,4,.2,4.6,4.3,8.2,6.1-6.1.8-11.3,1.5-16.7,1.5s-4.2-1.1-4.4-3.9c-.7-9.4-1.4-18.8-2.2-28.2-.3-3.6,1.1-5.3,4.4-6.2h0ZM144,368.2c-5.9-.1-9.3-5.9-6.6-11.3.8-1.7,2.2-1.3,3.4-1.1,4.6.5,9.1,1.3,13.7,1.9,2.4.3,3.1,1.4,3.3,3.7.7,7,.9,7-9.8,6.9h-4ZM148.1,375.2c-.5-4.7,3.7-.9,4.9-2.2,3.2.3,7.2-1.2,6.7,4.4-.6,5.9-5.2,3-7.9,3.6-5,1.1-3.5-3.8-3.7-5.8ZM157.9,405.6c-9,.6-9.1.5-9.2-9.9v-1.1c0-8.3,2.8-10.9,10.4-7.5,6.6,2.9.7,9.7,2,14.6.7,2.3-.4,3.7-3.3,3.9ZM135.7,517.1c-2.6-9.1-2.7-18.5-4-27.7-1.3-8.9-2.7-17.8-3.2-26.8-.3-4.5,0-7.5,6-8.6-9.3-2.9-3.4-8.2-4-12.3,3.4,4.5,8.4,6.7,14.9,6.5,5,0,9.9.1,14.9-.1,1.7,0,2.4.1,2.6,1.9.5,5.4,1.1,10.6,1.5,16,.2,2.7-2,1.8-3.2,1.9-4.2.1-8.5-.1-12.7,0-5.4.3-11.8-1.7-14.8,5.6,1.7.3,3.4.6,5.4.9-2,2.4-5.4,1.2-7.3,3.4,3.4,3.4,3.2,7.6,3.8,12,.9,6.5-2.2,13.7,4.2,19.6,2.6,2.2.6,6.5-4.1,7.8h0ZM156.5,533.3c-2.5.8-5.1,1.7-7.8,1.6-.9,0-3-1.4-3,1.1,0,2.2,1.9,1.9,3.4,1.9,2.4,0,4.7-1.8,7.1-.2-10.2,5.9-14.3,3.8-17.3-9.4,5.8,2.4,11.2,1.1,16.6.9,1.5,0,3.8-1.2,4.2,1.5.3,2-1.9,2.1-3.2,2.6h0ZM165.4,552.4c-.8-2.2,1-2.8,2.3-3.8h-1.1c2.1-4-.7-5.1-4.8-6,3.6-1,6.2-4,8.4-.6,1.7,2.6.9,5.5-2.5,6.8,4.8-1.3,4.6,1.6,4.2,4.8-.7,0-1.4-.1-2.1-.1-1.5,0-3.4,1.5-4.3-.9h0ZM182.4,596.7c-5.5-12.4-11.4-24.7-15.3-37.7-.5-1.7,0-2.4,1.5-3,1.3-.5,3-.3,3.2-2.1,2.7,7,5.4,14,8.3,21,2.6,6.2,5.4,12.3,8.1,18.4.7,1.7,2.6,3.3-.6,4.5-2,.7-3.8,2-5.2-1.1h0ZM185.9,607.6c-1.1.3-2.4.3-2.8-1.1-.3-1.1.3-1.9,1.3-2.4,4.2-2.2,8.5-4.5,12.8-6.5,1.5-.7,2.5.4,2.7,1.9,0,1.3-.6,1.9-1.5,2.5-3.8,2.6-7.9,4.6-12.4,5.6h0ZM200.8,697.7c-7.2-18-15.8-35.5-17.3-55.3-.2-2.2,0-4.6.3-6.9,3.6,19.9,10.5,38.7,16.4,57.9.5,1.4,1.1,2.7.7,4.2ZM229.5,711.7c-3.2,4.2-7.6,6.5-12.8,7.1,4.2-2.4,8.5-4.8,12.8-7.1ZM207.7,648.9c-11.1-8.3-17.7-19.4-18.7-33.6-.3-3.6.6-5.5,4.3-5.9,1.3,1.2.7,2.8.7,4.2.3,18.2,11.2,29.3,25.7,37.5,11.2,6.3,22.4,12.7,34.8,16.6,3.2,1,5.8,2.8,9.1,6.5-21.2-5.6-39.7-13-55.9-25.1ZM285.5,745.1c-7.2,4.4-13.9,9.6-21.5,13.4-2.2,1.1-3.2,1.9-4.3-1.5-8.7-27.4-17.7-54.7-26.6-82-.2-.7-.4-1.4-.6-2.2,9.3-.7,9.5-.5,11.4,7.9.3,1.5.7,3,1.1,4.4,1.5,4.4,1.4,10,7.7,11.3-.5-7.5-3.8-14.4-6.8-21.8,3.6.1,6.5,0,7.5,4.1,5,21.6,17.9,38.4,32.5,54.3.4.4.8.9,1.2,1.3,5.9,6.6,5.8,6.5-1.6,11h0ZM355.9,786.9c-1.9-3.1-6.3-3.3-8.4-7.5,10.8,5.4,20.5,11.8,31.7,14.9-8.9.7-15.5-5.2-23.3-7.5h0ZM410,802.2c6.3,0,12.3,2.2,18.2,3.8-6.4-.1-12.4-1.8-18.2-3.8ZM453.8,810c10.6.5,21.2,1,31.7,1.5-10.6,1.7-21,.4-31.7-1.5ZM503.5,812c-5.7,25.4-3.4,50.7.5,76-7.3-25.3-8.7-50.6-.5-76ZM460.5,803c-34.8-2.8-68.4-10.8-100.1-25.5-30.8-14.3-57.5-34-78.7-60.9-3-3.8-6.1-7.7-8.7-13.8,18.7,15.9,36.6,29.9,58.6,37.5-13-8.4-26.8-15.3-38.5-25.5,6.5,2.8,11.8,8,19.7,9.5-3.2-3.1-6-5.7-8.7-8.3,15.2,9.1,32.4,14.5,47.9,25.6-5.4.9-8.6-1.9-12.3-1.8,25,10.8,49.4,23.3,76.9,26.8-7.9-3.1-16.3-4.3-23.7-8.9,6.7,1.3,13.6,2.5,20.3,3.8,0-.3.1-.6.3-.9-3-1.1-6.1-2.1-9.2-3.1,8.7,1.2,17.3,3,26,4.2,24.9,3.4,49.8,5.2,74.9,4.4,5.4-.1,7.5,1.1,7.6,6.7,0,7.9.7,15.9,1.2,23.8.2,3.9-.7,6.1-5.4,6.8-16.1,2.2-32.1.7-48-.5ZM508.6,812.8c-.6-3.8,3.4-1.3,5.4-1.9,2.1-.5,3,1.2,2,2.7-.7,1.1,1,4.4-2.9,3.1-3.5-1.1-2.6,2.2-2.3,3.8.9,3.8.9,7.6.5,11.4-.1,1.5-.2,3.1-2.8,3.4-.7-7.5,1.3-15,0-22.6h0ZM519,950.9c-.3.6,1.3,1.9-.5,2-1.3.2-1.5-.8-1.5-1.9v-9.8c1.8,3.2,3.5,6,1.9,9.6h0ZM510.6,840.3c-1,0-2,0-2.1-1.3,0-1.5,1.1-1.4,2-1.3,2.8.3,5.7,0,9.5,2.6-4.1,0-6.7,0-9.4,0h0ZM522.7,821.4c-3-7.3-2.4-8.3,5.4-9.3-1.8,3.2-3.6,6.2-5.4,9.3ZM550.6,810.5c0-.4-.1-.9-.1-1.3,8.3-1,16.6-2,24.9-3,0,.5.1,1.1.2,1.7-8.3.9-16.6,1.7-24.9,2.6h0ZM688.2,771.2c-4.8,2.9-10.6,4.3-15.5,7.2-3.7,2.2-6.6,2.1-9.4-1.2.1,3.9-1.3,6.3-5.3,8-10.6,4.3-21.7,6.6-32.9,8.6-27.1,4.8-54.6,6.5-82,9.3-7.7.8-15.3,1.1-23,.5-3.1-.3-4.2-1.1-4.3-4.4-.2-9.8-.7-19.6-1.5-29.4-.3-3.4.9-3.8,3.7-3.8,43-.3,85.1-6.6,126.4-18,2.8-.8,4.8-.5,6.5,2,.9,1.5,2.1,2.7,3.2,4.1,1.7,2.1,3.3,4.2,5.4,6.9-26.8,6.1-53.2,12.1-79.5,18.1,0,.4.1.7.3,1.1,18.8-3.6,37.7-7.2,56.5-11,9.8-2,19.4-4.5,29.5-4.8,8.5-.3,16.3-4,23.8-8.1,2.6-1.5,4.2-3.7,4-6.5-.3-3.8,1.9-5.4,4.8-6.9,9.2-5.2,17.5-11.4,25-19-9.4,6.1-18.4,12.7-28.4,18.2-.2-.7-.3-1.2-.4-1.7-1-10.2,3.2-16.2,12.8-20.7,13.4-6.3,24.9-16,35.8-26,5.2-4.8,8.1-11.1,10.6-17.6,4-10.6,8.1-21.2,13.9-30.9,1.8-3,3.6-5.9,6.1-8.3,2.5-2.3,5.2-2.3,7.8-.3,3,2.2,1.2,4.5-.3,6.5-9.3,13.1-13.4,28.4-19.3,43-14.9,37.1-40.6,64.8-74.4,85.4h0ZM801,652.5c1.2-3.4,2.2-6.3,3.2-9.3-.4-.3-.8-.5-1.2-.8-7.3,10.7-16.7,19.9-22.5,31.9,1.8-1.7,3.5-3.2,5.3-4.9-3.5,8.9-8.9,16.3-15.5,23.9-1.5-4.1.2-6.4,1.4-8.7,5.6-10.7,11.5-21.2,17.1-31.9,5.5-10.4,10.8-20.8,16-31.3,1.1-2.1,1.7-2.7,3.6-1.4,6.6,4.2,13.5,7.9,21.9,10.8-11.6,5.4-19.6,14-29.4,21.6h0ZM855.7,648.3c-17.2,9.4-29.4,23.5-39.7,40-28.4,45.9-43,95.7-45.5,149.4-.7,16.1-2.8,32.1-5.4,48.2v-12.6c.7-31.7.8-63.7,9.3-94.5,12.1-44.1,28.6-86.1,61.5-119.6,6.7-6.9,13.5-14.2,23.9-15.9,0,2.8-1.9,3.9-3.9,5ZM980,801.6c.9,3.6-.8,6.1-3,9.5-2.1-15.5-7.9-29.2-11.8-43.3,6.3,10.7,11.6,21.8,14.8,33.8ZM954,829.2c-.5-2.2-.5-4.2,0-6.7,4.5,1,2.9,4.7,3.9,7,.5,1.2-1,2.3-2.5,2.4-2.2,0-1.1-1.5-1.3-2.6h0ZM954.9,781.4c.6.1,1.1.1,1.3.3,1.9,1.9,3.9,3.7,4,6.5,0,.9-1.3,1.3-1.8.9-2.6-1.9-4-4.3-3.6-7.7h0ZM952.2,759.4c3.2,1.1,3.6,4,4.5,7.4-3.5-1.1-5.6-2.8-5.8-6.1,0-.8.4-1.6,1.3-1.3h0ZM943,821.3c.3-1.3,1.7-1.5,2.2-1.1,2.4,1.8,2.4,4.4,1.5,7.4-2.7-1.5-4.5-3.2-3.8-6.3h0ZM924.6,806.6c-.1,1.3-.3,2.4-1.9,2.2-2.6-.3-3.6-2.1-3.5-4.4,0-.8,0-2.2,1-2.5,2.1,1.3,4.6,1.8,4.4,4.7h0ZM922.3,832.3c-1.9,0-2.2-2.1-2.4-3.8-.2-1.7.3-3.5,2-3.4,1.8.1,2.4,2.1,2.8,3.9.3,1.9-1,3.4-2.3,3.4ZM916.3,779.7c3.6.3,5.3,1.9,5.1,5,0,.7-.5,2.2-1.7,1.7-2.8-1.2-3.5-3.6-3.4-6.7ZM913.8,766.9c3.9,2,5.6,4.3,4.7,8.3-4-1.3-5.4-3.8-4.7-8.3ZM920.7,733.1c-.3.3-1.3.3-1.5,0-1.7-2-1.7-4.5-1.4-7,.1-1.5,1.8-2.2.6-4.9,2.8,2.2,2.9,4.3,2.8,5.9-.2,2,1.6,4.2-.5,5.9h0ZM914,709.6c.6.3,1.2.3,1.5.7,1.8,1.8,4.5,3,4.4,6.1,0,.3-1.7.9-1.9.7-1.5-2.3-5.3-3.4-4.1-7.5h0ZM916.1,760.1c.3,1.1.5,2.4-1.2,2.8-2-.8-3.4-2.3-4-4.5-.4-1.6.6-2.4,1.7-2.3,2.1.2,3,2,3.4,4h0ZM892.7,762.6h0c-.5-.5-.9-.9-1.3-1.4-5.3-2.3-3.5-7.5-4.5-11.6-.1-.6.7-1.3,1.7-1s1.9.7,2.1,1.7c.9,3,1.7,5.9,2.4,9,1.3,1.4,2.8,2.7-.4,3.3h0ZM891.7,778.3c-2-1.7-5.5-1.9-4.3-5.4.3-1,1.5-2.1,2.6-1.5,2.6,1.5,2.2,4,1.7,6.9ZM888.8,725.8c.2-3,7.3-5.2,10.3-5.6,2.9-.3,6.3,4.2,8.9-.8.4-.7,1.8,1.1,1.7,1.7-.3,2.1.7,4,.5,5.9.4,4.7.9,9.4,1.2,14.1,0,1.1.7,2.5-.9,2.9s-2.8-.7-2.8-2c-.3-3.4-1.8-2.9-4-1.8-4.2,2-5.7-2.2-7.5-4.2-2.8-3.1-7.7-5.3-7.4-10.3h0ZM901,764.8c.5,0,.9,0,1.2.2,2.6,1.3,4.8,3.1,4.5,6.4,0,.8-1.1,1.1-1.9.5-2.4-1.7-4.9-3.5-3.8-7.1ZM904.2,777.1c3.1.6,4.8,2.3,5,5.3.2,3-.9,1.2-1.6.9-2.4-1.3-4.4-2.8-3.4-6.1ZM905.7,800.1c1.5,3.2,7.9,1.8,5.4,7.9-1-3.2-8.1-1.5-5.4-7.9ZM982.6,820.8c-9.7,17.5-23.7,30.6-40.1,41.5-4,2.6-8.2,7.7-12.2,6.8-4-.9-5.4-7.3-7.6-11.5-20-36.7-43.6-70.7-73.8-99.8-2.8-2.6-3-4.4-.3-7.4,15.5-17.3,33.7-31.6,49.6-48.4,2-2.1,4.2-4,6.1-6.1,1.3-1.4,2.3-1.5,4-.7,5.2,2.5,5.4,3.4,1.1,7.2-17.3,15-34.8,29.8-52,45-7.4,6.5-6.9,4.9-.7,11.2,28.7,29.4,51.5,63.1,72.6,98.1,4.1,6.7,4.3,6.9,10.4,1.9,16.5-13.6,32.9-27.3,43.8-47.7,1.9,4.5.6,7.2-.9,9.9h0ZM880.8,751.1c0,.9-1.1,1.5-1.6,1.1-2.4-1.9-5-3.9-5.7-8.5,1.5.9,2.2,1.1,2.4,1.5,1.5,2,5,2.6,4.8,5.9h0ZM872,760.5c0,1-1.3,3.1-2.7,2.1-2.1-1.5-3.9-3.6-2.8-7.3,2.1,2,5.7,1.6,5.6,5.2Z"/>
          <path class="cls-1" d="M661.9,807.3c-12.8,3.8-20.2,13.2-22.9,25.8-5.1,23.5,11.1,37.6,33.8,29.9,1.3-.4,3.6-1.1,3.7-.9,1.4,3.4,2.4,1.1,3.4-.1,4-5.5,10.6-9.1,10-17.8-.3-4.2,2.7-9,2.7-11.5,0-20.3-13.5-30.5-30.7-25.5h0ZM672.6,818.8h-9.7c4.2-.9,6.7-2.3,9.7,0ZM652,826.6c1.1-.5,2.2-.3,3.2.5.9.8.5,1.6.3,2.6-1.1,3.8-5,5.5-6.7,9.1-1.9-4.6,0-10.8,3.2-12.2h0ZM684,852.4c-.5.3-.8,1.2-1.3,1.8-5.2,6.5-6.5,6.5-12.4,1.1-2-1.9-3.4-4.8-6.7-5.2,2,2.6,4.1,5.3,6.9,9-7.3-3.8-11.8-9.3-17.1-13.7-1.1-.9-2.7-2.3-1.2-3.8,1.9-1.9,2.2.9,3.4,1.5.7.3,1.4.4,2,.6-4-4.4.7-6.7,2.5-9.5,2.2-3.4,3.6,1.4,6.4.9-1.6-2-2.9-4-4.4-5.7-.8-1-.7-1.8,0-2.4,1-.9,1.7,0,2.2.7,5.6,7.7,13.3,13.6,19.8,20.6,1.6,1.5,2.4,2.8-.3,4.2h0Z"/>
          <path class="cls-1" d="M213.1,867.3c-4.2-12.2-5.4-25.3-4.8-38.1.5-11.1,2.4-22.1,5-33.1,1.6-6.9,2.8-13.9,4.1-20.9-1.3.5-1.7,1.1-1.9,1.8-6.5,25.2-11.6,50.6-13.3,76.5-.5,6.8,1.3,12.9,5.3,18.4,2.9,4.1,5.7,8.5,6,13.6.3,5.4,2.3,10,4.3,14.8,4.8,11.5,10.4,22.7,13.6,34.8h-.2c0-.1,0,0,.1,0,2.7,2.4,1.5,7,4.9,9.1.8-1.2.3-2.2,0-3.4-7.7-24.5-14.7-49.2-23-73.5h0Z"/>
          <path class="cls-1" d="M605.6,897.3c-6.1,7.7-10.4,16.8-9.1,27.2,4.9-11,15-17,23.1-24.7,4.4-4.2,10.7-6.1,14.3-11.2-.7-.1-1.9-.3-3.2-.5,7.4-.7,14.7-.9,21.9.2-16.6-6.5-37.9-2.8-47.1,8.9h0Z"/>
          <path class="cls-1" d="M335.2,942.2c-17.3-43-38.6-84.7-43.7-131.7,2.7,47.9,20.8,90.6,43.7,131.7Z"/>
          <path class="cls-1" d="M700.2,781.5c-36.3,16.4-73.9,28-113.8,31.8h11.4c0,.3,0,.5.1.7-5.2,1.5-10.4,3-15.7,4.4,41.5-5.4,81.4-15.9,118-37h0Z"/>
          <path class="cls-1" d="M351.7,794.1c13.1,4.2,24.9,12.1,38.9,13.5-6.7-1.8-12.8-5-19.1-7.5-6.1-2.4-12-5.4-18.2-7.1-7.5-2.1-13.9-5.9-19.7-10.9,4.9.6,8.2,5.2,14.1,5.9-12.1-9.3-25.4-14.9-37.7-22.2,3,2.4,6.1,4.9,9.2,7.3-3.2.5-4.7-3.1-8.1-3.2,2.4,3.2,5.4,5.2,8.4,7,7.7,4.9,15.7,9.6,23.5,14.3,1.1.7,2.1,1.3,1.5,2.6-.7,1.5-1.9.8-2.9.3-1.9-.9-3.9-1.7-5.8-2.6,8,7.9,17.9,11.6,28.4,14.3-5.7-2.4-9.3-6.9-12.6-11.8h0Z"/>
          <path class="cls-1" d="M738.4,776.3c-11.9,22.6-23.3,45.5-23.7,72,2.9-7.7,5.8-15.5,8.7-23.3h-.1c0-7.1,2-13.9,4.5-20.6,3.6-9.4,7.1-18.8,10.6-28.2Z"/>
          <path class="cls-1" d="M460.1,850.5c-7.9.5-15.8.5-23.5,1.9-10.5,1.8-20.4,1.1-30.5-2.7-9.7-3.6-19-8.1-29-11.3,9.7,5.9,19.5,11.9,30.5,15.4,7,2.2,13.9,4.4,21.4,2.6,6.5-1.5,13.3-2.2,20-2.6,5.2-.3,10.2-1,16-1.5-1.9-2.2-3.6-1.8-5-1.7h0Z"/>
          <path class="cls-1" d="M617.5,952.9c-7.3,2.9-7.5,2.9-11.1-3.9-1.6-3-2.9-6.2-4.5-9.3-.6-1.2-.4-3.4-2.3-3.2-2,.2-2.2,2-2.4,3.8-.3,7.3,4.4,12.9,6.6,19.3,1.5,4.2,3.9,4.9,7.8,1.9,3.6-2.8,5-8.7,12.2-7.6-3.1-2.3-4.9-1.7-6.3-1.1Z"/>
          <path class="cls-1" d="M786.2,934.1c11.3-23.7,20.3-48.2,25.8-74-8.3,24.7-17.6,49.1-25.8,74Z"/>
          <path class="cls-1" d="M42.9,858.9c-.3,0-.7,0-.9.2-2.6,3.2-3.4,0-4.6-1.3-6-6.2-11.7-12.6-16.5-19.9-1-1.5-1.7-4.9-4.3-3-2.4,1.8-.3,4.2,1.1,5.9,12,16.3,27.6,29,43.2,41.5-5.2-8.6-17-11.6-18-23.4h0Z"/>
          <path class="cls-1" d="M84.7,851.4c-13.8-16.9-32.3-29.2-45-47.2,9.5,21,27.8,33.6,45,47.2Z"/>
          <path class="cls-1" d="M177.3,758c-5.2,25.7-4.2,51.3.9,76.7-1.7-25.7-2.7-51.2-.9-76.7Z"/>
          <path class="cls-1" d="M606.7,819.2c-.9,1.9-3.6,1.1-3.8,3.5,8.3-.5,15.6-4.2,23.4-6-1.6,2.6-5.4,1.7-7.3,5,5.8-2.2,11.4-3.4,16.8-6.8-3.3-.3-5.6.8-7.9,1.7-1.6-4-4.8,1.3-6.7-1.5,1.3-1.2,3.9-.5,5.2-3.2-16.3,3.1-31.7,7.3-47.1,11.6,9.2,0,18-2.6,27.4-4.3h0Z"/>
          <path class="cls-1" d="M781.5,895.9c-5.6,12.3-9.8,25-12.5,38.2-.2,1.1-1.1,2.5.3,3,1.5.5,2.3-.7,2.7-2.2.9-3.6,1.9-7.1,2.6-10.6,3.4-14.2,9.4-27.6,12.8-42-2,4.6-3.9,9.1-6,13.6Z"/>
          <path class="cls-1" d="M800.4,751.6c6.1-14.5,14.7-27.9,20.4-43.9-8.8,6.9-19.5,30.2-20.4,43.9Z"/>
          <path class="cls-1" d="M113.6,760.9c.6-5-.6-8.1-1.2-11.4-1.4-7.7-3.2-15.3-2.5-23.3v.2c-2.4-8.5-1.1-17.3-.7-27.1-3.4,6.8-1.1,13-2.7,20.1-.3-6-.6-10.6-.9-15.1-1.7,5.6-1,11.1-.3,16.5.9,7.3,3.6,14.2,2.8,21.9-.6,5.8,1.8,11.5,5.4,18.1h0Z"/>
          <path class="cls-1" d="M122.5,766.2c-.2,4.1,3.2,7.8,7.4,7.9,4.6.1,8.8-3.9,8.7-8.8-.1-4.5-2.6-7.1-7.1-7.4-4.1-.2-8.7,4.3-8.9,8.3h0ZM132.2,762.7c.7-1,2.8,1.1,3,3-.6,3-2.2,4.9-5.4,4.9s-4.3-1.3-4.2-4.3c0-4.4,4.7-1.1,6.5-3.6Z"/>
          <path class="cls-1" d="M339.5,938.2c-10.9-25.5-20-51.6-29.7-79.1.8,10.6,23.9,71.7,29.7,79.1Z"/>
          <path class="cls-1" d="M216.5,914.6c-6.9-16.5-10-34.2-19.3-49.6,4.6,17.3,12,33.5,19.3,49.6Z"/>
          <path class="cls-1" d="M216.5,914.6c.8,1.9,1.7,3.8,2.5,5.6-.9-1.9-1.7-3.7-2.5-5.6Z"/>
          <path class="cls-1" d="M298.9,876.7c4.7,23.8,12.3,46.7,21.4,69.2-7.1-23.1-14.2-46.1-21.4-69.2Z"/>
          <path class="cls-1" d="M315.5,956.7c-4.6-14.1-9-27.6-13.4-41.1,1.1,16.5,8.1,38.7,13.4,41.1Z"/>
          <path class="cls-1" d="M185.5,889c8.1,16.9,13.4,35.1,23.3,51.2.5-.2,1-.5,1.5-.7-7.9-17.1-15.7-34.2-23.6-51.4-.4.2-.8.5-1.1.8Z"/>
          <path class="cls-1" d="M494.2,912.9c-3.7.4-6.3,2.5-6.3,6.2,0,3.8,2.8,6.1,6.5,5.9,3.6-.2,4.8-3.3,5-6.2-.4-3.6-1.3-6.3-5.2-5.9Z"/>
          <path class="cls-1" d="M229.8,933.7c-5.7-13.8-11.2-27.7-16.9-41.5-.7-1.7-.6-4.1-4.1-4.9,7.8,19.1,15.3,37.3,22.8,55.7,1.2-3-1.3-5.2-.5-7.9-.5-.5-1.1-.9-1.3-1.4h0Z"/>
          <path class="cls-1" d="M723.3,825.2h.1c.4,4.3-.9,8.5-1.8,12.8-1.7,7.6-3.4,15.1-5.1,22.7.5.1.9.2,1.4.3,4.1-15.2,7-30.7,11.8-45.9-2.2,3.3-4.4,6.7-6.4,10h0Z"/>
          <path class="cls-1" d="M160.2,829.7c8.2,17.2,13,34.3,16.7,51.7-.1-14.5-9.3-43.2-16.7-51.7Z"/>
          <path class="cls-1" d="M391,849.4c11.7,7.9,24.1,13.9,38.9,9.5-14.1,2-26.4-4-38.9-9.5Z"/>
          <path class="cls-1" d="M221.3,802.4c-.7,11.3-2.7,22.7.9,33.8-1.3-11.2,2.6-22.7-.9-33.8Z"/>
          <path class="cls-1" d="M321.4,956.4c-5.4-11.4-9.2-23.2-14.1-36.5.4,11,9.9,35.2,14.1,36.5Z"/>
          <path class="cls-1" d="M217.2,801.7c-3.7,11.2-4.6,27.8-2,35.2,2.1-12.2.5-23.8,2-35.2Z"/>
          <path class="cls-1" d="M67.1,757.8c.1-9.1-3.4-16.6-5.9-24.3-1.1,8.5.3,16.5,5.9,24.3Z"/>
          <path class="cls-1" d="M682.7,940.2c-2.1,6.3-6.7,11-10.9,16,11.9-7.1,18-23.3,13.2-35.1,1.1,6.6-.2,12.9-2.2,19.1Z"/>
          <path class="cls-1" d="M501.8,919.6c.3.9.7,1.7.8,2.6.5,12.2,1,24.5,1.5,36.8,0,2.4,0,4.8,1.5,7,.5-15.1-1.3-30.1-2.1-45.1,0-.5-1.1-.9-1.6-1.3Z"/>
          <path class="cls-1" d="M501.7,919.6h0Z"/>
          <path class="cls-1" d="M380.5,962c-3-14.5-8.5-28.4-11.6-42.9,1.3,15,6.7,28.8,11.6,42.9Z"/>
          <path class="cls-1" d="M848.4,682.3c-1.9-1.2-3-3.2-5.2-4.1-.5.3-1.1.5-1.4.9-.4.7,0,1.4.7,1.9,5.6,3.6,9.6,8.7,13.7,13.6.6.7,1.3.9,2,.5.5-.2,1-.9.9-1.3-.5-2.1-3.7-3.1-2.7-5.9-4.4.5-5.3-3.9-8.1-5.7h0Z"/>
          <path class="cls-1" d="M807.3,924.5c3.3-9.7,8.3-18.7,11.8-28.3-5.8,4.5-9.8,14.5-11.8,28.3Z"/>
          <path class="cls-1" d="M186.9,848.3c-2.3-14.1-4.3-28.4-6.3-42.6.7,14.4,1.7,28.8,6.3,42.6Z"/>
          <path class="cls-1" d="M186.3,830.6c-1.5-13-2.2-26-3.5-39-.6,13.2.5,26.2,3.5,39Z"/>
          <path class="cls-1" d="M342.9,928.6c-5.9-10.5-10-21.8-15.7-32.3,4.4,11.2,8.1,22.7,15.7,32.3Z"/>
          <path class="cls-1" d="M540.2,939.4c-3.6-.3-6.1,2-6.1,5.4s1.8,6.4,5.9,6.4,5.2-2,5.3-5.3c0-3.6-1.4-6.2-5.1-6.5h0ZM540.6,948.8c-2.9.3-3.7-1.7-4.2-3.8-.6-2.4,1.3-3.7,3.2-4,3-.5,3.8,1.9,4.4,4,0,2.6-1.1,3.6-3.4,3.8Z"/>
          <path class="cls-1" d="M89.4,895.1c6.5,4,12.9,7.9,19.4,12-5.4-5.7-10.7-11.6-19.4-12Z"/>
          <path class="cls-1" d="M694.8,951.4c4.6-3,3.7-8.2,7.7-9.8,0-.5,0-.9-.1-1.3.5-6.4,4.8-11.4,6.3-17.5-5.8,8.5-9.2,18.1-13.9,28.6Z"/>
          <path class="cls-1" d="M449.9,816c-11-1.7-22-3.4-33.1-5.2,10.8,3.3,21.7,5.6,33.1,5.2Z"/>
          <path class="cls-1" d="M782.7,917.8c4.4-7,7.6-14.5,8.7-24.4-4.2,8.7-6.7,16.3-8.7,24.4Z"/>
          <path class="cls-1" d="M258.7,945.2c-2.4-9.6-5-19.2-7.4-28.8,1,10,3.3,19.6,7.4,28.8Z"/>
          <path class="cls-1" d="M163.6,923.9c-2.6,2.4-7.6-1.3-9.1,4.1,2.7.5,5.4.9,8.1,1.4,1.8.3,2.4-.7,2.4-2.2,0-1.4-1.3-3.4-1.5-3.2h0Z"/>
          <path class="cls-1" d="M723.8,860.6c1.4-9.4,3.7-18.6,5.9-27.8-4.1,8.8-5.9,18.1-5.9,27.8Z"/>
          <path class="cls-1" d="M702.5,941.5c5.4-5.8,8.4-13,11.8-20-5.4,5.4-8.1,12.4-11.9,18.7,0,.4,0,.9.1,1.3Z"/>
          <path class="cls-1" d="M531.9,882.4c.7,4,4.4,4.4,7.2,5.7,1.1.5,1.8-.3,2-1.5-1.9-2.6-4.7-4.4-7.6-5.8-1.2-.5-1.9.7-1.7,1.7h0Z"/>
          <path class="cls-1" d="M167.6,869.5c2.4,5.8,4.8,11.6,7.1,17.5-.5-6.6-3-12.4-7.1-17.5Z"/>
          <path class="cls-1" d="M227.6,884.2c2.3-4.8-1.3-7.6-2.8-11-1.7,4.2-.3,7.6,2.8,11Z"/>
          <path class="cls-1" d="M846.4,733.4c-.7-4.2-10.5-4.4-4.1-11.1-1.9,1.7-3.8,3.4-6.2,5.5,4.2,1,6.4,4.8,10.3,5.6Z"/>
          <path class="cls-1" d="M695.9,938c2.9-5.1,6.9-9.5,9.2-16.8-6.1,5.2-6.9,11.3-9.2,16.8Z"/>
          <path class="cls-1" d="M92.6,901.1c-4.6-4.6-10-7.6-16.3-9.3,5.4,3.1,10.9,6.2,16.3,9.3Z"/>
          <path class="cls-1" d="M69.8,769.1c.7,5.6,2.4,10.6,6.4,14.7-2.1-4.9-4.3-9.8-6.4-14.7Z"/>
          <path class="cls-1" d="M225.5,827.4c-.1,4.6.5,9.1,2,14.3,2.4-5.9-.8-9.9-2-14.3Z"/>
          <path class="cls-1" d="M555.3,934.7c1.7-5.9,5.3-11.4,4.6-18.8-2.3,6.6-3.9,12.6-4.6,18.8Z"/>
          <path class="cls-1" d="M501.7,919.6h0Z"/>
          <path class="cls-1" d="M501.7,895.5v24c1.7-8,.3-16,0-24Z"/>
          <path class="cls-1" d="M818.4,906.8c-3.8,5-5.8,10.7-6.1,16.9,2-5.6,4.1-11.3,6.1-16.9Z"/>
          <path class="cls-1" d="M137.9,730c-3.3,2.6-6.5,5.4-8.3,9.5,3.3-2.6,6.3-5.6,8.3-9.5Z"/>
          <path class="cls-1" d="M693.1,620.3h0c0,.1.1.1.2.1l-.3-.2h0Z"/>
          <path class="cls-1" d="M393.1,492v-.2h0v.2Z"/>
          <path class="cls-1" d="M892,761.1h-.5c.3.6.7,1,1.1,1.5-.2-.6-.4-1.3-.6-1.9v.4h0Z"/>
          <path class="cls-1" d="M569.4,479.5c-2.3.9-3.4.3-5-.8-2-1.3-2.2-2.5-.3-4,.9-.7.3-1.3-.2-1.9-4-4.8-5-10.2-2.6-16.4-2.4.9-4.9,2.8-5.9,0-1.1-3,2.6-1.9,3.6-3,2.4-2.6,4.2-.1,6.1.6,5.6,2.1,11.3,4.4,17.3,3.1,13.7-3,27-7.5,35.9-19.3,6.4-8.5,12-17.4,9.2-29-.7-3-1.6-7.9,0-9,5.3-4.2.4-6.3-1.5-7.3-8.9-4.9-18.5-9-28.6-8.7-23,.7-45.5,17.5-49.6,40.7-.9,4.8-.8,9.7-1.9,14.2-.7,2.9,1.5,7.1-2.7,9.1,2.4,4.2-1.6,8.4-.3,12,1.3,3.4-1.1,3.3-2.3,4.5-1.7,1.5-3,.6-4.5-.5-1.8-1.3-2.5-3.8-5.1-4.3-.4,6.3,5.6,9.3,7.3,14.4,1.7,5.1,6.5,9.5,3.4,15.8-1.9-1.2.6-3.8-1.9-4.5-2.1,13.7-2,22.5.1,26.2,1.1-2.5,2.6-4.2,4.8-5.4,1.6-.9,2.4-2.7,2-4.3-.6-2.8.5-7.4,2.7-8.5.9-.4,1.6-1.5,2.8,0,2.1,2.8,4.8,5.7,6.3,8.7,1.3,2.5.9,2.9,3.5,1.5,1.4-.8,5-2.4,5.5,1,.2,1.2-1.5,2.7,1,3.2.9.2,1.9-.3,2.7-.5-1.4-1.2,1-3.4-1.5-4.6-.5-.2-.3-3.2.4-4.1,1.1-1.3,4.7-.9,4.6-.3-.8,5.4,4.2,1.7,5.6,4.4.1.5-3.4.8-1.2,2.7.7.5,9.7-1.7,9.9-2.6,0-.2-.3-.7-.3-.9,2-1.9,4.1-3.7,6.2-5.4.3-.3,1.1-.2,1.6-.3v.5c1.7,6.7,7,8.8,13.1,9.7-1.7,2-3.2,3.9-5.2,6.3,5-1.2,9.2-3.4,14.4-2.4-2,2.3-5.4,1.8-5.9,3.6,12.3,2.3,23.1-6.8,35.8-4.6-.9.3-1.8.5-3.7,1.1,7.1-.3,8.9,7.3,14.7,7.4-2,0-4.1-1.1-5.9.6,2.4,2.2-.9,7.3,4.4,8.3,4.3.8,8.6,1.9,13,2.2,1.3.1,2.8-.4,3.4,2,.9,4,6.8,5.8,8.1,2.6,1.3-3,4.4-1.9,5-4.1-.6-2.5-4.6.3-3.6-1.4,2.4-4.2-1.7-3.5-2.8-4-3.3-1.4-7-1.9-10.4-3-2.6-.9-5.8-.3-7.5-3.2,3.6,1.1,7.1,2,11.8,1.9-2.4-2.1-4.7-3.5-4.6-6.5,1.5-.2,3-.5,4.5-.7-3.6-.5-5-5.3-9.4-3.8,1-2,5.2-3.3.5-4.9-.1,0-2-1.9,0-3.4,1.5-1.1-3-2.4-.7-4.4-1.1-.7-1.7.4-2.4.7-6.2,2.4-12.6,4.1-19.2,4.7-3.8.3-8.5-1.9-11.2,3-.2.3-2,.5-2.1.1-1.8-3-4.9-1.9-7.1-1.7-6.7.6-9.1-6.1-14.5-7.7,6.5-.9,12.6-4,19.2-.3,2.6,1.5,6.3-.3,9.5-1.3.6-.2,1.4-.3,1.4-1.4,0-2.3,0-2.2,1.1-2.5,6.6-1.7,11.9-5.3,18-11-7.7-.2-13.7.3-19.8,1.2-.9.2-2.6.4-2.6.7-.5,8.8-7.2,5.9-11.9,6.3-2.2.2-2-.3-2.5-1.7-.7-2-.2-2.9,1.7-3.3,5-.9,10-2.2,15.3-1.9.8-4-2.5-6.3-4.9-7.5-3.5-1.8-8.2-.3-12-3,1-.7,1.9-1.3,2.9-2-2.1-1.5-4.3.5-5.8-1.3,4.7-2.4,9.3-4.9,14.3-7.5-.5,1.7-3.4,2.1-2.2,2.9,1.2.8,2,2.9,4.4,2.3,2.9-.7,6.1-.7,9.5-1.1-1.4,2.1-3.8,1.5-4.5,3.4,12.8-.8,17.2-2.9,26.1-10.8,3.2-2.8,4.2-6.1,5.2-10,.8-3.1-1.8-2.6-2.1-2.3-3,2.9-8.1,3.2-9.7,7.7-.6,1.5-2,2.9-3.2,2.6-5.3-1-10.3,1.3-15.5,1.2.9-5,4.4-7.1,8.7-8.7,3.9-1.4,7-4,7.3-8.3.1-1.7,1.9-4.2-.9-5.6-1.9-1-3.5-.2-5.4.3-6,1.6-9.5,6.8-14.6,9.7-13.6,7.8-26.4,16.9-41.2,22.3-9.3,3.6-15.9,11.8-25.3,15.4h0ZM622.9,398.9c3,6.9,2,12.3,0,17.7v-17.7ZM561.7,405.6c3.6-1.7,7.3-3,11.6-4.6.1,11,4.1,20.6,9.6,29.7,1.2,2,2.1,5.4,5,4.7,2.2-.5,2.1-3.7,2.5-5.9,1-5.4.9-11.2,5.9-15.7-4.2,1.2-5.2-.9-5.4-4-.1-1.7-1.1-3.3-1.2-5-.1-2.6-5.8-10.1,4-5,.5.3,2-.3,2-.6.3-7.7,5.6-3,8.4-3.1,2.6,0,5.3,1.4,7.9,2.3,7.1,2.6,9.5,6.5,7,14.7-4,13-11.2,23.9-24.1,29.9-1.1.5-2.5.9-3.3,1.7-5.7,5.7-12.2,4.4-18,1.3-10.3-5.5-16.5-14.7-19.8-25.6-1.9-5.8,1.8-12,7.9-14.8h0ZM548.2,488.6c-1.9,2.2-2.5,5.6-6.2,7.3,1.1-3.2,2-5.8,3-8.4.5-1.2.8-3,2.6-1.9,1,.5,1.5,2,.6,3h0ZM553,462.6c-3.6-3.1-3.8-6.9-4.9-10.2-.6-1.9.9-3.6,2.6-3.6s1.7,2.1,1.1,3.2c-2,3.7,2.2,6.7,1.1,10.6h0ZM549.4,428.4c4.8,8.8,10.4,15.1,17.7,20.5-11.4-.9-19.5-9.7-17.7-20.5ZM587.3,496.6c-2.8.5-4.9-1.7-7.5-1.6,2.4-.5,4.9-.5,7.2-1.7,1.7-.9,2.6.6,2.8,1.9.2,1.8-1.5,1.3-2.5,1.5ZM612.8,475.9c3.1-.8,4.6.3,5,3.4-5.6,0-11.1,2-17.2.6,3.6-3.2,8.1-3,12.2-4h0Z"/>
          <path class="cls-1" d="M720.4,464.1c-1.4-2.3-4.8-2.8-5-6.3,0-1.1-6.4.8-7.3-5.4-.5-3.2-7.1-4.9-10.4-8.4-1.6-1.7-4-4-7.2-4.8,2.2-2.1,4.8-.7,6.7-2-4.2-2.6-8.1-5.6-12.9-7.1,1.2-.3,2.3-.5,3.5-.8-3.5-.1-3.6-4.8-3.5-5,3.5-5.1-.9-3.2-2.9-3.4-.7,0-1.3-.5-1.9-.8-.3-1.3,6.9-1.7.3-3.6-1.5-.4-2.3-2.6-3.7-3.7-3.4-2.5-4.8-7.1-11-7.1-4.9,0-10.8-.9-15.9-3.6,2.2-1.7,5.3-.3,6.6-3.1-2.8.5-3.6-1.1-4.2-3.3-.2-.9,2.4-2.8-.7-2.8s-6.7-2.4-7.3,1.2c-.6,3.5-3.5,3.1-5.1,5.1,1.8.8,3.2,1.4,5,2.2-3.2,1.7-6.7-1.3-9.8,1.3,2.8,3,4.5,6.6,7.8,8.9,6.9,5,16.5,3.5,23.1,9.5.7.7,2.9-.3,3.5,1.2.7,2-2.4,1.6-2.6,3.6,2.8-.5,5.6-1.7,8.6-1-1.3,2-4.2,1.1-5.2,3.4,3.2,2.1,5.9,4.3,2.2,8.3-1.2,1.3,3.2,2.2.5,4,.7.7,1.6.3,2-.1,4.2-4.7,5.4,1.1,5.3,2.4-.4,5.1,3.2,5.8,6.4,7.1,1.3.5,2.4.9,3.4,2.2-3.2.5-5.8-2.3-9.2-1.3,3.2,2.8,8.2,2.2,10.6,6.1-1.2.3-2.2.6-3.4.9,3.8.9,7.7,1.3,11.3,4-3.4,1.1-6.5-1.9-9.1.7,6.7,3.4,13.7,5,21.2,3.2.9-.2,1.9,0,1.5,1.5,2.1-2.9,5.9-1.1,8.8-3.2h0Z"/>
          <path class="cls-1" d="M546.9,331.1c-2.9,6.8-1.4,13.5.1,20.6.4-1.1,1-2,.9-2.7,0-.5.9-.5.3.5,2.6,3-2.3,7.5,2.6,11.1,1.7,1.3,1.1,6.7.7,9.8-.5,3.7,3.5,6.7.5,10.7-1.3,1.8,2.4.2,3,1.9-1.8,2.8-4,5.5-4.6,9,2.3-.5,2-4.3,5.2-3.6,4.5,1.1,5.4-2,6.7-5.4,2.2-5.9,4.5-11.9,5-18.2.3-3.6,4.2-6.5,3.8-9.3-1.3-9.1-2-9.1.3-15.8.8-2.3-.6-3.2-1.6-4.4-3.3-4.1-6.8-8.1-10.1-12-2.6,4.8-3.5,10.6-7.8,16.8,2.2-8.7,6.3-15.8-.4-21.9.1,3.2-.8,4.8-5.2,3.1-.9-.3,1.1,5.9-2.4,7.7-2-3.3.9-6.7-.5-10.9-2.1,6.1-2.6,11.1-.6,16.8,1.7-1.4,2.8-2.5,4.1-3.6h0Z"/>
          <path class="cls-1" d="M702.7,351.6c-.8-.3-1.1-1.3-1.4-2.3-1.1-5.1-2.2-10.2-3.8-15.2-1.3-3.8-3.3-7.1-1-11.5,1.5-2.8-1.3-1.3-2.4-.9.3-1.1.9-2.1.2-3.2-5.9,3-12.6,4.7-16.3,11.8,4.4-.5,7.1-3.7,10.7-4.5-1.4,2.4-3.8,3.6-5.8,5.3-.7.6-2.4,1.7-1.5,2.6,4.4,4.2,0,5.6-2.1,7.8-.9,1-2.9,1.5-2.4,3.1,1.3,1.8,3.3.5,4.6,1.7-1.7,2.4-5.4,2-6.1,5.6,3.2.1,5.8,3.1,9.6.5-2,2.3-1.9,4.3.5,5,5,1.5,10,2.9,14.9,5,1.7.7,2.5-.7,2.3-2.2-.2-1.4-.7-2.6.6-3.7,1.7-1.7,2.7-3.3-.5-4.6h0Z"/>
          <path class="cls-1" d="M668.6,546c1.1.7,2.1,1.5,3.2,2.1-4.4-1.3-8.1-.3-11.8,2.5,7.9,5.2,16.5,7.5,26,7.8-1.1-2.8-4-2.9-6.7-5.4,4,1,6.9.5,8.5-1.8,1.1-1.6.7-2,2.8-.3-2.9-6-16.3-9.1-22.1-5h0Z"/>
          <path class="cls-1" d="M538.5,263.5v-.2h-.2.2v.2Z"/>
          <path class="cls-1" d="M549,267c.8-.2,2.5,1.5,4,.5,1.9-1.3.9-3.2.5-4.8-1.4-5.9-1.8-12.5-9.3-14.8v5.8c-2.4.9-3.1-2.8-5.6-1.3.9,1.2,1.7,2.4,3.2,4.5-3.5-1.7-5.5-4.2-8.3-4.2-.3,4.6,5.3,6.2,5,10.7,4.4-1.7,5.9,4.9,10.5,3.6h0Z"/>
          <path class="cls-1" d="M700.7,281.1c1.6,1.2,2.9-1.3,4-2.4,2.4-3,4.4-6.2,8.4-9.1-1.3,5.2-4,8.2-6.9,11.2-3.2,3.2-3.1,3.8.1,6.7.4.3,1.1.5.8,1.1-1.9,3.9,2.4,6.9,1.7,10.7,3.3-10.9,6.9-21.7,6.3-34.6-5,4.6-10,7.1-13.5,11.4-1.1,1.4-2.9,3.5-.9,5h0Z"/>
          <path class="cls-1" d="M590.4,311.3c-11.2,3.6-9.3,11.5-6.1,19.9,1.2-1.7,2-4.5,4.8-4,2,.4-1,2.8.9,3.8,7.9-9.1,8.5-11.8,3.4-17.3-.3,2.2-.7,4.2-1.2,7.8-1.1-4.6-.1-8-1.7-10.2h0Z"/>
          <path class="cls-1" d="M585.9,536.5c-1.8-.9-3.8.1-5.1,1.7-1.1,1.4-.3,2.7.3,4.2,1.5,3.6,3,4,7.1,2.6,7.9-2.8,16.3-3.6,24.9-5.2-1.1-.1-2.3,0-3.4-.3-7.9-2.4-16.3.8-23.8-3Z"/>
          <path class="cls-1" d="M429.6,615c-2-.5-3.8,2.1-5,4.1-1,1.9-1.9,3.7-4,4.5,2.1-4.2,4.2-8.3,6.8-13.3-5,2.4-5.9,7.4-9.8,9.8-.7-4,3-6.4,3.7-11.7-6,8.9-14.1,14.1-18.5,23.4,4.4-.6,5-4.5,7.7-5.3,4.6-1.3,2.9,3.7,5,5.5,1.5-1.6,3.1-3.2,4.6-4.8.7-.7.8-1.4.8-2.1,0,.8-.1,1.5-.8,2.1-1.1,1.9-1.1,4.2,1.1,4.6,1.7.3,5,.9,5.5-1.1,1.7-6,6.3-4.2,10.1-4.6-.9-2-1.7-4-2.8-5.8-1.2-2-2.6-4.8-4.4-5.3h0Z"/>
          <path class="cls-1" d="M437,625.9h-.3q0,.1.1.1c.1,0,0,0,0,0h0Z"/>
          <path class="cls-1" d="M591.1,342.4c2.2,0,3.3-2,5-.4-1.5,2-2.9,4.1-5.2,7.4,4-2.1,6.7-3.6,9.3-5,.5-.3,1-.5,1.5-.8h0c-.5.3-1,.5-1.5.8-3.5,6.9-11,10.1-15.2,16.7,3.1.1,5.3-2.7,8.3-2-1,2.5-3.1,4-5.2,5.2-3.8,2.1,2.5,3.4.4,5.6-.3.3,1.9.5,3.1.5,7.1-.2,11.2-5.2,17.6-10-5.1,1.5-5.9-1.6-4.5-2.7,6.5-5.2-1.2-9.6-.6-14.3,0-.6-1.4-1-2.2-.1,3.9-5.4,1-10.6-.6-16.5-4,5.2-5.5,11.2-10.2,15.7h0Z"/>
          <path class="cls-1" d="M658.3,562.2c-4.4-3-9.4-2.5-14.3-3-1.9-.2-4.7-.7-5.2,1.1-.7,2.6,2.5,2.6,4.2,3.6.9.5,2.2.5,2.5,1.8,3.3.5,6.7.5,9.5,2.7,3.2,2.7,3.7-1.5,5-2.4,2-1.5-.2-2.7-1.7-3.7h0Z"/>
          <path class="cls-1" d="M585.1,307.1c1.3-4.8.9-8.9-2-12.8,2.1-.3,3.2,2.6,4.8.6,1.3-1.7-.7-2.8-1.3-3.8-1.7-2.5-1.5-5.7-3.2-9-.5,3.2-.8,5.6-1.1,7.9-2.2-.1-1.6-3.5-4.5-2.6.8,3.5,1.6,7.1,2.4,10.7,4.6,1.2,1.5,6.7,4.9,9Z"/>
          <path class="cls-1" d="M580.4,298.3h0c0-.1-.1-.1-.1-.1h0q0,.1.1.1h0Z"/>
          <path class="cls-1" d="M562.5,544.4c.9,2.4,3.6,3.3,5.9,4.2,1.2.5,3.1,1.1,3.3-.9.5-3.8,3.4-2.4,5.8-3.1-4.2.1-.3-4.2-3.2-4.8-3.2-.8-6.5-1.5-9.3.9-1.1.9-3.2,2-2.6,3.6Z"/>
          <path class="cls-1" d="M575.9,558.1h0c-2.2.4-4.4,1.5-6.7.1-1.7-1.1-3.8.4-4.4,1.5-.7,1.1,1.1,2.4,2.2,3.5,3.8,3.5,8.3,2.6,13.7,2.6-2.1-1.8-3.4-3.1-4.9-4.2-2-1.5-.8-2.4.2-3.6h0Z"/>
          <path class="cls-1" d="M576,558.1c2.8,5,8.2,5.8,13,6.4s-2.2-1.5-.3-2.7c6.1.7,12.2,1.5,18.4,2.2-5.9-1.9-11.4-4.3-17.8-4.6-4.3,0-8.9,0-13.2-1.4Z"/>
          <path class="cls-1" d="M565.6,298.4c2.1.7,2.8-2.4,2.4-4.6-.6-3.6-1.4-7.3-2.2-12-1.3,3.4-.3,6.3-2,8.4-3.6-1.5-1.1-5.3-3.6-8.3v12.2c0,3.7,3.8,3.8,5.5,4.4h0Z"/>
          <path class="cls-1" d="M580.6,302.6c-.9-1.5-.5-2.8-.5-4.3-1.3-.3-1.6-2.1-3.2-1.9-.5,5.4-1.5,10.8,2.2,15,3.8-2.6,3.4-5.7,1.5-8.9Z"/>
          <path class="cls-1" d="M645.6,565.9h0q0-.1,0,0Z"/>
          <path class="cls-1" d="M640.2,564.7c-5.8-2.4-11.6-4.8-18.2-4,10.1,1.3,18.4,8.3,29.1,8.7-1.8-1.6-4.5-1.4-5.6-3.6-2,.7-3.5-.4-5.3-1.1Z"/>
          <path class="cls-1" d="M527.2,391.5c-2.4-1.9,0-4.8-2.4-7.6-1,7.1.2,13.4,1.2,19.7.1-5.9,6.1-11,2.4-17.5-1.1,1.6.4,3.8-1.2,5.4h0Z"/>
          <path class="cls-1" d="M655.7,557.2c5.8,4.3,12.4,6.2,21,7.7-6.9-5.9-13.6-7.9-21-7.7Z"/>
          <path class="cls-1" d="M627.5,577c4.2,4.2,11.3.3,15.1,5.8-1.5-2.4-3.3-4.2-5-6.1-.7-.7-.5-1.5.6-1.5s.5.3.9.6c-2.2-2.6-8.1-2-11.5,1.2h0Z"/>
          <path class="cls-1" d="M638.9,575.8c0,.1.2.2.3.3h0c0-.1-.2-.2-.3-.3Z"/>
          <path class="cls-1" d="M444.4,628c-2.9.8-4.3-4.1-7.4-2-1.4,2-5,3.6-2.6,6.4,2,2.3,5,.2,7.3-.9.9-.3,1.6-1.1,2.2-1.7.5-.5.7-2,.4-1.9h0Z"/>
          <path class="cls-1" d="M686.9,376.7c-.7-.6-.9-2.9-2.2-1.3-3,3.5-8,3.1-10.9,6.9,4.1-1.3,8.7,1.1,12.5-1.8,1.5-1.1,2.3-2.3.7-3.8Z"/>
          <path class="cls-1" d="M703.6,515.7c-5.9.8-11.4-3-16.3,3.2,5.8,0,11.1,2.8,16.3-3.2Z"/>
          <path class="cls-1" d="M572.4,304.3c-.2,7.1-3.7,13.1-2.5,20.3,3-3.2,4.8-16.3,2.5-20.3Z"/>
          <path class="cls-1" d="M668.7,371.4c5.5.3,10.5-1.2,15.9-3.2-10.2-3-11-2.8-15.9,3.2Z"/>
          <path class="cls-1" d="M642.5,377c1.7-.4,4.9-2,4.7-2.1-4.4-3.1,1.5-3,1.4-4.6,0-.4.8-.8,1.2-1.2-.4-1.3-1.5-1.9-2.5-1.3-2.3,1.6-6.1,2-5.5,6.4.2,1.1.3,2.9.7,2.8h0Z"/>
          <path class="cls-1" d="M450.8,607.9c-.7,0-.9,1.5-.6,2.5.3,1.4.9,1.3,2.3,1.4,5.2.5,6.3-2.7,7.4-6.7-3.8-.8-5.8,3.1-9.1,2.8Z"/>
          <path class="cls-1" d="M561.1,623c.9,4.3,2.9,7.7,7.4,8.7,3.4-8-5-5.8-7.4-8.7Z"/>
          <path class="cls-1" d="M568.5,631.8h0c0,.1.1,0,.1,0h-.1Z"/>
          <path class="cls-1" d="M553.3,300.2c1.7-.3,1.9,1.7,2.9,2,2.8-3.2-2.6-5.9-.5-9.1h0c.7-.7,2.1,1.4,1.9-.2-.7-5.5-1.7-10.9-2.8-16.4-.4-2-2.2-2.8-4.1-4,.3,1.7.5,2.8.7,4.5-1.6-.9-2.8-1.7-4.1-2.4.7,1.3,1.2,3,2.2,3.9,4.7,3.8,5.8,9.1,6,14.6-4,0-3.5-5.2-7.7-6.7,1.6,5.3,7.1,8.3,5.4,13.7h0Z"/>
          <path class="cls-1" d="M634.9,571.2c6.5,1.4,12.1,2.6,17.7,3.8-5-4.6-10.6-5.4-17.7-3.8Z"/>
          <path class="cls-1" d="M639.7,382.8c4.6,2,8.7,3.2,12.2-1.7-4.6-1.8-8.2-.1-12.2,1.7Z"/>
          <path class="cls-1" d="M586.1,270c-.1,3.1,1.9,3,3.7,2.1,2.2-1.1,2.9-3.8,1.8-5.2-1-1.3-3.5,0-5.2.8.4-1.7.6-3.4,1.2-5,.3-.9,2-1.7.1-2.6-1.2-.5-1.5.8-1.9,1.6-1.6,4.7-3.2,9.4-5.1,15.1,3-2.4,1.9-6.4,5.4-6.9h0Z"/>
          <path class="cls-1" d="M388.2,641.5c2.7-3.4,9.8-1.7,10.8-9-4.7,2.6-7.9,5.5-10.8,9Z"/>
          <path class="cls-1" d="M541.1,525c-1.4.2-2.8,1.1-3.9,2-1.3,1.1-2.2,2.5-3.7,4.4,2.4-.2,4-.2,5.5-.5,1.8-.4,3.1-1.5,3-3.6,0-.9,0-2.4-.9-2.3h0Z"/>
          <path class="cls-1" d="M588.1,232.5c-1.5,1.6-2.2,3.8-3.4,5.6-1.6,2.2-3.5,5.1-.6,7.9,1.3-4.6,6.1-8,4-13.5Z"/>
          <path class="cls-1" d="M687.5,397.8c5,1.5,9.8,1.4,15.8-.9-6.1-1-11-.5-15.8.9Z"/>
          <path class="cls-1" d="M570.7,534.2c.7-.7,2.7-.8,1.5-2.2-2.3-2.8-5-1-8.2.1,2.6,1,3.3,5.3,6.7,2.1h0Z"/>
          <path class="cls-1" d="M320.5,547h.2-.3,0Z"/>
          <path class="cls-1" d="M320.7,546.9c5.8.7,11.2-.7,16.9-1.5-5.8-.7-11.4-.5-16.9,1.5Z"/>
          <path class="cls-1" d="M639.3,576.1c3.8.9,6.2,6,12,4.2-4.3-2.4-7-6.5-12-4.2Z"/>
          <path class="cls-1" d="M639.2,576.2h.1-.1Z"/>
          <path class="cls-1" d="M595.3,372.6c-3.2,1.4-7.3,1.5-9.7,5.7,3.9-.8,6.4-3.7,10.1-3.3.8,0,2-.5,1.8-1.7-.2-1.3-1.1-1.1-2.2-.7Z"/>
          <path class="cls-1" d="M598.1,303.9c1.9-2.2,4.6-4.3,2-8.3-2.1,2.3-4.6,3.9-4.1,7.2,0,.5,1.9,1.3,2,1.1Z"/>
          <path class="cls-1" d="M568.2,565.7c-3.6-1.4-7.1-2.8-10.7-4.2,2.8,3.3,5.9,5.8,10.2,5.8.1-.5.3-1.1.5-1.5h0Z"/>
          <path class="cls-1" d="M826.8,498.7c4.6.3,6.5-2,6.9-5.8.5-4,.4-8.1.6-12,.2-3.8-1.7-5.8-5.4-6.1-3.6-.3-6.1,1-6.7,4.7-.5,2.6-.5,5.3-.7,6.3v6.2c.2,3.4.7,6.3,5.2,6.7h0ZM829.3,480.9c.2,3.9.9,7.9-1.1,11.5-.9-3.9-.9-7.8,1.1-11.5Z"/>
          <path class="cls-1" d="M179.9,490c3.4,0,4.7-2,4.7-5.2v-5.2h.1c-.2-2.6-.2-5.4-.7-8-.7-3.6-2.6-6-6.7-5.4-3.8.5-5.7,2.8-5.7,6.7,0,4.4.4,8.7,1.2,13.1.9,4.4,4,4,7,4h0ZM175.6,471.7c2,3,1.3,6.2,4,8,.4.3,0,1.8,0,2.7-.9-.9-3.4,2-3.4-1.5,0-2.7-1.2-5.5-.6-9.2h0Z"/>
          <path class="cls-1" d="M211.1,597.5c-4.1,4.6-.5,6.9,2.4,10.6-.2-4.4-.7-7.4-2.4-10.6Z"/>
          <path class="cls-1" d="M371,253.2c2.6,2.6,3.4,1.1,4.8-.2,1.6-1.4,3-3,5.5-5.7-1,3.9-3,5.2-4.6,6.7-3.6,3.5-3.4,6.7.5,9.5,5.8,4.1,9.8,10.4,17.2,13-.6-1.7-1.1-3.2-1.9-5.2,3.6,1.7,3.3,6.2,7,7.1,0-1,0-1.9.3-2.8.3-1.1-.5-3.4,1.7-2.8s0,2.2,0,3.1c.2,3.2.4,6.6,3,9,.7.6.8,2.6,2.4,1.5,1.1-.7.9-1.9.5-3.1-4.6-15.7-9.1-31.3-24-41,0-6.2-6.7-10.9-14-9.6,5.3,2.2,9.8,4.8,12.6,9.6-3.3-1.9-6.5,1.5-10.8-.1,7,4.3,1.4,5.3-.8,6.3-3.4,1.6-7.3,2.2-11.3,5.4,4.7-.7,9.3-3.3,11.7-.9h0Z"/>
          <path class="cls-1" d="M343.4,262.5c-14.1,2-28.5,2.4-43.8,2.3,15.8,9.8,29.7,2.7,43.8-2.3Z"/>
          <path class="cls-1" d="M374.7,275.3c-1.2-1-3-2.5-2.4-3.6,2.2-4.2-1.2-5.6-3.4-5.9-3.7-.3-.5,3.7-2.2,5.1-2.8-.7-3.5-4.6-7-5.4,1.1,2.8,3.8,3.6,4.2,6.1-2.1,1.5-3.6-.4-5.4-1.1,1.1,3.6,9.8,12,11,10.6,3.7-3.7,5.3.4,7.8,1.2.9-2.9-.2-5.2-2.4-7.1h0Z"/>
          <path class="cls-1" d="M291.2,307c-.3,1,.3,1.5.9,1.9,5.5,3.2,11.3,5.2,17.8,5.2-.5-3.3-3.2-3-5.2-5.7,2.5.9,4,1.3,5.3,1.8s2.7-.3,3-.9c.7-1.4-1.2-2.6-1.8-2.7-3.6-.5-5.8-3.6-8.9-4.8-2.8-1.1-10.3,2.4-11.1,5.3h0Z"/>
          <path class="cls-1" d="M299,245.9h-.1c0,.1.3.1.3.1,0,0-.1-.1-.2-.1Z"/>
          <path class="cls-1" d="M333.6,251.1c-6.5-1.7-12,.3-17.7-2.8,6.9,1.4,12.9,2.2,18.8-.2-4,0-7.9-.3-11.8-.6-7.9-.7-15.7-2-23.7-1.5,10.2,6.2,21,9.6,34.4,5.2h0Z"/>
          <path class="cls-1" d="M313.9,258c-8.5-.9-16.5-4.9-25.3-4.1,8.2,2.8,16.1,7.1,25.3,4.1Z"/>
          <path class="cls-1" d="M364.1,222.4c.7,1.7,2.7,2.9,4.2,4.3.7.7,1.7,1.1,2.6.7.7-.3.9-1.1.7-1.9-.7-3.2-7.7-7.3-11.9-6.6.8,2.5,3.6,1.3,4.5,3.6Z"/>
          <path class="cls-1" d="M352.3,273.3c-5.4-5-9.7-5-15.9,0h15.9Z"/>
          <path class="cls-1" d="M368.2,256.2c-.1-.3-1.2-.8-1.4-.6-5,3.2-11.4,3-17.3,7.6,7-1.2,12.2-2.4,17.1-4.5.9-.5,2.2-1.1,1.7-2.5Z"/>
          <path class="cls-1" d="M381.9,232c-2.6-4.7-5.9-8.9-10.7-11.7,1.5,5.6,7.7,7.2,10.7,11.7Z"/>
          <path class="cls-1" d="M428.1,300.6c.3-5.4.2-10.8-1.5-16-2.9,5.7,1.9,10.5,1.5,16Z"/>
          <path class="cls-1" d="M769.2,585.8c-10.6,17.1-21,34.4-35.3,49,15.9-13.3,26.8-30.3,35.3-49Z"/>
          <path class="cls-1" d="M268.7,628.1c-12.7-13.8-22.5-29.6-31.7-45.8,7.7,17.3,17.7,32.9,31.7,45.8Z"/>
          <path class="cls-1" d="M431.2,707.5c12.8,3.9,26.3,5.2,39.9,5.7-13.2-2.4-26.5-3.4-39.9-5.7Z"/>
          <path class="cls-1" d="M546.8,712.9c-12.4.8-24.7,1.7-37.1,2.4,12.5,1,24.9-.3,37.1-2.4Z"/>
          <path class="cls-1" d="M370.8,692c0-.3.2-.5.3-.8-6.3-2.4-12.6-4.8-18.8-7.3-.1.3-.3.6-.3.9,3.6,1.5,7.3,3.1,10.9,4.6,2.6,1,5.3,1.7,7.9,2.6h0Z"/>
          <path class="cls-1" d="M455.7,774.3c-37.3.7-71.4-12-105.4-24.9,38.7,20.4,80.1,28.6,123.4,28.1-5.6-3.8-12.3-1.1-18.2-3.3h.2Z"/>
          <path class="cls-1" d="M471.8,774.2c-9.8-3.6-20-2.6-31.4-3.5,5.6,3.5,11,1.2,15.3,3.6h-.2c5.4-.1,10.8-.1,16.3-.1h0Z"/>
          <path class="cls-1" d="M366.3,383.1c10-.7,20-2.7,30-.1-10-4.2-20-3.9-30,.1Z"/>
          <path class="cls-1" d="M448.1,403c-.5-6.8-2.9-11.4-6.8-17.1-.6,7.7,3.2,11.8,6.8,17.1Z"/>
          <path class="cls-1" d="M393,373.8c-7.1-1-13.8-5.1-21.2-3.8,7.1,1.4,13.8,4.7,21.2,3.8Z"/>
          <path class="cls-1" d="M312.5,708.3c-3.4-6.7-9.6-10.5-16-13.8,4.2,5.8,7.5,12.8,16,13.8Z"/>
          <path class="cls-1" d="M256.7,155.4c1.4-1.6-.7-1.5-1.5-2,0,4.3-4.2,5.5-6.3,8.2-1.3,1.7-2.9,3-4.4,4.4-.7-.1-1.3-.3-1.9-.4-4.6,2.4-5.8,7.5-8.5,11.3-.5.7,1.1.3,1.9.1,2.8-2.4,5.6-4.9,8.3-7.4.5-.9,1-1.7,1.5-2.6,3.6-3.9,7.4-7.7,10.9-11.6h0Z"/>
          <path class="cls-1" d="M233.3,181.5c2.9-1.8,5.5-3.8,7.7-6.2,1.5-1.6,4.9-2.2,3.3-5.7-2.8,2.4-5.6,4.9-8.3,7.4-.9,1.5-1.9,3-2.7,4.5h0Z"/>
          <path class="cls-1" d="M239.9,163.7c3.6-3.5,7.1-7.1,10.6-10.6-4.6,2.4-8.3,5.9-10.6,10.6Z"/>
          <path class="cls-1" d="M753.2,163.8c2.2,5.2,4.2,9.1,9,10.5,1,3.2,3.8,3.4,6.9,4.2-1.5-1.8-2.6-3.2-3.7-4.5,2.4.3,2.9-.2,1.1-2-4.8-4.8-9.7-9.7-14.5-14.6-.7-.3-1.5-.6-2.2-.9,3.4,3.8,6.7,7.6,10,11.4-2.3-.3-3.7-2.6-6.6-4h0Z"/>
          <path class="cls-1" d="M263.2,725.6c5.4,7,9.7,15,16.5,20.8.5-.4.9-.7,1.4-1.1-5.6-6.9-11.2-13.8-16.9-20.7-.4.3-.7.7-1.1,1.1Z"/>
          <path class="cls-1" d="M261.9,730.5c-4.5-7.6-8.1-15.5-11.9-23.3,1.9,8.9,5.2,17.1,11.9,23.3Z"/>
          <path class="cls-1" d="M154.3,463.8c-3.6-.5-7.1-1.1-10.7-1.7,1.7-3.4,6.8-1.3,8.9-5.6-7.1-1.8-13.6,1.3-20.4,1.3,2.9,1.7,7-.4,9.1,3.3-2.7,2-6.7.1-9.7,3.1h22.7v-.5h0Z"/>
        </g>
      </g>
    </g>
  </g>
</svg>